SplineFontDB: 3.2
FontName: RisingSun-ExtraLight
FullName: Rising Sun ExtraLight
FamilyName: Rising Sun ExtraLight
Weight: Extra-Light
Copyright: Copyright (c) 2012, The Raleway Project Authors (matt@pixelspread.com)
Version: 4.321
ItalicAngle: 0
UnderlinePosition: -125
UnderlineWidth: 50
Ascent: 800
Descent: 200
InvalidEm: 0
sfntRevision: 0x0004526e
LayerCount: 2
Layer: 0 1 "Back" 1
Layer: 1 1 "Fore" 0
XUID: [1021 158 994486733 6801483]
StyleMap: 0x0040
FSType: 0
OS2Version: 4
OS2_WeightWidthSlopeOnly: 0
OS2_UseTypoMetrics: 1
CreationTime: 1683072783
ModificationTime: 1710186154
PfmFamily: 81
TTFWeight: 200
TTFWidth: 5
LineGap: 21
VLineGap: 0
Panose: 0 0 0 0 0 0 0 0 0 0
OS2TypoAscent: 923
OS2TypoAOffset: 0
OS2TypoDescent: -213
OS2TypoDOffset: 0
OS2TypoLinegap: 21
OS2WinAscent: 944
OS2WinAOffset: 0
OS2WinDescent: 234
OS2WinDOffset: 0
HheadAscent: 923
HheadAOffset: 0
HheadDescent: -213
HheadDOffset: 0
OS2SubXSize: 650
OS2SubYSize: 600
OS2SubXOff: 0
OS2SubYOff: 75
OS2SupXSize: 650
OS2SupYSize: 600
OS2SupXOff: 0
OS2SupYOff: 350
OS2StrikeYSize: 50
OS2StrikeYPos: 300
OS2CapHeight: 710
OS2XHeight: 520
OS2Vendor: '    '
OS2CodePages: 2000019f.00000000
OS2UnicodeRanges: a00002ff.4000205b.00000000.00000000
Lookup: 1 0 0 "'aalt' Access All Alternates lookup 0" { "'aalt' Access All Alternates lookup 0 subtable"  } ['aalt' ('DFLT' <'dflt' > 'cyrl' <'BGR ' 'SRB ' 'dflt' > 'latn' <'AZE ' 'CAT ' 'CRT ' 'KAZ ' 'MOL ' 'ROM ' 'TAT ' 'TRK ' 'dflt' > ) ]
Lookup: 3 0 0 "'aalt' Access All Alternates lookup 1" { "'aalt' Access All Alternates lookup 1 subtable"  } ['aalt' ('DFLT' <'dflt' > 'cyrl' <'BGR ' 'SRB ' 'dflt' > 'latn' <'AZE ' 'CAT ' 'CRT ' 'KAZ ' 'MOL ' 'ROM ' 'TAT ' 'TRK ' 'dflt' > ) ]

StartChar: .notdef
Encoding: 65536 -1 0
Width: 608
GlyphClass: 1
Flags: W
LayerCount: 2
Fore
SplineSet
558 689 m 2,0,1
 558 699 558 699 553 704.5 c 128,-1,2
 548 710 548 710 540 710 c 2,3,-1
 69 710 l 2,4,5
 61 710 61 710 55.5 704 c 128,-1,6
 50 698 50 698 50 687 c 2,7,-1
 50 25 l 2,8,9
 50 12 50 12 55.5 6 c 128,-1,10
 61 0 61 0 77 0 c 2,11,-1
 525 0 l 2,12,13
 542 0 542 0 550 6.5 c 128,-1,14
 558 13 558 13 558 29 c 2,15,-1
 558 689 l 2,0,1
506 74 m 2,16,17
 506 61 506 61 499 55.5 c 128,-1,18
 492 50 492 50 478 50 c 2,19,-1
 125 50 l 2,20,21
 111 50 111 50 106.5 55 c 128,-1,22
 102 60 102 60 102 71 c 2,23,-1
 102 641 l 2,24,25
 102 650 102 650 106.5 655 c 128,-1,26
 111 660 111 660 118 660 c 2,27,-1
 491 660 l 2,28,29
 498 660 498 660 502 655 c 128,-1,30
 506 650 506 650 506 642 c 2,31,-1
 506 74 l 2,16,17
538 33 m 1,32,-1
 123 696 l 1,33,-1
 71 669 l 1,34,-1
 478 28 l 1,35,-1
 538 33 l 1,32,-1
EndSplineSet
EndChar

StartChar: exclam
Encoding: 33 33 4
Width: 239
GlyphClass: 1
Flags: W
LayerCount: 2
Fore
SplineSet
76 37 m 256,0,1
 76 28 76 28 79.5 20 c 128,-1,2
 83 12 83 12 89 6 c 128,-1,3
 95 0 95 0 102.5 -3.5 c 128,-1,4
 110 -7 110 -7 120 -7 c 0,5,6
 129 -7 129 -7 137 -3.5 c 128,-1,7
 145 0 145 0 150.5 6 c 128,-1,8
 156 12 156 12 159.5 19.5 c 128,-1,9
 163 27 163 27 163 37 c 0,10,11
 163 46 163 46 159.5 53.5 c 128,-1,12
 156 61 156 61 150.5 67 c 128,-1,13
 145 73 145 73 137 76 c 128,-1,14
 129 79 129 79 120 79 c 0,15,16
 110 79 110 79 102.5 76 c 128,-1,17
 95 73 95 73 89 67 c 128,-1,18
 83 61 83 61 79.5 53.5 c 128,-1,19
 76 46 76 46 76 37 c 256,0,1
136 213 m 1,20,-1
 141 433 l 1,21,-1
 141 717 l 1,22,-1
 98 717 l 1,23,-1
 98 433 l 1,24,-1
 103 213 l 1,25,-1
 136 213 l 1,20,-1
EndSplineSet
EndChar

StartChar: numbersign
Encoding: 35 35 6
Width: 664
GlyphClass: 1
Flags: W
LayerCount: 2
Fore
SplineSet
626 504 m 1,0,-1
 512 504 l 1,1,-1
 563 710 l 1,2,-1
 524 710 l 1,3,-1
 474 504 l 1,4,-1
 258 504 l 1,5,-1
 309 710 l 1,6,-1
 271 710 l 1,7,-1
 221 504 l 1,8,-1
 79 504 l 1,9,-1
 79 470 l 1,10,-1
 212 470 l 1,11,-1
 159 250 l 1,12,-1
 38 250 l 1,13,-1
 38 214 l 1,14,-1
 151 214 l 1,15,-1
 98 0 l 1,16,-1
 136 0 l 1,17,-1
 188 214 l 1,18,-1
 404 214 l 1,19,-1
 351 0 l 1,20,-1
 390 0 l 1,21,-1
 441 214 l 1,22,-1
 585 214 l 1,23,-1
 585 250 l 1,24,-1
 450 250 l 1,25,-1
 503 470 l 1,26,-1
 626 470 l 1,27,-1
 626 504 l 1,0,-1
197 250 m 1,28,-1
 250 470 l 1,29,-1
 466 470 l 1,30,-1
 413 250 l 1,31,-1
 197 250 l 1,28,-1
EndSplineSet
EndChar

StartChar: dollar
Encoding: 36 36 7
Width: 616
GlyphClass: 1
Flags: W
LayerCount: 2
Fore
SplineSet
295 -98 m 1,0,-1
 327 -98 l 1,1,-1
 327 13 l 1,2,-1
 295 14 l 1,3,-1
 295 -98 l 1,0,-1
325 19 m 1,4,-1
 325 694 l 1,5,-1
 297 690 l 1,6,-1
 297 20 l 1,7,-1
 325 19 l 1,4,-1
295 690 m 1,8,-1
 327 693 l 1,9,-1
 327 815 l 1,10,-1
 295 815 l 1,11,-1
 295 690 l 1,8,-1
536 631 m 1,12,13
 515 653 515 653 491 668.5 c 128,-1,14
 467 684 467 684 439.5 694.5 c 128,-1,15
 412 705 412 705 382 710 c 128,-1,16
 352 715 352 715 318 715 c 0,17,18
 261 715 261 715 215 702 c 128,-1,19
 169 689 169 689 136 664 c 128,-1,20
 103 639 103 639 85 602 c 128,-1,21
 67 565 67 565 67 518 c 0,22,23
 67 474 67 474 82.5 445 c 128,-1,24
 98 416 98 416 128 396 c 128,-1,25
 158 376 158 376 202 362 c 128,-1,26
 246 348 246 348 304 337 c 0,27,28
 362 325 362 325 404 311.5 c 128,-1,29
 446 298 446 298 474 280 c 128,-1,30
 502 262 502 262 516 236.5 c 128,-1,31
 530 211 530 211 530 175 c 0,32,33
 530 103 530 103 475 68 c 128,-1,34
 420 33 420 33 324 33 c 0,35,36
 284 33 284 33 247.5 39.5 c 128,-1,37
 211 46 211 46 178.5 59.5 c 128,-1,38
 146 73 146 73 118 92 c 128,-1,39
 90 111 90 111 67 135 c 1,40,-1
 42 101 l 1,41,42
 72 74 72 74 103.5 54 c 128,-1,43
 135 34 135 34 169.5 20.5 c 128,-1,44
 204 7 204 7 242 0.5 c 128,-1,45
 280 -6 280 -6 323 -6 c 0,46,47
 380 -6 380 -6 426.5 6 c 128,-1,48
 473 18 473 18 506 41 c 128,-1,49
 539 64 539 64 557 99 c 128,-1,50
 575 134 575 134 575 180 c 0,51,52
 575 227 575 227 557.5 258.5 c 128,-1,53
 540 290 540 290 507.5 312 c 128,-1,54
 475 334 475 334 428 348.5 c 128,-1,55
 381 363 381 363 323 375 c 0,56,57
 268 386 268 386 228 398 c 128,-1,58
 188 410 188 410 162 426 c 128,-1,59
 136 442 136 442 124 465.5 c 128,-1,60
 112 489 112 489 112 524 c 0,61,62
 112 593 112 593 161 634.5 c 128,-1,63
 210 676 210 676 318 676 c 0,64,65
 350 676 350 676 377.5 671 c 128,-1,66
 405 666 405 666 429 656.5 c 128,-1,67
 453 647 453 647 474 632.5 c 128,-1,68
 495 618 495 618 513 598 c 1,69,-1
 536 631 l 1,12,13
EndSplineSet
EndChar

StartChar: percent
Encoding: 37 37 8
Width: 691
GlyphClass: 1
Flags: W
LayerCount: 2
Fore
SplineSet
188 439 m 256,0,1
 218 439 218 439 243.5 450 c 128,-1,2
 269 461 269 461 288.5 480 c 128,-1,3
 308 499 308 499 319.5 525 c 128,-1,4
 331 551 331 551 331 579 c 0,5,6
 331 609 331 609 319.5 634.5 c 128,-1,7
 308 660 308 660 288.5 679 c 128,-1,8
 269 698 269 698 243.5 709 c 128,-1,9
 218 720 218 720 188 720 c 256,10,11
 158 720 158 720 132 709 c 128,-1,12
 106 698 106 698 86.5 679 c 128,-1,13
 67 660 67 660 55.5 634.5 c 128,-1,14
 44 609 44 609 44 580 c 256,15,16
 44 551 44 551 55.5 525 c 128,-1,17
 67 499 67 499 86.5 480 c 128,-1,18
 106 461 106 461 132 450 c 128,-1,19
 158 439 158 439 188 439 c 256,0,1
187 468 m 0,20,21
 166 468 166 468 146 476.5 c 128,-1,22
 126 485 126 485 111 500 c 128,-1,23
 96 515 96 515 87.5 535.5 c 128,-1,24
 79 556 79 556 79 579 c 0,25,26
 79 601 79 601 87.5 621.5 c 128,-1,27
 96 642 96 642 110.5 657.5 c 128,-1,28
 125 673 125 673 145 682 c 128,-1,29
 165 691 165 691 187 691 c 256,30,31
 209 691 209 691 229 682.5 c 128,-1,32
 249 674 249 674 264 658.5 c 128,-1,33
 279 643 279 643 287.5 623 c 128,-1,34
 296 603 296 603 296 579 c 0,35,36
 296 558 296 558 287.5 537.5 c 128,-1,37
 279 517 279 517 264.5 501.5 c 128,-1,38
 250 486 250 486 230 477 c 128,-1,39
 210 468 210 468 187 468 c 0,20,21
505 -10 m 0,40,41
 534 -10 534 -10 560 1 c 128,-1,42
 586 12 586 12 605.5 31 c 128,-1,43
 625 50 625 50 636 75.5 c 128,-1,44
 647 101 647 101 647 131 c 0,45,46
 647 160 647 160 636 185.5 c 128,-1,47
 625 211 625 211 605.5 230 c 128,-1,48
 586 249 586 249 560 260 c 128,-1,49
 534 271 534 271 504 271 c 0,50,51
 475 271 475 271 448.5 260 c 128,-1,52
 422 249 422 249 402.5 230 c 128,-1,53
 383 211 383 211 372 185.5 c 128,-1,54
 361 160 361 160 361 131 c 0,55,56
 361 101 361 101 372 75.5 c 128,-1,57
 383 50 383 50 402.5 31 c 128,-1,58
 422 12 422 12 448.5 1 c 128,-1,59
 475 -10 475 -10 505 -10 c 0,40,41
504 19 m 0,60,61
 482 19 482 19 462.5 27.5 c 128,-1,62
 443 36 443 36 428 51.5 c 128,-1,63
 413 67 413 67 404 87 c 128,-1,64
 395 107 395 107 395 131 c 0,65,66
 395 153 395 153 403.5 173 c 128,-1,67
 412 193 412 193 426.5 208.5 c 128,-1,68
 441 224 441 224 461 233 c 128,-1,69
 481 242 481 242 504 242 c 0,70,71
 525 242 525 242 545 233 c 128,-1,72
 565 224 565 224 580 209 c 128,-1,73
 595 194 595 194 604 173.5 c 128,-1,74
 613 153 613 153 613 131 c 0,75,76
 613 108 613 108 604.5 88 c 128,-1,77
 596 68 596 68 581.5 53 c 128,-1,78
 567 38 567 38 547 28.5 c 128,-1,79
 527 19 527 19 504 19 c 0,60,61
80 -2 m 1,80,-1
 356 346 l 1,81,-1
 635 692 l 1,82,-1
 610 712 l 1,83,-1
 335 364 l 1,84,-1
 56 18 l 1,85,-1
 80 -2 l 1,80,-1
EndSplineSet
EndChar

StartChar: ampersand
Encoding: 38 38 9
Width: 650
GlyphClass: 1
Flags: W
LayerCount: 2
Fore
SplineSet
642 0 m 1,0,-1
 253 405 l 2,1,2
 220 440 220 440 199 465 c 128,-1,3
 178 490 178 490 166.5 509 c 128,-1,4
 155 528 155 528 150.5 542 c 128,-1,5
 146 556 146 556 146 569 c 0,6,7
 146 593 146 593 156 613.5 c 128,-1,8
 166 634 166 634 183.5 649.5 c 128,-1,9
 201 665 201 665 225 674 c 128,-1,10
 249 683 249 683 277 683 c 0,11,12
 328 683 328 683 361 655 c 128,-1,13
 394 627 394 627 394 583 c 0,14,15
 394 558 394 558 382.5 536.5 c 128,-1,16
 371 515 371 515 349 493.5 c 128,-1,17
 327 472 327 472 296.5 451 c 128,-1,18
 266 430 266 430 229 405 c 0,19,20
 193 381 193 381 161 357 c 128,-1,21
 129 333 129 333 104.5 306 c 128,-1,22
 80 279 80 279 65 247 c 128,-1,23
 50 215 50 215 50 176 c 0,24,25
 50 132 50 132 68.5 98 c 128,-1,26
 87 64 87 64 118 39.5 c 128,-1,27
 149 15 149 15 189 2.5 c 128,-1,28
 229 -10 229 -10 272 -10 c 0,29,30
 339 -10 339 -10 395 19.5 c 128,-1,31
 451 49 451 49 490.5 98 c 128,-1,32
 530 147 530 147 552.5 211 c 128,-1,33
 575 275 575 275 575 344 c 1,34,-1
 537 344 l 1,35,36
 537 282 537 282 518 224.5 c 128,-1,37
 499 167 499 167 465 123 c 128,-1,38
 431 79 431 79 383 52 c 128,-1,39
 335 25 335 25 277 25 c 0,40,41
 244 25 244 25 211 34.5 c 128,-1,42
 178 44 178 44 151.5 62.5 c 128,-1,43
 125 81 125 81 108.5 109 c 128,-1,44
 92 137 92 137 92 174 c 0,45,46
 92 208 92 208 105 235.5 c 128,-1,47
 118 263 118 263 140 287.5 c 128,-1,48
 162 312 162 312 191.5 334 c 128,-1,49
 221 356 221 356 253 378 c 0,50,51
 288 401 288 401 320.5 424.5 c 128,-1,52
 353 448 353 448 378.5 473 c 128,-1,53
 404 498 404 498 419.5 525.5 c 128,-1,54
 435 553 435 553 435 585 c 0,55,56
 435 614 435 614 423 638 c 128,-1,57
 411 662 411 662 390 680 c 128,-1,58
 369 698 369 698 340.5 708.5 c 128,-1,59
 312 719 312 719 278 719 c 0,60,61
 241 719 241 719 209.5 707 c 128,-1,62
 178 695 178 695 155 674.5 c 128,-1,63
 132 654 132 654 118.5 627 c 128,-1,64
 105 600 105 600 105 569 c 0,65,66
 105 550 105 550 111 530.5 c 128,-1,67
 117 511 117 511 131.5 489 c 128,-1,68
 146 467 146 467 168.5 440.5 c 128,-1,69
 191 414 191 414 223 380 c 2,70,-1
 585 0 l 1,71,-1
 642 0 l 1,0,-1
EndSplineSet
EndChar

StartChar: quotesingle
Encoding: 39 39 10
Width: 181
GlyphClass: 1
Flags: W
LayerCount: 2
Fore
SplineSet
96 547 m 1,0,-1
 141 712 l 1,1,-1
 89 712 l 1,2,-1
 65 547 l 1,3,-1
 96 547 l 1,0,-1
EndSplineSet
EndChar

StartChar: parenleft
Encoding: 40 40 11
Width: 250
GlyphClass: 1
Flags: W
LayerCount: 2
Fore
SplineSet
47 345 m 0,0,1
 47 299 47 299 56.5 252 c 128,-1,2
 66 205 66 205 83.5 158 c 128,-1,3
 101 111 101 111 126.5 63.5 c 128,-1,4
 152 16 152 16 184 -31 c 1,5,-1
 216 -12 l 1,6,7
 186 32 186 32 162 79 c 128,-1,8
 138 126 138 126 121.5 171.5 c 128,-1,9
 105 217 105 217 96 260.5 c 128,-1,10
 87 304 87 304 87 342 c 0,11,12
 87 389 87 389 99 440.5 c 128,-1,13
 111 492 111 492 129.5 542 c 128,-1,14
 148 592 148 592 171 636.5 c 128,-1,15
 194 681 194 681 217 714 c 1,16,-1
 183 732 l 1,17,18
 155 685 155 685 130.5 638 c 128,-1,19
 106 591 106 591 87.5 543 c 128,-1,20
 69 495 69 495 58 445.5 c 128,-1,21
 47 396 47 396 47 345 c 0,0,1
EndSplineSet
EndChar

StartChar: parenright
Encoding: 41 41 12
Width: 250
GlyphClass: 1
Flags: W
LayerCount: 2
Fore
SplineSet
203 345 m 0,0,1
 203 396 203 396 192.5 445.5 c 128,-1,2
 182 495 182 495 163.5 543 c 128,-1,3
 145 591 145 591 120 638 c 128,-1,4
 95 685 95 685 67 732 c 1,5,-1
 34 714 l 1,6,7
 56 681 56 681 79 636.5 c 128,-1,8
 102 592 102 592 120.5 542 c 128,-1,9
 139 492 139 492 151 440.5 c 128,-1,10
 163 389 163 389 163 342 c 0,11,12
 163 304 163 304 154.5 260.5 c 128,-1,13
 146 217 146 217 129.5 171.5 c 128,-1,14
 113 126 113 126 89 79 c 128,-1,15
 65 32 65 32 34 -12 c 1,16,-1
 67 -31 l 1,17,18
 99 16 99 16 124 63.5 c 128,-1,19
 149 111 149 111 167 158 c 128,-1,20
 185 205 185 205 194 252 c 128,-1,21
 203 299 203 299 203 345 c 0,0,1
EndSplineSet
EndChar

StartChar: asterisk
Encoding: 42 42 13
Width: 311
GlyphClass: 1
Flags: W
LayerCount: 2
Fore
SplineSet
114 539 m 1,0,-1
 156 599 l 1,1,-1
 197 539 l 1,2,-1
 221 555 l 1,3,-1
 178 615 l 1,4,-1
 246 637 l 1,5,-1
 238 664 l 1,6,-1
 170 640 l 1,7,-1
 171 711 l 1,8,-1
 140 711 l 1,9,-1
 141 640 l 1,10,-1
 73 664 l 1,11,-1
 65 637 l 1,12,-1
 133 615 l 1,13,-1
 91 555 l 1,14,-1
 114 539 l 1,0,-1
EndSplineSet
EndChar

StartChar: plus
Encoding: 43 43 14
Width: 413
GlyphClass: 1
Flags: W
LayerCount: 2
Fore
SplineSet
227 374 m 1,0,-1
 227 516 l 1,1,-1
 187 516 l 1,2,-1
 187 374 l 1,3,-1
 54 374 l 1,4,-1
 54 336 l 1,5,-1
 187 336 l 1,6,-1
 187 194 l 1,7,-1
 227 194 l 1,8,-1
 227 336 l 1,9,-1
 359 336 l 1,10,-1
 359 374 l 1,11,-1
 227 374 l 1,0,-1
EndSplineSet
EndChar

StartChar: comma
Encoding: 44 44 15
Width: 244
GlyphClass: 1
Flags: W
LayerCount: 2
Fore
SplineSet
92 -160 m 1,0,-1
 149 100 l 1,1,-1
 97 100 l 1,2,-1
 62 -160 l 1,3,-1
 92 -160 l 1,0,-1
EndSplineSet
EndChar

StartChar: hyphen
Encoding: 45 45 16
Width: 422
GlyphClass: 1
Flags: W
LayerCount: 2
Fore
SplineSet
354 252 m 1,0,-1
 354 292 l 1,1,-1
 67 292 l 1,2,-1
 67 252 l 1,3,-1
 354 252 l 1,0,-1
EndSplineSet
EndChar

StartChar: period
Encoding: 46 46 17
Width: 173
GlyphClass: 1
Flags: W
LayerCount: 2
Fore
SplineSet
45 35 m 0,0,1
 45 18 45 18 57 5.5 c 128,-1,2
 69 -7 69 -7 86 -7 c 256,3,4
 103 -7 103 -7 115 5.5 c 128,-1,5
 127 18 127 18 127 35 c 256,6,7
 127 52 127 52 115 63.5 c 128,-1,8
 103 75 103 75 86 75 c 256,9,10
 69 75 69 75 57 63 c 128,-1,11
 45 51 45 51 45 35 c 0,0,1
EndSplineSet
EndChar

StartChar: slash
Encoding: 47 47 18
Width: 568
GlyphClass: 1
Flags: W
LayerCount: 2
Fore
SplineSet
490 710 m 1,0,-1
 27 0 l 1,1,-1
 76 0 l 1,2,-1
 540 710 l 1,3,-1
 490 710 l 1,0,-1
EndSplineSet
Substitution2: "'frac' Diagonal Fractions lookup 21 subtable" fraction
Substitution2: "'aalt' Access All Alternates lookup 0 subtable" fraction
EndChar

StartChar: zero
Encoding: 48 48 19
Width: 675
GlyphClass: 1
Flags: W
LayerCount: 2
Fore
SplineSet
338 -10 m 0,0,1
 404 -9 404 -9 457.5 23 c 128,-1,2
 511 55 511 55 548 106 c 128,-1,3
 585 157 585 157 605 221 c 128,-1,4
 625 285 625 285 625 350 c 0,5,6
 625 408 625 408 606.5 471.5 c 128,-1,7
 588 535 588 535 552 588 c 128,-1,8
 516 641 516 641 462.5 675.5 c 128,-1,9
 409 710 409 710 338 710 c 0,10,11
 271 710 271 710 218 678 c 128,-1,12
 165 646 165 646 127.5 594.5 c 128,-1,13
 90 543 90 543 70 478.5 c 128,-1,14
 50 414 50 414 50 350 c 0,15,16
 50 290 50 290 68.5 227 c 128,-1,17
 87 164 87 164 123 112 c 128,-1,18
 159 60 159 60 213 26 c 128,-1,19
 267 -8 267 -8 338 -10 c 0,0,1
94 350 m 0,20,21
 94 401 94 401 109 457 c 128,-1,22
 124 513 124 513 154.5 560.5 c 128,-1,23
 185 608 185 608 231 639 c 128,-1,24
 277 670 277 670 338 670 c 0,25,26
 395 670 395 670 440 640.5 c 128,-1,27
 485 611 485 611 516.5 565.5 c 128,-1,28
 548 520 548 520 564.5 463 c 128,-1,29
 581 406 581 406 581 350 c 0,30,31
 581 299 581 299 566 243 c 128,-1,32
 551 187 551 187 520.5 139.5 c 128,-1,33
 490 92 490 92 444.5 61 c 128,-1,34
 399 30 399 30 338 30 c 0,35,36
 279 30 279 30 234.5 59.5 c 128,-1,37
 190 89 190 89 159.5 134.5 c 128,-1,38
 129 180 129 180 112.5 237 c 128,-1,39
 96 294 96 294 94 350 c 0,20,21
EndSplineSet
Substitution2: "'tnum' Tabular Numbers lookup 41 subtable" zero.tnum
Substitution2: "'frac' Diagonal Fractions lookup 22 subtable" zero.numr
Substitution2: "'dnom' Denominators lookup 20 subtable" zero.dnom
Substitution2: "'numr' Numerators lookup 19 subtable" zero.numr
Substitution2: "'sups' Superscript lookup 18 subtable" uni2070
Substitution2: "'sinf' Scientific Inferiors lookup 17 subtable" zero.subs
Substitution2: "'subs' Subscript lookup 16 subtable" uni2080
AlternateSubs2: "'aalt' Access All Alternates lookup 1 subtable" uni2080 zero.subs uni2070 zero.numr zero.dnom
EndChar

StartChar: one
Encoding: 49 49 20
Width: 353
GlyphClass: 1
Flags: W
LayerCount: 2
Fore
SplineSet
240 719 m 1,0,-1
 197 719 l 2,1,2
 196 718 196 718 181 702.5 c 128,-1,3
 166 687 166 687 143.5 668.5 c 128,-1,4
 121 650 121 650 94 635.5 c 128,-1,5
 67 621 67 621 40 621 c 1,6,-1
 40 580 l 1,7,8
 60 580 60 580 84.5 589 c 128,-1,9
 109 598 109 598 131 611.5 c 128,-1,10
 153 625 153 625 171 639.5 c 128,-1,11
 189 654 189 654 197 666 c 1,12,-1
 197 0 l 1,13,-1
 240 0 l 1,14,-1
 240 719 l 1,0,-1
EndSplineSet
Substitution2: "'tnum' Tabular Numbers lookup 41 subtable" one.tnum
Substitution2: "'frac' Diagonal Fractions lookup 22 subtable" one.numr
Substitution2: "'dnom' Denominators lookup 20 subtable" one.dnom
Substitution2: "'numr' Numerators lookup 19 subtable" one.numr
Substitution2: "'sups' Superscript lookup 18 subtable" onesuperior
Substitution2: "'sinf' Scientific Inferiors lookup 17 subtable" one.subs
Substitution2: "'subs' Subscript lookup 16 subtable" uni2081
AlternateSubs2: "'aalt' Access All Alternates lookup 1 subtable" uni2081 one.subs onesuperior one.numr one.dnom
EndChar

StartChar: two
Encoding: 50 50 21
Width: 571
GlyphClass: 1
Flags: W
LayerCount: 2
Fore
SplineSet
515 0 m 1,0,-1
 515 40 l 1,1,-1
 95 40 l 1,2,3
 95 69 95 69 100.5 102 c 128,-1,4
 106 135 106 135 124.5 168.5 c 128,-1,5
 143 202 143 202 181 234.5 c 128,-1,6
 219 267 219 267 285 295 c 0,7,8
 319 310 319 310 359 326 c 128,-1,9
 399 342 399 342 433.5 367 c 128,-1,10
 468 392 468 392 491 428 c 128,-1,11
 514 464 514 464 514 518 c 0,12,13
 514 557 514 557 501 593 c 128,-1,14
 488 629 488 629 461 657 c 128,-1,15
 434 685 434 685 394 702 c 128,-1,16
 354 719 354 719 299 719 c 0,17,18
 240 719 240 719 196.5 701 c 128,-1,19
 153 683 153 683 123 661 c 128,-1,20
 93 639 93 639 76.5 619 c 128,-1,21
 60 599 60 599 58 595 c 1,22,-1
 88 569 l 1,23,24
 99 584 99 584 116.5 603 c 128,-1,25
 134 622 134 622 159.5 638.5 c 128,-1,26
 185 655 185 655 218.5 666.5 c 128,-1,27
 252 678 252 678 295 678 c 0,28,29
 340 678 340 678 372.5 665 c 128,-1,30
 405 652 405 652 426 629.5 c 128,-1,31
 447 607 447 607 457.5 578 c 128,-1,32
 468 549 468 549 468 518 c 0,33,34
 468 470 468 470 446 439 c 128,-1,35
 424 408 424 408 390 386 c 128,-1,36
 356 364 356 364 315 348 c 128,-1,37
 274 332 274 332 236 314 c 0,38,39
 194 295 194 295 158.5 268 c 128,-1,40
 123 241 123 241 98 203.5 c 128,-1,41
 73 166 73 166 60 116 c 128,-1,42
 47 66 47 66 50 0 c 1,43,-1
 515 0 l 1,0,-1
EndSplineSet
Substitution2: "'tnum' Tabular Numbers lookup 41 subtable" two.tnum
Substitution2: "'frac' Diagonal Fractions lookup 22 subtable" two.numr
Substitution2: "'dnom' Denominators lookup 20 subtable" two.dnom
Substitution2: "'numr' Numerators lookup 19 subtable" two.numr
Substitution2: "'sups' Superscript lookup 18 subtable" twosuperior
Substitution2: "'sinf' Scientific Inferiors lookup 17 subtable" two.subs
Substitution2: "'subs' Subscript lookup 16 subtable" uni2082
AlternateSubs2: "'aalt' Access All Alternates lookup 1 subtable" uni2082 two.subs twosuperior two.numr two.dnom
EndChar

StartChar: three
Encoding: 51 51 22
Width: 584
GlyphClass: 1
Flags: W
LayerCount: 2
Fore
SplineSet
280 -9 m 0,0,1
 330 -9 330 -9 375.5 5 c 128,-1,2
 421 19 421 19 455.5 44 c 128,-1,3
 490 69 490 69 510.5 104 c 128,-1,4
 531 139 531 139 531 181 c 0,5,6
 531 214 531 214 519.5 244 c 128,-1,7
 508 274 508 274 487 298 c 128,-1,8
 466 322 466 322 436 338.5 c 128,-1,9
 406 355 406 355 370 362 c 1,10,11
 405 370 405 370 431.5 385 c 128,-1,12
 458 400 458 400 476 420 c 128,-1,13
 494 440 494 440 503 465.5 c 128,-1,14
 512 491 512 491 512 522 c 0,15,16
 512 564 512 564 494.5 600 c 128,-1,17
 477 636 477 636 446 662.5 c 128,-1,18
 415 689 415 689 372.5 704 c 128,-1,19
 330 719 330 719 280 719 c 0,20,21
 243 719 243 719 209 710.5 c 128,-1,22
 175 702 175 702 146.5 686 c 128,-1,23
 118 670 118 670 95.5 647.5 c 128,-1,24
 73 625 73 625 60 597 c 1,25,-1
 92 571 l 1,26,27
 112 619 112 619 162.5 649.5 c 128,-1,28
 213 680 213 680 280 680 c 0,29,30
 320 680 320 680 354 668 c 128,-1,31
 388 656 388 656 413.5 635 c 128,-1,32
 439 614 439 614 453.5 585 c 128,-1,33
 468 556 468 556 468 520 c 0,34,35
 468 451 468 451 411.5 415.5 c 128,-1,36
 355 380 355 380 250 380 c 2,37,-1
 216 380 l 1,38,-1
 216 342 l 1,39,-1
 250 342 l 2,40,41
 304 342 304 342 347.5 331 c 128,-1,42
 391 320 391 320 422.5 299.5 c 128,-1,43
 454 279 454 279 470.5 250 c 128,-1,44
 487 221 487 221 487 185 c 0,45,46
 487 152 487 152 470.5 123.5 c 128,-1,47
 454 95 454 95 426 74.5 c 128,-1,48
 398 54 398 54 360.5 42.5 c 128,-1,49
 323 31 323 31 280 31 c 0,50,51
 247 31 247 31 215.5 38.5 c 128,-1,52
 184 46 184 46 157.5 60 c 128,-1,53
 131 74 131 74 111.5 93.5 c 128,-1,54
 92 113 92 113 83 137 c 1,55,-1
 50 113 l 1,56,57
 63 85 63 85 86 62 c 128,-1,58
 109 39 109 39 140 23.5 c 128,-1,59
 171 8 171 8 207 -0.5 c 128,-1,60
 243 -9 243 -9 280 -9 c 0,0,1
EndSplineSet
Substitution2: "'tnum' Tabular Numbers lookup 41 subtable" three.tnum
Substitution2: "'frac' Diagonal Fractions lookup 22 subtable" three.numr
Substitution2: "'dnom' Denominators lookup 20 subtable" three.dnom
Substitution2: "'numr' Numerators lookup 19 subtable" three.numr
Substitution2: "'sups' Superscript lookup 18 subtable" threesuperior
Substitution2: "'sinf' Scientific Inferiors lookup 17 subtable" three.subs
Substitution2: "'subs' Subscript lookup 16 subtable" uni2083
AlternateSubs2: "'aalt' Access All Alternates lookup 1 subtable" uni2083 three.subs threesuperior three.numr three.dnom
EndChar

StartChar: four
Encoding: 52 52 23
Width: 559
GlyphClass: 1
Flags: W
LayerCount: 2
Fore
SplineSet
436 0 m 1,0,-1
 436 201 l 1,1,-1
 524 201 l 1,2,-1
 524 241 l 1,3,-1
 436 241 l 1,4,-1
 436 710 l 1,5,-1
 406 710 l 1,6,-1
 25 239 l 1,7,-1
 25 201 l 1,8,-1
 393 201 l 1,9,-1
 393 0 l 1,10,-1
 436 0 l 1,0,-1
396 640 m 1,11,-1
 396 241 l 1,12,-1
 74 241 l 1,13,-1
 396 640 l 1,11,-1
EndSplineSet
Substitution2: "'tnum' Tabular Numbers lookup 41 subtable" four.tnum
Substitution2: "'frac' Diagonal Fractions lookup 22 subtable" four.numr
Substitution2: "'dnom' Denominators lookup 20 subtable" four.dnom
Substitution2: "'numr' Numerators lookup 19 subtable" four.numr
Substitution2: "'sups' Superscript lookup 18 subtable" uni2074
Substitution2: "'sinf' Scientific Inferiors lookup 17 subtable" four.subs
Substitution2: "'subs' Subscript lookup 16 subtable" uni2084
AlternateSubs2: "'aalt' Access All Alternates lookup 1 subtable" uni2084 four.subs uni2074 four.numr four.dnom
EndChar

StartChar: five
Encoding: 53 53 24
Width: 553
GlyphClass: 1
Flags: W
LayerCount: 2
Fore
SplineSet
269 -10 m 0,0,1
 318 -10 318 -10 361.5 6.5 c 128,-1,2
 405 23 405 23 438 54 c 128,-1,3
 471 85 471 85 490 128 c 128,-1,4
 509 171 509 171 509 223 c 0,5,6
 509 273 509 273 491 314 c 128,-1,7
 473 355 473 355 442 385 c 128,-1,8
 411 415 411 415 368.5 431.5 c 128,-1,9
 326 448 326 448 279 448 c 0,10,11
 229 448 229 448 186 430 c 128,-1,12
 143 412 143 412 111 378 c 1,13,-1
 169 670 l 1,14,-1
 476 670 l 1,15,-1
 476 710 l 1,16,-1
 136 710 l 1,17,-1
 57 319 l 1,18,-1
 100 319 l 1,19,20
 130 363 130 363 176.5 386 c 128,-1,21
 223 409 223 409 275 409 c 0,22,23
 315 409 315 409 349.5 395.5 c 128,-1,24
 384 382 384 382 410 357 c 128,-1,25
 436 332 436 332 451 297.5 c 128,-1,26
 466 263 466 263 466 222 c 0,27,28
 466 180 466 180 450.5 144.5 c 128,-1,29
 435 109 435 109 408.5 83.5 c 128,-1,30
 382 58 382 58 346.5 44 c 128,-1,31
 311 30 311 30 269 30 c 0,32,33
 207 30 207 30 155.5 62 c 128,-1,34
 104 94 104 94 76 148 c 1,35,-1
 46 125 l 1,36,37
 76 61 76 61 135 25.5 c 128,-1,38
 194 -10 194 -10 269 -10 c 0,0,1
EndSplineSet
Substitution2: "'tnum' Tabular Numbers lookup 41 subtable" five.tnum
Substitution2: "'frac' Diagonal Fractions lookup 22 subtable" five.numr
Substitution2: "'dnom' Denominators lookup 20 subtable" five.dnom
Substitution2: "'numr' Numerators lookup 19 subtable" five.numr
Substitution2: "'sups' Superscript lookup 18 subtable" uni2075
Substitution2: "'sinf' Scientific Inferiors lookup 17 subtable" five.subs
Substitution2: "'subs' Subscript lookup 16 subtable" uni2085
AlternateSubs2: "'aalt' Access All Alternates lookup 1 subtable" uni2085 five.subs uni2075 five.numr five.dnom
EndChar

StartChar: six
Encoding: 54 54 25
Width: 599
GlyphClass: 1
Flags: W
LayerCount: 2
Fore
SplineSet
555 233 m 256,0,1
 555 183 555 183 536 138.5 c 128,-1,2
 517 94 517 94 483 61 c 128,-1,3
 449 28 449 28 404 9 c 128,-1,4
 359 -10 359 -10 307 -10 c 0,5,6
 252 -10 252 -10 206 9.5 c 128,-1,7
 160 29 160 29 126 66.5 c 128,-1,8
 92 104 92 104 73 156.5 c 128,-1,9
 54 209 54 209 54 276 c 0,10,11
 54 389 54 389 73 471.5 c 128,-1,12
 92 554 92 554 126 608 c 128,-1,13
 160 662 160 662 207 688.5 c 128,-1,14
 254 715 254 715 311 715 c 0,15,16
 383 715 383 715 438.5 677.5 c 128,-1,17
 494 640 494 640 520 575 c 1,18,-1
 489 553 l 1,19,20
 469 608 469 608 420.5 642 c 128,-1,21
 372 676 372 676 311 676 c 0,22,23
 263 676 263 676 223.5 652.5 c 128,-1,24
 184 629 184 629 156 584 c 128,-1,25
 128 539 128 539 112.5 474 c 128,-1,26
 97 409 97 409 97 325 c 1,27,28
 108 359 108 359 129 386.5 c 128,-1,29
 150 414 150 414 179 433.5 c 128,-1,30
 208 453 208 453 241.5 464 c 128,-1,31
 275 475 275 475 312 475 c 0,32,33
 363 475 363 475 407 456 c 128,-1,34
 451 437 451 437 484 404.5 c 128,-1,35
 517 372 517 372 536 327.5 c 128,-1,36
 555 283 555 283 555 233 c 256,0,1
308 29 m 0,37,38
 351 29 351 29 388.5 45 c 128,-1,39
 426 61 426 61 454 88.5 c 128,-1,40
 482 116 482 116 498 153.5 c 128,-1,41
 514 191 514 191 514 232 c 0,42,43
 514 275 514 275 497.5 312 c 128,-1,44
 481 349 481 349 453 377 c 128,-1,45
 425 405 425 405 387.5 421.5 c 128,-1,46
 350 438 350 438 308 438 c 0,47,48
 265 438 265 438 227.5 421.5 c 128,-1,49
 190 405 190 405 162 377 c 128,-1,50
 134 349 134 349 117.5 312 c 128,-1,51
 101 275 101 275 101 233 c 0,52,53
 101 192 101 192 117.5 154.5 c 128,-1,54
 134 117 134 117 162.5 89 c 128,-1,55
 191 61 191 61 228.5 45 c 128,-1,56
 266 29 266 29 308 29 c 0,37,38
EndSplineSet
Substitution2: "'tnum' Tabular Numbers lookup 41 subtable" six.tnum
Substitution2: "'frac' Diagonal Fractions lookup 22 subtable" six.numr
Substitution2: "'dnom' Denominators lookup 20 subtable" six.dnom
Substitution2: "'numr' Numerators lookup 19 subtable" six.numr
Substitution2: "'sups' Superscript lookup 18 subtable" uni2076
Substitution2: "'sinf' Scientific Inferiors lookup 17 subtable" six.subs
Substitution2: "'subs' Subscript lookup 16 subtable" uni2086
AlternateSubs2: "'aalt' Access All Alternates lookup 1 subtable" uni2086 six.subs uni2076 six.numr six.dnom
EndChar

StartChar: seven
Encoding: 55 55 26
Width: 505
GlyphClass: 1
Flags: W
LayerCount: 2
Fore
SplineSet
94 0 m 1,0,-1
 143 0 l 1,1,-1
 505 710 l 1,2,-1
 30 710 l 1,3,-1
 30 670 l 1,4,-1
 436 670 l 1,5,-1
 94 0 l 1,0,-1
EndSplineSet
Substitution2: "'tnum' Tabular Numbers lookup 41 subtable" seven.tnum
Substitution2: "'frac' Diagonal Fractions lookup 22 subtable" seven.numr
Substitution2: "'dnom' Denominators lookup 20 subtable" seven.dnom
Substitution2: "'numr' Numerators lookup 19 subtable" seven.numr
Substitution2: "'sups' Superscript lookup 18 subtable" uni2077
Substitution2: "'sinf' Scientific Inferiors lookup 17 subtable" seven.subs
Substitution2: "'subs' Subscript lookup 16 subtable" uni2087
AlternateSubs2: "'aalt' Access All Alternates lookup 1 subtable" uni2087 seven.subs uni2077 seven.numr seven.dnom
EndChar

StartChar: eight
Encoding: 56 56 27
Width: 587
GlyphClass: 1
Flags: W
LayerCount: 2
Fore
SplineSet
535 192 m 0,0,1
 535 227 535 227 523 257 c 128,-1,2
 511 287 511 287 490 311 c 128,-1,3
 469 335 469 335 441 353 c 128,-1,4
 413 371 413 371 380 381 c 1,5,6
 407 390 407 390 430 405 c 128,-1,7
 453 420 453 420 471 439.5 c 128,-1,8
 489 459 489 459 499.5 483 c 128,-1,9
 510 507 510 507 510 536 c 0,10,11
 510 578 510 578 491 610.5 c 128,-1,12
 472 643 472 643 441.5 665 c 128,-1,13
 411 687 411 687 372 698.5 c 128,-1,14
 333 710 333 710 294 710 c 0,15,16
 254 710 254 710 215.5 698.5 c 128,-1,17
 177 687 177 687 146 665 c 128,-1,18
 115 643 115 643 96 610.5 c 128,-1,19
 77 578 77 578 77 535 c 0,20,21
 77 507 77 507 87 483 c 128,-1,22
 97 459 97 459 115 439.5 c 128,-1,23
 133 420 133 420 156 405 c 128,-1,24
 179 390 179 390 205 381 c 1,25,26
 177 372 177 372 149.5 355.5 c 128,-1,27
 122 339 122 339 100 315 c 128,-1,28
 78 291 78 291 65 261 c 128,-1,29
 52 231 52 231 52 195 c 0,30,31
 52 154 52 154 69 117.5 c 128,-1,32
 86 81 86 81 117.5 53.5 c 128,-1,33
 149 26 149 26 193 9.5 c 128,-1,34
 237 -7 237 -7 290 -7 c 0,35,36
 339 -7 339 -7 383.5 7 c 128,-1,37
 428 21 428 21 462 47 c 128,-1,38
 496 73 496 73 515.5 109.5 c 128,-1,39
 535 146 535 146 535 192 c 0,0,1
492 196 m 0,40,41
 492 158 492 158 474.5 127.5 c 128,-1,42
 457 97 457 97 429 75.5 c 128,-1,43
 401 54 401 54 366 42 c 128,-1,44
 331 30 331 30 295 30 c 0,45,46
 260 30 260 30 224.5 41.5 c 128,-1,47
 189 53 189 53 160 74 c 128,-1,48
 131 95 131 95 113 125.5 c 128,-1,49
 95 156 95 156 95 195 c 0,50,51
 95 232 95 232 112 263 c 128,-1,52
 129 294 129 294 157.5 316 c 128,-1,53
 186 338 186 338 221 350 c 128,-1,54
 256 362 256 362 292 362 c 0,55,56
 327 362 327 362 362.5 351 c 128,-1,57
 398 340 398 340 427 318.5 c 128,-1,58
 456 297 456 297 474 266.5 c 128,-1,59
 492 236 492 236 492 196 c 0,40,41
120 533 m 256,60,61
 120 566 120 566 134.5 591 c 128,-1,62
 149 616 149 616 173 634 c 128,-1,63
 197 652 197 652 228 661 c 128,-1,64
 259 670 259 670 292 670 c 256,65,66
 325 670 325 670 356.5 661 c 128,-1,67
 388 652 388 652 412.5 634.5 c 128,-1,68
 437 617 437 617 452 592 c 128,-1,69
 467 567 467 567 467 535 c 0,70,71
 467 502 467 502 451 476.5 c 128,-1,72
 435 451 435 451 409.5 433.5 c 128,-1,73
 384 416 384 416 353.5 407 c 128,-1,74
 323 398 323 398 293 398 c 256,75,76
 263 398 263 398 232.5 407 c 128,-1,77
 202 416 202 416 177 433 c 128,-1,78
 152 450 152 450 136 475 c 128,-1,79
 120 500 120 500 120 533 c 256,60,61
EndSplineSet
Substitution2: "'tnum' Tabular Numbers lookup 41 subtable" eight.tnum
Substitution2: "'frac' Diagonal Fractions lookup 22 subtable" eight.numr
Substitution2: "'dnom' Denominators lookup 20 subtable" eight.dnom
Substitution2: "'numr' Numerators lookup 19 subtable" eight.numr
Substitution2: "'sups' Superscript lookup 18 subtable" uni2078
Substitution2: "'sinf' Scientific Inferiors lookup 17 subtable" eight.subs
Substitution2: "'subs' Subscript lookup 16 subtable" uni2088
AlternateSubs2: "'aalt' Access All Alternates lookup 1 subtable" uni2088 eight.subs uni2078 eight.numr eight.dnom
EndChar

StartChar: nine
Encoding: 57 57 28
Width: 599
GlyphClass: 1
Flags: W
LayerCount: 2
Fore
SplineSet
43 472 m 256,0,1
 43 522 43 522 62.5 566.5 c 128,-1,2
 82 611 82 611 115.5 644 c 128,-1,3
 149 677 149 677 194.5 696 c 128,-1,4
 240 715 240 715 292 715 c 0,5,6
 346 715 346 715 392.5 695.5 c 128,-1,7
 439 676 439 676 473 639 c 128,-1,8
 507 602 507 602 525.5 549 c 128,-1,9
 544 496 544 496 544 429 c 0,10,11
 544 316 544 316 525.5 233.5 c 128,-1,12
 507 151 507 151 473 97 c 128,-1,13
 439 43 439 43 392 16.5 c 128,-1,14
 345 -10 345 -10 288 -10 c 0,15,16
 216 -10 216 -10 160 27.5 c 128,-1,17
 104 65 104 65 79 130 c 1,18,-1
 110 153 l 1,19,20
 130 97 130 97 178 63 c 128,-1,21
 226 29 226 29 287 29 c 0,22,23
 336 29 336 29 375.5 52.5 c 128,-1,24
 415 76 415 76 443 121 c 128,-1,25
 471 166 471 166 486.5 231 c 128,-1,26
 502 296 502 296 502 380 c 1,27,28
 490 346 490 346 469 318.5 c 128,-1,29
 448 291 448 291 419.5 271.5 c 128,-1,30
 391 252 391 252 357 241 c 128,-1,31
 323 230 323 230 286 230 c 0,32,33
 236 230 236 230 191.5 249 c 128,-1,34
 147 268 147 268 114 301 c 128,-1,35
 81 334 81 334 62 378 c 128,-1,36
 43 422 43 422 43 472 c 256,0,1
290 677 m 0,37,38
 248 677 248 677 210.5 660.5 c 128,-1,39
 173 644 173 644 145 616.5 c 128,-1,40
 117 589 117 589 101 552 c 128,-1,41
 85 515 85 515 85 473 c 256,42,43
 85 431 85 431 101.5 393.5 c 128,-1,44
 118 356 118 356 146.5 328.5 c 128,-1,45
 175 301 175 301 212 284.5 c 128,-1,46
 249 268 249 268 291 268 c 0,47,48
 334 268 334 268 371.5 284.5 c 128,-1,49
 409 301 409 301 437 328.5 c 128,-1,50
 465 356 465 356 481.5 393.5 c 128,-1,51
 498 431 498 431 498 472 c 0,52,53
 498 514 498 514 481.5 551 c 128,-1,54
 465 588 465 588 436.5 616 c 128,-1,55
 408 644 408 644 370.5 660.5 c 128,-1,56
 333 677 333 677 290 677 c 0,37,38
EndSplineSet
Substitution2: "'tnum' Tabular Numbers lookup 41 subtable" nine.tnum
Substitution2: "'frac' Diagonal Fractions lookup 22 subtable" nine.numr
Substitution2: "'dnom' Denominators lookup 20 subtable" nine.dnom
Substitution2: "'numr' Numerators lookup 19 subtable" nine.numr
Substitution2: "'sups' Superscript lookup 18 subtable" uni2079
Substitution2: "'sinf' Scientific Inferiors lookup 17 subtable" nine.subs
Substitution2: "'subs' Subscript lookup 16 subtable" uni2089
AlternateSubs2: "'aalt' Access All Alternates lookup 1 subtable" uni2089 nine.subs uni2079 nine.numr nine.dnom
EndChar

StartChar: less
Encoding: 60 60 31
Width: 505
GlyphClass: 1
Flags: W
LayerCount: 2
Fore
SplineSet
34 245 m 1,0,-1
 452 -5 l 1,1,-1
 452 42 l 1,2,-1
 96 259 l 1,3,-1
 452 476 l 1,4,-1
 452 522 l 1,5,-1
 34 272 l 1,6,-1
 34 245 l 1,0,-1
EndSplineSet
EndChar

StartChar: equal
Encoding: 61 61 32
Width: 436
GlyphClass: 1
Flags: W
LayerCount: 2
Fore
SplineSet
367 214 m 1,0,-1
 367 247 l 1,1,-1
 70 247 l 1,2,-1
 70 214 l 1,3,-1
 367 214 l 1,0,-1
367 305 m 1,4,-1
 367 338 l 1,5,-1
 70 338 l 1,6,-1
 70 305 l 1,7,-1
 367 305 l 1,4,-1
EndSplineSet
EndChar

StartChar: greater
Encoding: 62 62 33
Width: 505
GlyphClass: 1
Flags: W
LayerCount: 2
Fore
SplineSet
471 272 m 1,0,-1
 53 522 l 1,1,-1
 53 476 l 1,2,-1
 409 259 l 1,3,-1
 53 42 l 1,4,-1
 53 -5 l 1,5,-1
 471 245 l 1,6,-1
 471 272 l 1,0,-1
EndSplineSet
EndChar

StartChar: question
Encoding: 63 63 34
Width: 472
GlyphClass: 1
Flags: W
LayerCount: 2
Fore
SplineSet
205 190 m 1,0,1
 205 230 205 230 211.5 256.5 c 128,-1,2
 218 283 218 283 229 300.5 c 128,-1,3
 240 318 240 318 255 328.5 c 128,-1,4
 270 339 270 339 287 348 c 0,5,6
 313 363 313 363 339.5 377 c 128,-1,7
 366 391 366 391 387 410.5 c 128,-1,8
 408 430 408 430 421 459 c 128,-1,9
 434 488 434 488 434 530 c 0,10,11
 434 577 434 577 418 612.5 c 128,-1,12
 402 648 402 648 375.5 671.5 c 128,-1,13
 349 695 349 695 314 707 c 128,-1,14
 279 719 279 719 243 719 c 0,15,16
 211 719 211 719 180 710.5 c 128,-1,17
 149 702 149 702 121 685.5 c 128,-1,18
 93 669 93 669 71 645 c 128,-1,19
 49 621 49 621 35 590 c 1,20,-1
 66 572 l 1,21,22
 78 596 78 596 96.5 616 c 128,-1,23
 115 636 115 636 138 651 c 128,-1,24
 161 666 161 666 188 673.5 c 128,-1,25
 215 681 215 681 243 681 c 0,26,27
 272 681 272 681 299 672.5 c 128,-1,28
 326 664 326 664 347.5 645.5 c 128,-1,29
 369 627 369 627 382 599.5 c 128,-1,30
 395 572 395 572 395 534 c 0,31,32
 395 494 395 494 380.5 467.5 c 128,-1,33
 366 441 366 441 345 423.5 c 128,-1,34
 324 406 324 406 299 393.5 c 128,-1,35
 274 381 274 381 252 369 c 0,36,37
 232 358 232 358 216 344 c 128,-1,38
 200 330 200 330 189 309 c 128,-1,39
 178 288 178 288 172.5 259.5 c 128,-1,40
 167 231 167 231 167 190 c 1,41,-1
 205 190 l 1,0,1
145 35 m 256,42,43
 145 18 145 18 157 5.5 c 128,-1,44
 169 -7 169 -7 186 -7 c 256,45,46
 203 -7 203 -7 215 5.5 c 128,-1,47
 227 18 227 18 227 35 c 256,48,49
 227 52 227 52 215 63.5 c 128,-1,50
 203 75 203 75 186 75 c 256,51,52
 169 75 169 75 157 63.5 c 128,-1,53
 145 52 145 52 145 35 c 256,42,43
EndSplineSet
EndChar

StartChar: at
Encoding: 64 64 35
Width: 833
GlyphClass: 1
Flags: W
LayerCount: 2
Fore
SplineSet
415 603 m 0,0,1
 344 603 344 603 277.5 576 c 128,-1,2
 211 549 211 549 160.5 500 c 128,-1,3
 110 451 110 451 79.5 382 c 128,-1,4
 49 313 49 313 49 230 c 0,5,6
 49 150 49 150 77.5 81.5 c 128,-1,7
 106 13 106 13 155.5 -38 c 128,-1,8
 205 -89 205 -89 271 -117.5 c 128,-1,9
 337 -146 337 -146 411 -146 c 0,10,11
 453 -146 453 -146 494.5 -136 c 128,-1,12
 536 -126 536 -126 575 -106 c 1,13,-1
 564 -81 l 1,14,15
 528 -100 528 -100 490 -109.5 c 128,-1,16
 452 -119 452 -119 411 -119 c 0,17,18
 341 -119 341 -119 280 -91.5 c 128,-1,19
 219 -64 219 -64 173.5 -17 c 128,-1,20
 128 30 128 30 102 93.5 c 128,-1,21
 76 157 76 157 76 230 c 0,22,23
 76 305 76 305 103.5 368.5 c 128,-1,24
 131 432 131 432 177.5 478 c 128,-1,25
 224 524 224 524 285.5 550 c 128,-1,26
 347 576 347 576 414 576 c 0,27,28
 484 576 484 576 545 548.5 c 128,-1,29
 606 521 606 521 651 473.5 c 128,-1,30
 696 426 696 426 721.5 361.5 c 128,-1,31
 747 297 747 297 747 223 c 0,32,33
 747 194 747 194 742 157 c 128,-1,34
 737 120 737 120 724 88 c 128,-1,35
 711 56 711 56 689.5 34 c 128,-1,36
 668 12 668 12 635 12 c 0,37,38
 618 12 618 12 607.5 18.5 c 128,-1,39
 597 25 597 25 591.5 37.5 c 128,-1,40
 586 50 586 50 584.5 67.5 c 128,-1,41
 583 85 583 85 583 107 c 2,42,-1
 583 249 l 2,43,44
 583 285 583 285 578 321.5 c 128,-1,45
 573 358 573 358 556.5 387 c 128,-1,46
 540 416 540 416 509.5 434 c 128,-1,47
 479 452 479 452 426 452 c 0,48,49
 381 452 381 452 341.5 437.5 c 128,-1,50
 302 423 302 423 266 400 c 1,51,-1
 281 373 l 1,52,53
 312 395 312 395 348 407.5 c 128,-1,54
 384 420 384 420 423 420 c 0,55,56
 461 420 461 420 486 407.5 c 128,-1,57
 511 395 511 395 525.5 372 c 128,-1,58
 540 349 540 349 545.5 316.5 c 128,-1,59
 551 284 551 284 551 246 c 1,60,61
 535 252 535 252 499.5 260.5 c 128,-1,62
 464 269 464 269 420 269 c 0,63,64
 387 269 387 269 354.5 262.5 c 128,-1,65
 322 256 322 256 295.5 241 c 128,-1,66
 269 226 269 226 253 201 c 128,-1,67
 237 176 237 176 237 139 c 0,68,69
 237 82 237 82 276.5 45.5 c 128,-1,70
 316 9 316 9 385 9 c 0,71,72
 437 9 437 9 481.5 30 c 128,-1,73
 526 51 526 51 553 80 c 1,74,75
 555 61 555 61 558 43.5 c 128,-1,76
 561 26 561 26 569.5 12.5 c 128,-1,77
 578 -1 578 -1 592.5 -8.5 c 128,-1,78
 607 -16 607 -16 632 -16 c 0,79,80
 681 -16 681 -16 709.5 13 c 128,-1,81
 738 42 738 42 752.5 81 c 128,-1,82
 767 120 767 120 771 160 c 128,-1,83
 775 200 775 200 775 222 c 0,84,85
 775 304 775 304 746.5 373.5 c 128,-1,86
 718 443 718 443 669 494 c 128,-1,87
 620 545 620 545 554.5 574 c 128,-1,88
 489 603 489 603 415 603 c 0,0,1
481 62 m 0,89,90
 462 53 462 53 436.5 46 c 128,-1,91
 411 39 411 39 386 39 c 0,92,93
 362 39 362 39 341 46 c 128,-1,94
 320 53 320 53 304 66 c 128,-1,95
 288 79 288 79 278.5 98 c 128,-1,96
 269 117 269 117 269 141 c 0,97,98
 269 169 269 169 281.5 188 c 128,-1,99
 294 207 294 207 315 218.5 c 128,-1,100
 336 230 336 230 362.5 235 c 128,-1,101
 389 240 389 240 416 240 c 0,102,103
 442 240 442 240 464.5 236.5 c 128,-1,104
 487 233 487 233 503.5 229 c 128,-1,105
 520 225 520 225 532 221 c 128,-1,106
 544 217 544 217 550 217 c 1,107,-1
 550 173 l 2,108,109
 550 159 550 159 548 143.5 c 128,-1,110
 546 128 546 128 539 113.5 c 128,-1,111
 532 99 532 99 518.5 86 c 128,-1,112
 505 73 505 73 481 62 c 0,89,90
EndSplineSet
EndChar

StartChar: A
Encoding: 65 65 36
Width: 675
GlyphClass: 1
Flags: W
LayerCount: 2
Fore
SplineSet
15 0 m 1,0,-1
 62 0 l 1,1,-1
 164 239 l 1,2,-1
 510 239 l 1,3,-1
 612 0 l 1,4,-1
 659 0 l 1,5,-1
 356 710 l 1,6,-1
 319 710 l 1,7,-1
 15 0 l 1,0,-1
175 275 m 1,8,-1
 338 656 l 1,9,-1
 498 275 l 1,10,-1
 175 275 l 1,8,-1
EndSplineSet
Substitution2: "Single Substitution lookup 45 subtable" ordfeminine
Substitution2: "'aalt' Access All Alternates lookup 0 subtable" ordfeminine
EndChar

StartChar: B
Encoding: 66 66 37
Width: 660
GlyphClass: 1
Flags: W
LayerCount: 2
Fore
SplineSet
613 184 m 0,0,1
 613 215 613 215 604 243.5 c 128,-1,2
 595 272 595 272 577.5 296 c 128,-1,3
 560 320 560 320 535.5 337.5 c 128,-1,4
 511 355 511 355 481 364 c 1,5,6
 529 385 529 385 556 430.5 c 128,-1,7
 583 476 583 476 583 529 c 0,8,9
 583 562 583 562 572 594.5 c 128,-1,10
 561 627 561 627 540 652.5 c 128,-1,11
 519 678 519 678 489 694 c 128,-1,12
 459 710 459 710 421 710 c 2,13,-1
 94 710 l 1,14,-1
 94 0 l 1,15,-1
 426 0 l 2,16,17
 464 0 464 0 498.5 14.5 c 128,-1,18
 533 29 533 29 558.5 54 c 128,-1,19
 584 79 584 79 598.5 112 c 128,-1,20
 613 145 613 145 613 184 c 0,0,1
570 189 m 256,21,22
 570 160 570 160 559 133 c 128,-1,23
 548 106 548 106 528.5 85.5 c 128,-1,24
 509 65 509 65 482.5 52 c 128,-1,25
 456 39 456 39 426 39 c 2,26,-1
 138 39 l 1,27,-1
 138 339 l 1,28,-1
 433 339 l 2,29,30
 462 339 462 339 487 327 c 128,-1,31
 512 315 512 315 530.5 294 c 128,-1,32
 549 273 549 273 559.5 245.5 c 128,-1,33
 570 218 570 218 570 189 c 256,21,22
411 671 m 2,34,35
 440 671 440 671 463.5 659.5 c 128,-1,36
 487 648 487 648 504 627.5 c 128,-1,37
 521 607 521 607 530.5 580 c 128,-1,38
 540 553 540 553 540 524 c 0,39,40
 540 496 540 496 530 469.5 c 128,-1,41
 520 443 520 443 502 422.5 c 128,-1,42
 484 402 484 402 459.5 389.5 c 128,-1,43
 435 377 435 377 405 377 c 2,44,-1
 138 377 l 1,45,-1
 138 671 l 1,46,-1
 411 671 l 2,34,35
EndSplineSet
EndChar

StartChar: C
Encoding: 67 67 38
Width: 692
GlyphClass: 1
Flags: W
LayerCount: 2
Fore
SplineSet
45 360 m 0,0,1
 45 293 45 293 69.5 227 c 128,-1,2
 94 161 94 161 138 109.5 c 128,-1,3
 182 58 182 58 243 26 c 128,-1,4
 304 -6 304 -6 376 -6 c 0,5,6
 417 -6 417 -6 459.5 4.5 c 128,-1,7
 502 15 502 15 540 36 c 128,-1,8
 578 57 578 57 609 88 c 128,-1,9
 640 119 640 119 657 159 c 1,10,-1
 620 176 l 1,11,12
 601 139 601 139 573.5 112 c 128,-1,13
 546 85 546 85 514 68 c 128,-1,14
 482 51 482 51 447.5 42.5 c 128,-1,15
 413 34 413 34 380 34 c 0,16,17
 318 34 318 34 265 60.5 c 128,-1,18
 212 87 212 87 173 131.5 c 128,-1,19
 134 176 134 176 111.5 234.5 c 128,-1,20
 89 293 89 293 89 357 c 0,21,22
 89 415 89 415 108 471.5 c 128,-1,23
 127 528 127 528 163.5 573 c 128,-1,24
 200 618 200 618 254 646 c 128,-1,25
 308 674 308 674 377 674 c 0,26,27
 409 674 409 674 441.5 667 c 128,-1,28
 474 660 474 660 504 644 c 128,-1,29
 534 628 534 628 560 602.5 c 128,-1,30
 586 577 586 577 605 540 c 1,31,-1
 642 559 l 1,32,33
 609 627 609 627 542.5 670.5 c 128,-1,34
 476 714 476 714 381 714 c 0,35,36
 301 714 301 714 238.5 682.5 c 128,-1,37
 176 651 176 651 133 600.5 c 128,-1,38
 90 550 90 550 67.5 487 c 128,-1,39
 45 424 45 424 45 360 c 0,0,1
EndSplineSet
EndChar

StartChar: D
Encoding: 68 68 39
Width: 713
GlyphClass: 1
Flags: W
LayerCount: 2
Fore
SplineSet
328 0 m 2,0,1
 406 0 406 0 468 25.5 c 128,-1,2
 530 51 530 51 573.5 97.5 c 128,-1,3
 617 144 617 144 641 209.5 c 128,-1,4
 665 275 665 275 665 356 c 0,5,6
 665 430 665 430 644 494.5 c 128,-1,7
 623 559 623 559 581 607 c 128,-1,8
 539 655 539 655 476 682.5 c 128,-1,9
 413 710 413 710 328 710 c 2,10,-1
 94 710 l 1,11,-1
 94 0 l 1,12,-1
 328 0 l 2,0,1
621 356 m 256,13,14
 621 288 621 288 602 230.5 c 128,-1,15
 583 173 583 173 546.5 130.5 c 128,-1,16
 510 88 510 88 455.5 64 c 128,-1,17
 401 40 401 40 328 40 c 2,18,-1
 138 40 l 1,19,-1
 138 670 l 1,20,-1
 328 670 l 2,21,22
 398 670 398 670 453 646.5 c 128,-1,23
 508 623 508 623 545.5 581.5 c 128,-1,24
 583 540 583 540 602 482 c 128,-1,25
 621 424 621 424 621 356 c 256,13,14
EndSplineSet
EndChar

StartChar: E
Encoding: 69 69 40
Width: 613
GlyphClass: 1
Flags: W
LayerCount: 2
Fore
SplineSet
138 40 m 1,0,-1
 138 344 l 1,1,-1
 504 344 l 1,2,-1
 504 382 l 1,3,-1
 138 382 l 1,4,-1
 138 670 l 1,5,-1
 557 670 l 1,6,-1
 557 710 l 1,7,-1
 94 710 l 1,8,-1
 94 0 l 1,9,-1
 566 0 l 1,10,-1
 566 40 l 1,11,-1
 138 40 l 1,0,-1
EndSplineSet
EndChar

StartChar: F
Encoding: 70 70 41
Width: 596
GlyphClass: 1
Flags: W
LayerCount: 2
Fore
SplineSet
138 0 m 1,0,-1
 138 342 l 1,1,-1
 493 342 l 1,2,-1
 493 380 l 1,3,-1
 138 380 l 1,4,-1
 138 670 l 1,5,-1
 555 670 l 1,6,-1
 555 710 l 1,7,-1
 94 710 l 1,8,-1
 94 0 l 1,9,-1
 138 0 l 1,0,-1
EndSplineSet
EndChar

StartChar: G
Encoding: 71 71 42
Width: 734
GlyphClass: 1
Flags: W
LayerCount: 2
Fore
SplineSet
378 -5 m 0,0,1
 419 -5 419 -5 459.5 3.5 c 128,-1,2
 500 12 500 12 537 28 c 128,-1,3
 574 44 574 44 607.5 66.5 c 128,-1,4
 641 89 641 89 668 117 c 1,5,-1
 668 338 l 1,6,-1
 392 338 l 1,7,-1
 392 298 l 1,8,-1
 623 298 l 1,9,-1
 623 132 l 1,10,11
 601 111 601 111 574 93 c 128,-1,12
 547 75 547 75 516.5 62 c 128,-1,13
 486 49 486 49 451 42 c 128,-1,14
 416 35 416 35 377 35 c 0,15,16
 314 35 314 35 260.5 62 c 128,-1,17
 207 89 207 89 169.5 133.5 c 128,-1,18
 132 178 132 178 110.5 235.5 c 128,-1,19
 89 293 89 293 89 353 c 256,20,21
 89 413 89 413 109.5 471 c 128,-1,22
 130 529 130 529 168 574 c 128,-1,23
 206 619 206 619 259 647 c 128,-1,24
 312 675 312 675 377 675 c 0,25,26
 417 675 417 675 452.5 663.5 c 128,-1,27
 488 652 488 652 518.5 632.5 c 128,-1,28
 549 613 549 613 573.5 587 c 128,-1,29
 598 561 598 561 616 531 c 1,30,-1
 649 560 l 1,31,32
 607 629 607 629 537.5 672 c 128,-1,33
 468 715 468 715 379 715 c 0,34,35
 307 715 307 715 246 685.5 c 128,-1,36
 185 656 185 656 140.5 606 c 128,-1,37
 96 556 96 556 70.5 491.5 c 128,-1,38
 45 427 45 427 45 357 c 256,39,40
 45 287 45 287 70 222 c 128,-1,41
 95 157 95 157 139.5 106.5 c 128,-1,42
 184 56 184 56 244.5 25.5 c 128,-1,43
 305 -5 305 -5 378 -5 c 0,0,1
EndSplineSet
Substitution2: "'ss11' Style Set 11 lookup 39 subtable" G.ss11
Substitution2: "'aalt' Access All Alternates lookup 0 subtable" G.ss11
EndChar

StartChar: H
Encoding: 72 72 43
Width: 734
GlyphClass: 1
Flags: W
LayerCount: 2
Fore
SplineSet
597 710 m 1,0,-1
 597 383 l 1,1,-1
 138 383 l 1,2,-1
 138 710 l 1,3,-1
 94 710 l 1,4,-1
 94 0 l 1,5,-1
 138 0 l 1,6,-1
 138 343 l 1,7,-1
 597 343 l 1,8,-1
 597 0 l 1,9,-1
 640 0 l 1,10,-1
 640 710 l 1,11,-1
 597 710 l 1,0,-1
EndSplineSet
EndChar

StartChar: I
Encoding: 73 73 44
Width: 232
GlyphClass: 1
Flags: W
LayerCount: 2
Fore
SplineSet
138 0 m 1,0,-1
 138 710 l 1,1,-1
 94 710 l 1,2,-1
 94 0 l 1,3,-1
 138 0 l 1,0,-1
EndSplineSet
EndChar

StartChar: J
Encoding: 74 74 45
Width: 523
GlyphClass: 2
Flags: W
LayerCount: 2
Fore
SplineSet
206 -7 m 0,0,1
 178 -7 178 -7 149.5 1 c 128,-1,2
 121 9 121 9 95.5 24.5 c 128,-1,3
 70 40 70 40 49.5 61 c 128,-1,4
 29 82 29 82 19 108 c 1,5,-1
 58 127 l 1,6,7
 66 106 66 106 82 89 c 128,-1,8
 98 72 98 72 118.5 59.5 c 128,-1,9
 139 47 139 47 161.5 40 c 128,-1,10
 184 33 184 33 206 33 c 0,11,12
 250 33 250 33 283 48 c 128,-1,13
 316 63 316 63 338 89 c 128,-1,14
 360 115 360 115 371 150.5 c 128,-1,15
 382 186 382 186 382 227 c 2,16,-1
 382 710 l 1,17,-1
 428 710 l 1,18,-1
 428 210 l 2,19,20
 428 160 428 160 411.5 119.5 c 128,-1,21
 395 79 395 79 366 51 c 128,-1,22
 337 23 337 23 296 8 c 128,-1,23
 255 -7 255 -7 206 -7 c 0,0,1
EndSplineSet
EndChar

StartChar: K
Encoding: 75 75 46
Width: 631
GlyphClass: 1
Flags: W
LayerCount: 2
Fore
SplineSet
138 0 m 1,0,-1
 138 220 l 1,1,-1
 287 372 l 1,2,-1
 576 0 l 1,3,-1
 627 0 l 1,4,-1
 316 399 l 1,5,-1
 613 710 l 1,6,-1
 561 710 l 1,7,-1
 138 272 l 1,8,-1
 138 710 l 1,9,-1
 94 710 l 1,10,-1
 94 0 l 1,11,-1
 138 0 l 1,0,-1
EndSplineSet
EndChar

StartChar: L
Encoding: 76 76 47
Width: 581
GlyphClass: 1
Flags: W
LayerCount: 2
Fore
SplineSet
567 0 m 1,0,-1
 567 40 l 1,1,-1
 138 40 l 1,2,-1
 138 710 l 1,3,-1
 94 710 l 1,4,-1
 94 0 l 1,5,-1
 567 0 l 1,0,-1
EndSplineSet
EndChar

StartChar: M
Encoding: 77 77 48
Width: 881
GlyphClass: 1
Flags: W
LayerCount: 2
Fore
SplineSet
786 0 m 1,0,-1
 786 710 l 1,1,-1
 744 710 l 1,2,-1
 440 192 l 1,3,-1
 137 710 l 1,4,-1
 94 710 l 1,5,-1
 94 0 l 1,6,-1
 138 0 l 1,7,-1
 138 625 l 1,8,-1
 426 135 l 1,9,-1
 455 135 l 1,10,-1
 743 625 l 1,11,-1
 743 0 l 1,12,-1
 786 0 l 1,0,-1
EndSplineSet
EndChar

StartChar: N
Encoding: 78 78 49
Width: 774
GlyphClass: 1
Flags: W
LayerCount: 2
Fore
SplineSet
637 0 m 1,0,-1
 680 0 l 1,1,-1
 680 710 l 1,2,-1
 636 710 l 1,3,-1
 636 71 l 1,4,-1
 130 710 l 1,5,-1
 94 710 l 1,6,-1
 94 0 l 1,7,-1
 138 0 l 1,8,-1
 138 629 l 1,9,-1
 637 0 l 1,0,-1
EndSplineSet
EndChar

StartChar: O
Encoding: 79 79 50
Width: 754
GlyphClass: 1
Flags: W
LayerCount: 2
Fore
SplineSet
377 -5 m 0,0,1
 448 -5 448 -5 508.5 24.5 c 128,-1,2
 569 54 569 54 613.5 103.5 c 128,-1,3
 658 153 658 153 683.5 218 c 128,-1,4
 709 283 709 283 709 355 c 0,5,6
 709 421 709 421 685 485.5 c 128,-1,7
 661 550 661 550 617 601 c 128,-1,8
 573 652 573 652 512.5 683.5 c 128,-1,9
 452 715 452 715 378 715 c 0,10,11
 307 715 307 715 246 685.5 c 128,-1,12
 185 656 185 656 140.5 606 c 128,-1,13
 96 556 96 556 70.5 491 c 128,-1,14
 45 426 45 426 45 355 c 0,15,16
 45 287 45 287 69 222 c 128,-1,17
 93 157 93 157 137 107 c 128,-1,18
 181 57 181 57 242 26 c 128,-1,19
 303 -5 303 -5 377 -5 c 0,0,1
89 355 m 0,20,21
 89 414 89 414 109.5 471.5 c 128,-1,22
 130 529 130 529 168 574 c 128,-1,23
 206 619 206 619 259 646.5 c 128,-1,24
 312 674 312 674 378 674 c 0,25,26
 439 674 439 674 491.5 648 c 128,-1,27
 544 622 544 622 583 577.5 c 128,-1,28
 622 533 622 533 643.5 475 c 128,-1,29
 665 417 665 417 665 355 c 0,30,31
 665 296 665 296 644.5 238.5 c 128,-1,32
 624 181 624 181 586.5 136 c 128,-1,33
 549 91 549 91 495.5 63 c 128,-1,34
 442 35 442 35 377 35 c 0,35,36
 314 35 314 35 261 61.5 c 128,-1,37
 208 88 208 88 170 132.5 c 128,-1,38
 132 177 132 177 110.5 235 c 128,-1,39
 89 293 89 293 89 355 c 0,20,21
EndSplineSet
Substitution2: "Single Substitution lookup 45 subtable" ordmasculine
Substitution2: "'aalt' Access All Alternates lookup 0 subtable" ordmasculine
EndChar

StartChar: P
Encoding: 80 80 51
Width: 620
GlyphClass: 1
Flags: W
LayerCount: 2
Fore
SplineSet
138 0 m 1,0,-1
 138 271 l 1,1,-1
 392 271 l 2,2,3
 437 271 437 271 473.5 289.5 c 128,-1,4
 510 308 510 308 536 338.5 c 128,-1,5
 562 369 562 369 576.5 408.5 c 128,-1,6
 591 448 591 448 591 491 c 0,7,8
 591 532 591 532 575.5 571 c 128,-1,9
 560 610 560 610 533 641 c 128,-1,10
 506 672 506 672 468 691 c 128,-1,11
 430 710 430 710 386 710 c 2,12,-1
 94 710 l 1,13,-1
 94 0 l 1,14,-1
 138 0 l 1,0,-1
138 670 m 1,15,-1
 384 670 l 2,16,17
 418 670 418 670 447.5 655.5 c 128,-1,18
 477 641 477 641 499 616 c 128,-1,19
 521 591 521 591 534 559 c 128,-1,20
 547 527 547 527 547 491 c 0,21,22
 547 457 547 457 536 424.5 c 128,-1,23
 525 392 525 392 505 366.5 c 128,-1,24
 485 341 485 341 456 326 c 128,-1,25
 427 311 427 311 391 311 c 2,26,-1
 138 311 l 1,27,-1
 138 670 l 1,15,-1
EndSplineSet
EndChar

StartChar: Q
Encoding: 81 81 52
Width: 753
GlyphClass: 1
Flags: W
LayerCount: 2
Fore
SplineSet
377 -5 m 0,0,1
 448 -5 448 -5 508.5 24.5 c 128,-1,2
 569 54 569 54 613.5 103.5 c 128,-1,3
 658 153 658 153 683.5 218 c 128,-1,4
 709 283 709 283 709 355 c 0,5,6
 709 421 709 421 685 485.5 c 128,-1,7
 661 550 661 550 617 601 c 128,-1,8
 573 652 573 652 512.5 683.5 c 128,-1,9
 452 715 452 715 378 715 c 0,10,11
 307 715 307 715 246 685.5 c 128,-1,12
 185 656 185 656 140.5 606 c 128,-1,13
 96 556 96 556 70.5 491 c 128,-1,14
 45 426 45 426 45 355 c 0,15,16
 45 287 45 287 69 222 c 128,-1,17
 93 157 93 157 137 107 c 128,-1,18
 181 57 181 57 242 26 c 128,-1,19
 303 -5 303 -5 377 -5 c 0,0,1
377 35 m 0,20,21
 314 35 314 35 261 61.5 c 128,-1,22
 208 88 208 88 170 132.5 c 128,-1,23
 132 177 132 177 110.5 235 c 128,-1,24
 89 293 89 293 89 355 c 0,25,26
 89 415 89 415 109.5 472 c 128,-1,27
 130 529 130 529 168 574 c 128,-1,28
 206 619 206 619 259 647 c 128,-1,29
 312 675 312 675 378 675 c 0,30,31
 439 675 439 675 491.5 648.5 c 128,-1,32
 544 622 544 622 583 577.5 c 128,-1,33
 622 533 622 533 643.5 475 c 128,-1,34
 665 417 665 417 665 355 c 0,35,36
 665 296 665 296 644.5 238.5 c 128,-1,37
 624 181 624 181 586.5 136 c 128,-1,38
 549 91 549 91 495.5 63 c 128,-1,39
 442 35 442 35 377 35 c 0,20,21
688 -10 m 1,40,-1
 716 18 l 1,41,-1
 438 294 l 1,42,-1
 410 266 l 1,43,-1
 688 -10 l 1,40,-1
EndSplineSet
EndChar

StartChar: R
Encoding: 82 82 53
Width: 647
GlyphClass: 1
Flags: W
LayerCount: 2
Fore
SplineSet
138 0 m 1,0,-1
 138 271 l 1,1,-1
 376 271 l 1,2,-1
 550 0 l 1,3,-1
 600 0 l 1,4,-1
 423 277 l 1,5,6
 461 282 461 282 492.5 301 c 128,-1,7
 524 320 524 320 546.5 349 c 128,-1,8
 569 378 569 378 581 414.5 c 128,-1,9
 593 451 593 451 593 491 c 0,10,11
 593 532 593 532 578 571 c 128,-1,12
 563 610 563 610 535.5 641 c 128,-1,13
 508 672 508 672 470.5 691 c 128,-1,14
 433 710 433 710 388 710 c 2,15,-1
 94 710 l 1,16,-1
 94 0 l 1,17,-1
 138 0 l 1,0,-1
138 670 m 1,18,-1
 387 670 l 2,19,20
 421 670 421 670 450.5 655 c 128,-1,21
 480 640 480 640 502 615.5 c 128,-1,22
 524 591 524 591 537 558.5 c 128,-1,23
 550 526 550 526 550 491 c 0,24,25
 550 457 550 457 539 424.5 c 128,-1,26
 528 392 528 392 507.5 367 c 128,-1,27
 487 342 487 342 458 326.5 c 128,-1,28
 429 311 429 311 393 311 c 2,29,-1
 138 311 l 1,30,-1
 138 670 l 1,18,-1
EndSplineSet
EndChar

StartChar: S
Encoding: 83 83 54
Width: 604
GlyphClass: 1
Flags: W
LayerCount: 2
Fore
SplineSet
529 631 m 1,0,1
 508 653 508 653 484 668.5 c 128,-1,2
 460 684 460 684 433 694.5 c 128,-1,3
 406 705 406 705 376 710 c 128,-1,4
 346 715 346 715 311 715 c 0,5,6
 255 715 255 715 209 702 c 128,-1,7
 163 689 163 689 130 664 c 128,-1,8
 97 639 97 639 79 602 c 128,-1,9
 61 565 61 565 61 518 c 0,10,11
 61 474 61 474 76 445 c 128,-1,12
 91 416 91 416 121.5 396 c 128,-1,13
 152 376 152 376 196 362 c 128,-1,14
 240 348 240 348 297 337 c 0,15,16
 355 325 355 325 397.5 311.5 c 128,-1,17
 440 298 440 298 468 280 c 128,-1,18
 496 262 496 262 509.5 236.5 c 128,-1,19
 523 211 523 211 523 175 c 0,20,21
 523 103 523 103 468 68 c 128,-1,22
 413 33 413 33 317 33 c 0,23,24
 277 33 277 33 240.5 39.5 c 128,-1,25
 204 46 204 46 171.5 59.5 c 128,-1,26
 139 73 139 73 111 92 c 128,-1,27
 83 111 83 111 60 135 c 1,28,-1
 36 101 l 1,29,30
 65 74 65 74 96.5 54 c 128,-1,31
 128 34 128 34 163 20.5 c 128,-1,32
 198 7 198 7 236 0.5 c 128,-1,33
 274 -6 274 -6 316 -6 c 0,34,35
 373 -6 373 -6 419.5 6 c 128,-1,36
 466 18 466 18 499 41 c 128,-1,37
 532 64 532 64 550.5 99 c 128,-1,38
 569 134 569 134 569 180 c 0,39,40
 569 227 569 227 551.5 258.5 c 128,-1,41
 534 290 534 290 501 312 c 128,-1,42
 468 334 468 334 421.5 348.5 c 128,-1,43
 375 363 375 363 317 375 c 0,44,45
 261 386 261 386 221 398 c 128,-1,46
 181 410 181 410 155.5 426 c 128,-1,47
 130 442 130 442 117.5 465.5 c 128,-1,48
 105 489 105 489 105 524 c 0,49,50
 105 593 105 593 154.5 634.5 c 128,-1,51
 204 676 204 676 312 676 c 0,52,53
 344 676 344 676 371.5 671 c 128,-1,54
 399 666 399 666 423 656.5 c 128,-1,55
 447 647 447 647 468 632.5 c 128,-1,56
 489 618 489 618 507 598 c 1,57,-1
 529 631 l 1,0,1
EndSplineSet
EndChar

StartChar: T
Encoding: 84 84 55
Width: 605
GlyphClass: 1
Flags: W
LayerCount: 2
Fore
SplineSet
587 710 m 1,0,-1
 18 710 l 1,1,-1
 18 670 l 1,2,-1
 281 670 l 1,3,-1
 281 0 l 1,4,-1
 324 0 l 1,5,-1
 324 670 l 1,6,-1
 587 670 l 1,7,-1
 587 710 l 1,0,-1
EndSplineSet
EndChar

StartChar: U
Encoding: 85 85 56
Width: 756
GlyphClass: 1
Flags: W
LayerCount: 2
Fore
SplineSet
379 -5 m 0,0,1
 461 -5 461 -5 517 24.5 c 128,-1,2
 573 54 573 54 607.5 103.5 c 128,-1,3
 642 153 642 153 657.5 218 c 128,-1,4
 673 283 673 283 673 354 c 2,5,-1
 673 710 l 1,6,-1
 629 710 l 1,7,-1
 629 354 l 2,8,9
 629 295 629 295 618 238 c 128,-1,10
 607 181 607 181 578 136 c 128,-1,11
 549 91 549 91 500.5 63 c 128,-1,12
 452 35 452 35 378 35 c 0,13,14
 305 35 305 35 256.5 62.5 c 128,-1,15
 208 90 208 90 179.5 134.5 c 128,-1,16
 151 179 151 179 139 236.5 c 128,-1,17
 127 294 127 294 127 354 c 2,18,-1
 127 710 l 1,19,-1
 84 710 l 1,20,-1
 84 354 l 2,21,22
 84 286 84 286 98.5 221.5 c 128,-1,23
 113 157 113 157 147 106.5 c 128,-1,24
 181 56 181 56 237.5 25.5 c 128,-1,25
 294 -5 294 -5 379 -5 c 0,0,1
EndSplineSet
EndChar

StartChar: V
Encoding: 86 86 57
Width: 679
GlyphClass: 1
Flags: W
LayerCount: 2
Fore
SplineSet
16 710 m 1,0,-1
 318 0 l 1,1,-1
 360 0 l 1,2,-1
 662 710 l 1,3,-1
 616 710 l 1,4,-1
 339 54 l 1,5,-1
 62 710 l 1,6,-1
 16 710 l 1,0,-1
EndSplineSet
EndChar

StartChar: W
Encoding: 87 87 58
Width: 1044
GlyphClass: 1
Flags: W
LayerCount: 2
Fore
SplineSet
253 0 m 1,0,-1
 299 0 l 1,1,-1
 518 640 l 1,2,-1
 745 0 l 1,3,-1
 791 0 l 1,4,-1
 1018 710 l 1,5,-1
 970 710 l 1,6,-1
 765 61 l 1,7,-1
 541 710 l 1,8,-1
 493 710 l 1,9,-1
 279 61 l 1,10,-1
 73 710 l 1,11,-1
 25 710 l 1,12,-1
 253 0 l 1,0,-1
EndSplineSet
Substitution2: "'ss09' Style Set 9 lookup 37 subtable" W.ss09
Substitution2: "'aalt' Access All Alternates lookup 0 subtable" W.ss09
EndChar

StartChar: X
Encoding: 88 88 59
Width: 626
GlyphClass: 1
Flags: W
LayerCount: 2
Fore
SplineSet
8 710 m 1,0,-1
 288 350 l 1,1,-1
 16 0 l 1,2,-1
 68 0 l 1,3,-1
 314 317 l 1,4,-1
 560 0 l 1,5,-1
 610 0 l 1,6,-1
 338 350 l 1,7,-1
 618 710 l 1,8,-1
 568 710 l 1,9,-1
 314 383 l 1,10,-1
 60 710 l 1,11,-1
 8 710 l 1,0,-1
EndSplineSet
EndChar

StartChar: Y
Encoding: 89 89 60
Width: 646
GlyphClass: 1
Flags: W
LayerCount: 2
Fore
SplineSet
20 710 m 1,0,-1
 301 272 l 1,1,-1
 301 0 l 1,2,-1
 344 0 l 1,3,-1
 344 270 l 1,4,-1
 626 710 l 1,5,-1
 578 710 l 1,6,-1
 322 312 l 1,7,-1
 68 710 l 1,8,-1
 20 710 l 1,0,-1
EndSplineSet
EndChar

StartChar: Z
Encoding: 90 90 61
Width: 626
GlyphClass: 1
Flags: W
LayerCount: 2
Fore
SplineSet
29 0 m 1,0,-1
 592 0 l 1,1,-1
 592 40 l 1,2,-1
 84 40 l 1,3,-1
 595 673 l 1,4,-1
 595 710 l 1,5,-1
 36 710 l 1,6,-1
 36 670 l 1,7,-1
 543 670 l 1,8,-1
 29 37 l 1,9,-1
 29 0 l 1,0,-1
EndSplineSet
EndChar

StartChar: bracketleft
Encoding: 91 91 62
Width: 242
GlyphClass: 1
Flags: W
LayerCount: 2
Fore
SplineSet
186 -40 m 1,0,-1
 186 -3 l 1,1,-1
 133 -3 l 1,2,-1
 133 703 l 1,3,-1
 186 703 l 1,4,-1
 186 740 l 1,5,-1
 93 740 l 1,6,-1
 93 -40 l 1,7,-1
 186 -40 l 1,0,-1
EndSplineSet
EndChar

StartChar: backslash
Encoding: 92 92 63
Width: 539
GlyphClass: 1
Flags: W
LayerCount: 2
Fore
SplineSet
27 710 m 1,0,-1
 463 0 l 1,1,-1
 513 0 l 1,2,-1
 78 710 l 1,3,-1
 27 710 l 1,0,-1
EndSplineSet
EndChar

StartChar: bracketright
Encoding: 93 93 64
Width: 242
GlyphClass: 1
Flags: W
LayerCount: 2
Fore
SplineSet
149 -40 m 1,0,-1
 149 740 l 1,1,-1
 56 740 l 1,2,-1
 56 703 l 1,3,-1
 109 703 l 1,4,-1
 109 -3 l 1,5,-1
 56 -3 l 1,6,-1
 56 -40 l 1,7,-1
 149 -40 l 1,0,-1
EndSplineSet
EndChar

StartChar: asciicircum
Encoding: 94 94 65
Width: 521
GlyphClass: 1
Flags: W
LayerCount: 2
Fore
SplineSet
83 303 m 1,0,-1
 261 664 l 1,1,-1
 436 303 l 1,2,-1
 476 303 l 1,3,-1
 279 710 l 1,4,-1
 243 710 l 1,5,-1
 45 303 l 1,6,-1
 83 303 l 1,0,-1
EndSplineSet
EndChar

StartChar: underscore
Encoding: 95 95 66
Width: 522
GlyphClass: 1
Flags: W
LayerCount: 2
Fore
SplineSet
455 -40 m 1,0,-1
 455 0 l 1,1,-1
 67 0 l 1,2,-1
 67 -40 l 1,3,-1
 455 -40 l 1,0,-1
EndSplineSet
EndChar

StartChar: a
Encoding: 97 97 68
Width: 534
GlyphClass: 1
Flags: W
LayerCount: 2
Fore
SplineSet
460 0 m 1,0,-1
 460 325 l 2,1,2
 460 369 460 369 447.5 406 c 128,-1,3
 435 443 435 443 409.5 470.5 c 128,-1,4
 384 498 384 498 347 513 c 128,-1,5
 310 528 310 528 261 528 c 0,6,7
 210 528 210 528 162.5 508.5 c 128,-1,8
 115 489 115 489 73 460 c 1,9,-1
 91 431 l 1,10,11
 134 461 134 461 176.5 477.5 c 128,-1,12
 219 494 219 494 258 494 c 0,13,14
 295 494 295 494 324 482 c 128,-1,15
 353 470 353 470 374 448 c 128,-1,16
 395 426 395 426 406 395.5 c 128,-1,17
 417 365 417 365 417 328 c 2,18,-1
 417 275 l 1,19,20
 397 283 397 283 354.5 293 c 128,-1,21
 312 303 312 303 253 303 c 0,22,23
 217 303 217 303 178.5 294.5 c 128,-1,24
 140 286 140 286 108.5 268 c 128,-1,25
 77 250 77 250 57 221 c 128,-1,26
 37 192 37 192 37 150 c 0,27,28
 37 117 37 117 50 87.5 c 128,-1,29
 63 58 63 58 86 36.5 c 128,-1,30
 109 15 109 15 140 2.5 c 128,-1,31
 171 -10 171 -10 207 -10 c 0,32,33
 267 -10 267 -10 323.5 13 c 128,-1,34
 380 36 380 36 418 85 c 1,35,-1
 418 0 l 1,36,-1
 460 0 l 1,0,-1
401 108 m 0,37,38
 387 87 387 87 365.5 71 c 128,-1,39
 344 55 344 55 319 45 c 128,-1,40
 294 35 294 35 267.5 30 c 128,-1,41
 241 25 241 25 215 25 c 0,42,43
 188 25 188 25 163.5 34.5 c 128,-1,44
 139 44 139 44 120 60.5 c 128,-1,45
 101 77 101 77 89.5 100.5 c 128,-1,46
 78 124 78 124 78 153 c 0,47,48
 78 186 78 186 95 208.5 c 128,-1,49
 112 231 112 231 138 245 c 128,-1,50
 164 259 164 259 195.5 265.5 c 128,-1,51
 227 272 227 272 257 272 c 0,52,53
 297 272 297 272 337.5 265 c 128,-1,54
 378 258 378 258 417 243 c 1,55,-1
 417 148 l 2,56,57
 417 139 417 139 413 129 c 128,-1,58
 409 119 409 119 401 108 c 0,37,38
EndSplineSet
Substitution2: "Single Substitution lookup 45 subtable" ordfeminine
Substitution2: "'ss02' Style Set 2 lookup 30 subtable" a.ss02
Substitution2: "'ss01' Style Set 1 lookup 29 subtable" a.ss01
Substitution2: "'salt' Stylistic Alternatives lookup 28 subtable" a.ss01
AlternateSubs2: "'aalt' Access All Alternates lookup 1 subtable" ordfeminine a.ss01 a.ss02
EndChar

StartChar: b
Encoding: 98 98 69
Width: 610
GlyphClass: 1
Flags: W
LayerCount: 2
Fore
SplineSet
318 -10 m 0,0,1
 371 -10 371 -10 416 12 c 128,-1,2
 461 34 461 34 495 70.5 c 128,-1,3
 529 107 529 107 548 156 c 128,-1,4
 567 205 567 205 567 258 c 0,5,6
 567 308 567 308 550.5 356.5 c 128,-1,7
 534 405 534 405 503.5 443 c 128,-1,8
 473 481 473 481 428.5 504.5 c 128,-1,9
 384 528 384 528 328 528 c 0,10,11
 261 528 261 528 210.5 494 c 128,-1,12
 160 460 160 460 122 405 c 1,13,-1
 122 730 l 1,14,-1
 80 730 l 1,15,-1
 80 0 l 1,16,-1
 119 0 l 1,17,-1
 119 105 l 1,18,19
 134 80 134 80 155.5 59 c 128,-1,20
 177 38 177 38 203 22.5 c 128,-1,21
 229 7 229 7 258 -1.5 c 128,-1,22
 287 -10 287 -10 318 -10 c 0,0,1
310 29 m 0,23,24
 282 29 282 29 250.5 40 c 128,-1,25
 219 51 219 51 191.5 70.5 c 128,-1,26
 164 90 164 90 144.5 116 c 128,-1,27
 125 142 125 142 122 172 c 2,28,-1
 122 348 l 1,29,30
 136 377 136 377 155.5 402 c 128,-1,31
 175 427 175 427 200 446.5 c 128,-1,32
 225 466 225 466 255 478 c 128,-1,33
 285 490 285 490 319 490 c 0,34,35
 364 490 364 490 401.5 470.5 c 128,-1,36
 439 451 439 451 466.5 419 c 128,-1,37
 494 387 494 387 508.5 345 c 128,-1,38
 523 303 523 303 523 258 c 0,39,40
 523 215 523 215 507.5 174 c 128,-1,41
 492 133 492 133 463.5 100.5 c 128,-1,42
 435 68 435 68 396 48.5 c 128,-1,43
 357 29 357 29 310 29 c 0,23,24
EndSplineSet
EndChar

StartChar: c
Encoding: 99 99 70
Width: 543
GlyphClass: 1
Flags: W
LayerCount: 2
Fore
SplineSet
299 -10 m 0,0,1
 334 -10 334 -10 367.5 -0.5 c 128,-1,2
 401 9 401 9 429 26 c 128,-1,3
 457 43 457 43 477 66 c 128,-1,4
 497 89 497 89 507 116 c 1,5,-1
 465 128 l 1,6,7
 459 109 459 109 442.5 90.5 c 128,-1,8
 426 72 426 72 402.5 58.5 c 128,-1,9
 379 45 379 45 351.5 37 c 128,-1,10
 324 29 324 29 296 29 c 0,11,12
 253 29 253 29 215 47 c 128,-1,13
 177 65 177 65 148 97 c 128,-1,14
 119 129 119 129 102.5 171.5 c 128,-1,15
 86 214 86 214 86 262 c 256,16,17
 86 310 86 310 102 351.5 c 128,-1,18
 118 393 118 393 146.5 424 c 128,-1,19
 175 455 175 455 213 472.5 c 128,-1,20
 251 490 251 490 295 490 c 0,21,22
 348 490 348 490 391.5 464.5 c 128,-1,23
 435 439 435 439 459 395 c 1,24,-1
 501 409 l 1,25,26
 474 465 474 465 421 496.5 c 128,-1,27
 368 528 368 528 298 528 c 0,28,29
 242 528 242 528 195.5 507.5 c 128,-1,30
 149 487 149 487 115 451 c 128,-1,31
 81 415 81 415 62 366.5 c 128,-1,32
 43 318 43 318 43 262 c 256,33,34
 43 206 43 206 62.5 156.5 c 128,-1,35
 82 107 82 107 116.5 70 c 128,-1,36
 151 33 151 33 198 11.5 c 128,-1,37
 245 -10 245 -10 299 -10 c 0,0,1
EndSplineSet
EndChar

StartChar: d
Encoding: 100 100 71
Width: 610
GlyphClass: 1
Flags: W
LayerCount: 2
Fore
SplineSet
530 0 m 1,0,-1
 530 730 l 1,1,-1
 488 730 l 1,2,-1
 488 405 l 1,3,4
 471 430 471 430 449.5 452.5 c 128,-1,5
 428 475 428 475 402 491.5 c 128,-1,6
 376 508 376 508 346.5 518 c 128,-1,7
 317 528 317 528 282 528 c 0,8,9
 231 528 231 528 187 506.5 c 128,-1,10
 143 485 143 485 111 448 c 128,-1,11
 79 411 79 411 61 362 c 128,-1,12
 43 313 43 313 43 259 c 0,13,14
 43 207 43 207 61.5 159 c 128,-1,15
 80 111 80 111 113.5 73 c 128,-1,16
 147 35 147 35 193 12.5 c 128,-1,17
 239 -10 239 -10 293 -10 c 0,18,19
 352 -10 352 -10 404 21 c 128,-1,20
 456 52 456 52 488 103 c 1,21,-1
 488 0 l 1,22,-1
 530 0 l 1,0,-1
488 174 m 2,23,24
 486 144 486 144 466.5 117.5 c 128,-1,25
 447 91 447 91 419.5 71.5 c 128,-1,26
 392 52 392 52 360 40.5 c 128,-1,27
 328 29 328 29 300 29 c 0,28,29
 255 29 255 29 216 47.5 c 128,-1,30
 177 66 177 66 148.5 98 c 128,-1,31
 120 130 120 130 103.5 171.5 c 128,-1,32
 87 213 87 213 87 258 c 0,33,34
 87 302 87 302 101 343.5 c 128,-1,35
 115 385 115 385 142 417.5 c 128,-1,36
 169 450 169 450 206.5 470 c 128,-1,37
 244 490 244 490 291 490 c 0,38,39
 320 490 320 490 351 478.5 c 128,-1,40
 382 467 382 467 408.5 448 c 128,-1,41
 435 429 435 429 456.5 403.5 c 128,-1,42
 478 378 478 378 488 348 c 1,43,-1
 488 174 l 2,23,24
EndSplineSet
Substitution2: "'ss03' Style Set 3 lookup 31 subtable" d.ss03
Substitution2: "'aalt' Access All Alternates lookup 0 subtable" d.ss03
EndChar

StartChar: e
Encoding: 101 101 72
Width: 581
GlyphClass: 1
Flags: W
LayerCount: 2
Fore
SplineSet
298 -10 m 0,0,1
 334 -10 334 -10 367.5 -0.5 c 128,-1,2
 401 9 401 9 429 26 c 128,-1,3
 457 43 457 43 478.5 66 c 128,-1,4
 500 89 500 89 511 117 c 1,5,-1
 473 127 l 1,6,7
 463 105 463 105 445.5 86 c 128,-1,8
 428 67 428 67 404.5 53.5 c 128,-1,9
 381 40 381 40 354.5 32.5 c 128,-1,10
 328 25 328 25 300 25 c 0,11,12
 258 25 258 25 221 42 c 128,-1,13
 184 59 184 59 155.5 88 c 128,-1,14
 127 117 127 117 109 156.5 c 128,-1,15
 91 196 91 196 87 242 c 1,16,-1
 548 242 l 1,17,18
 548 246 548 246 548.5 250.5 c 128,-1,19
 549 255 549 255 549 261 c 0,20,21
 549 316 549 316 529.5 364.5 c 128,-1,22
 510 413 510 413 476 449.5 c 128,-1,23
 442 486 442 486 395.5 507 c 128,-1,24
 349 528 349 528 295 528 c 256,25,26
 241 528 241 528 195 507.5 c 128,-1,27
 149 487 149 487 115 450.5 c 128,-1,28
 81 414 81 414 62 365.5 c 128,-1,29
 43 317 43 317 43 262 c 256,30,31
 43 207 43 207 62.5 157.5 c 128,-1,32
 82 108 82 108 116.5 70.5 c 128,-1,33
 151 33 151 33 197.5 11.5 c 128,-1,34
 244 -10 244 -10 298 -10 c 0,0,1
86 276 m 1,35,36
 89 323 89 323 106 362.5 c 128,-1,37
 123 402 123 402 151 431 c 128,-1,38
 179 460 179 460 216 476.5 c 128,-1,39
 253 493 253 493 296 493 c 0,40,41
 338 493 338 493 375 477 c 128,-1,42
 412 461 412 461 440.5 432 c 128,-1,43
 469 403 469 403 486.5 363 c 128,-1,44
 504 323 504 323 507 276 c 1,45,-1
 86 276 l 1,35,36
EndSplineSet
EndChar

StartChar: f
Encoding: 102 102 73
Width: 314
GlyphClass: 1
Flags: W
LayerCount: 2
Fore
SplineSet
144 0 m 1,0,-1
 144 484 l 1,1,-1
 294 484 l 1,2,-1
 294 520 l 1,3,-1
 144 520 l 1,4,-1
 144 539 l 2,5,6
 144 618 144 618 172 660 c 128,-1,7
 200 702 200 702 253 702 c 0,8,9
 275 702 275 702 296 695 c 128,-1,10
 317 688 317 688 330 677 c 1,11,-1
 348 707 l 1,12,13
 331 722 331 722 303.5 731 c 128,-1,14
 276 740 276 740 246 740 c 0,15,16
 213 740 213 740 186 726 c 128,-1,17
 159 712 159 712 140.5 686.5 c 128,-1,18
 122 661 122 661 112 623 c 128,-1,19
 102 585 102 585 102 538 c 2,20,-1
 102 520 l 1,21,-1
 28 520 l 1,22,-1
 28 484 l 1,23,-1
 102 484 l 1,24,-1
 102 0 l 1,25,-1
 144 0 l 1,0,-1
EndSplineSet
EndChar

StartChar: g
Encoding: 103 103 74
Width: 610
GlyphClass: 1
Flags: W
LayerCount: 2
Fore
SplineSet
290 -9 m 0,0,1
 349 -9 349 -9 402.5 22.5 c 128,-1,2
 456 54 456 54 488 105 c 1,3,-1
 488 -13 l 2,4,5
 488 -56 488 -56 472 -88.5 c 128,-1,6
 456 -121 456 -121 429 -143 c 128,-1,7
 402 -165 402 -165 366 -176 c 128,-1,8
 330 -187 330 -187 289 -187 c 0,9,10
 228 -187 228 -187 174.5 -162.5 c 128,-1,11
 121 -138 121 -138 90 -83 c 1,12,-1
 60 -102 l 1,13,14
 92 -157 92 -157 145 -190 c 128,-1,15
 198 -223 198 -223 289 -223 c 0,16,17
 337 -223 337 -223 381 -210 c 128,-1,18
 425 -197 425 -197 458 -170.5 c 128,-1,19
 491 -144 491 -144 510.5 -104.5 c 128,-1,20
 530 -65 530 -65 530 -13 c 2,21,-1
 530 520 l 1,22,-1
 491 520 l 1,23,-1
 491 405 l 1,24,25
 473 431 473 431 451.5 453.5 c 128,-1,26
 430 476 430 476 404 492.5 c 128,-1,27
 378 509 378 509 348.5 518.5 c 128,-1,28
 319 528 319 528 285 528 c 0,29,30
 231 528 231 528 186.5 506 c 128,-1,31
 142 484 142 484 110 446.5 c 128,-1,32
 78 409 78 409 60.5 360.5 c 128,-1,33
 43 312 43 312 43 259 c 0,34,35
 43 208 43 208 61.5 160 c 128,-1,36
 80 112 80 112 113 74.5 c 128,-1,37
 146 37 146 37 191.5 14 c 128,-1,38
 237 -9 237 -9 290 -9 c 0,0,1
299 29 m 0,39,40
 255 29 255 29 216 47.5 c 128,-1,41
 177 66 177 66 148.5 98 c 128,-1,42
 120 130 120 130 103 171 c 128,-1,43
 86 212 86 212 86 258 c 0,44,45
 86 299 86 299 100 340.5 c 128,-1,46
 114 382 114 382 140 415 c 128,-1,47
 166 448 166 448 204.5 469 c 128,-1,48
 243 490 243 490 291 490 c 0,49,50
 321 490 321 490 351.5 479 c 128,-1,51
 382 468 382 468 408 449.5 c 128,-1,52
 434 431 434 431 455 405 c 128,-1,53
 476 379 476 379 488 348 c 1,54,-1
 488 174 l 2,55,56
 485 148 485 148 467.5 122 c 128,-1,57
 450 96 450 96 424 75.5 c 128,-1,58
 398 55 398 55 365.5 42 c 128,-1,59
 333 29 333 29 299 29 c 0,39,40
EndSplineSet
EndChar

StartChar: h
Encoding: 104 104 75
Width: 573
GlyphClass: 1
Flags: W
LayerCount: 2
Fore
SplineSet
499 297 m 2,0,1
 499 352 499 352 489.5 395 c 128,-1,2
 480 438 480 438 459.5 467.5 c 128,-1,3
 439 497 439 497 408 512.5 c 128,-1,4
 377 528 377 528 334 528 c 0,5,6
 269 528 269 528 211.5 492 c 128,-1,7
 154 456 154 456 122 393 c 1,8,-1
 122 730 l 1,9,-1
 80 730 l 1,10,-1
 80 0 l 1,11,-1
 122 0 l 1,12,-1
 122 324 l 1,13,14
 132 359 132 359 152.5 389 c 128,-1,15
 173 419 173 419 200 441 c 128,-1,16
 227 463 227 463 259 476 c 128,-1,17
 291 489 291 489 324 489 c 0,18,19
 390 489 390 489 423.5 439.5 c 128,-1,20
 457 390 457 390 457 290 c 2,21,-1
 457 0 l 1,22,-1
 499 0 l 1,23,-1
 499 297 l 2,0,1
EndSplineSet
EndChar

StartChar: k
Encoding: 107 107 78
Width: 518
GlyphClass: 1
Flags: W
LayerCount: 2
Fore
SplineSet
505 0 m 1,0,-1
 279 309 l 1,1,-1
 498 518 l 1,2,-1
 448 518 l 1,3,-1
 122 215 l 1,4,-1
 122 730 l 1,5,-1
 80 730 l 1,6,-1
 80 0 l 1,7,-1
 122 0 l 1,8,-1
 122 166 l 1,9,-1
 249 283 l 1,10,-1
 457 0 l 1,11,-1
 505 0 l 1,0,-1
EndSplineSet
EndChar

StartChar: l
Encoding: 108 108 79
Width: 254
GlyphClass: 1
Flags: W
LayerCount: 2
Fore
SplineSet
84 86 m 2,0,1
 84 44 84 44 108.5 19 c 128,-1,2
 133 -6 133 -6 174 -6 c 0,3,4
 191 -6 191 -6 214.5 -1.5 c 128,-1,5
 238 3 238 3 255 9 c 1,6,-1
 245 44 l 1,7,8
 232 40 232 40 215.5 36.5 c 128,-1,9
 199 33 199 33 185 33 c 0,10,11
 172 33 172 33 161.5 36.5 c 128,-1,12
 151 40 151 40 143 47.5 c 128,-1,13
 135 55 135 55 131 67 c 128,-1,14
 127 79 127 79 127 96 c 2,15,-1
 127 730 l 1,16,-1
 84 730 l 1,17,-1
 84 86 l 2,0,1
EndSplineSet
Substitution2: "'ss05' Style Set 5 lookup 33 subtable" l.ss05
Substitution2: "'aalt' Access All Alternates lookup 0 subtable" l.ss05
EndChar

StartChar: m
Encoding: 109 109 80
Width: 913
GlyphClass: 1
Flags: W
LayerCount: 2
Fore
SplineSet
839 297 m 2,0,1
 839 352 839 352 830 395.5 c 128,-1,2
 821 439 821 439 802 468.5 c 128,-1,3
 783 498 783 498 753 513 c 128,-1,4
 723 528 723 528 681 528 c 0,5,6
 615 528 615 528 564 492.5 c 128,-1,7
 513 457 513 457 476 385 c 1,8,9
 468 450 468 450 426.5 489 c 128,-1,10
 385 528 385 528 320 528 c 0,11,12
 257 528 257 528 205 493 c 128,-1,13
 153 458 153 458 120 393 c 1,14,-1
 120 520 l 1,15,-1
 80 520 l 1,16,-1
 80 0 l 1,17,-1
 122 0 l 1,18,-1
 122 324 l 1,19,20
 133 361 133 361 151.5 391 c 128,-1,21
 170 421 170 421 194.5 443 c 128,-1,22
 219 465 219 465 249 477 c 128,-1,23
 279 489 279 489 311 489 c 0,24,25
 377 489 377 489 407.5 441 c 128,-1,26
 438 393 438 393 438 290 c 2,27,-1
 438 0 l 1,28,-1
 481 0 l 1,29,-1
 481 323 l 1,30,31
 491 359 491 359 509 389.5 c 128,-1,32
 527 420 527 420 551.5 442 c 128,-1,33
 576 464 576 464 605.5 476.5 c 128,-1,34
 635 489 635 489 669 489 c 0,35,36
 734 489 734 489 765.5 440.5 c 128,-1,37
 797 392 797 392 797 290 c 2,38,-1
 797 0 l 1,39,-1
 839 0 l 1,40,-1
 839 297 l 2,0,1
EndSplineSet
EndChar

StartChar: n
Encoding: 110 110 81
Width: 573
GlyphClass: 1
Flags: W
LayerCount: 2
Fore
SplineSet
499 297 m 2,0,1
 499 353 499 353 490.5 396.5 c 128,-1,2
 482 440 482 440 463.5 469 c 128,-1,3
 445 498 445 498 415.5 513 c 128,-1,4
 386 528 386 528 345 528 c 0,5,6
 310 528 310 528 276.5 518.5 c 128,-1,7
 243 509 243 509 213.5 491 c 128,-1,8
 184 473 184 473 159.5 448.5 c 128,-1,9
 135 424 135 424 120 393 c 1,10,-1
 120 520 l 1,11,-1
 80 520 l 1,12,-1
 80 0 l 1,13,-1
 122 0 l 1,14,-1
 122 324 l 1,15,16
 133 359 133 359 154 389.5 c 128,-1,17
 175 420 175 420 204 442 c 128,-1,18
 233 464 233 464 266.5 476.5 c 128,-1,19
 300 489 300 489 334 489 c 0,20,21
 398 489 398 489 427.5 441.5 c 128,-1,22
 457 394 457 394 457 290 c 2,23,-1
 457 0 l 1,24,-1
 499 0 l 1,25,-1
 499 297 l 2,0,1
EndSplineSet
EndChar

StartChar: o
Encoding: 111 111 82
Width: 590
GlyphClass: 1
Flags: W
LayerCount: 2
Fore
SplineSet
295 -10 m 256,0,1
 349 -10 349 -10 395 11.5 c 128,-1,2
 441 33 441 33 475 70 c 128,-1,3
 509 107 509 107 528.5 156 c 128,-1,4
 548 205 548 205 548 259 c 0,5,6
 548 314 548 314 528.5 363 c 128,-1,7
 509 412 509 412 474.5 448.5 c 128,-1,8
 440 485 440 485 394 506.5 c 128,-1,9
 348 528 348 528 295 528 c 256,10,11
 242 528 242 528 196 506.5 c 128,-1,12
 150 485 150 485 116 448.5 c 128,-1,13
 82 412 82 412 62.5 363 c 128,-1,14
 43 314 43 314 43 259 c 0,15,16
 43 205 43 205 62 156 c 128,-1,17
 81 107 81 107 115 70 c 128,-1,18
 149 33 149 33 195 11.5 c 128,-1,19
 241 -10 241 -10 295 -10 c 256,0,1
86 257 m 0,20,21
 86 305 86 305 102.5 347 c 128,-1,22
 119 389 119 389 147.5 421 c 128,-1,23
 176 453 176 453 214 471.5 c 128,-1,24
 252 490 252 490 295 490 c 256,25,26
 338 490 338 490 376 471.5 c 128,-1,27
 414 453 414 453 442.5 421.5 c 128,-1,28
 471 390 471 390 487.5 348.5 c 128,-1,29
 504 307 504 307 504 260 c 0,30,31
 504 212 504 212 487.5 170 c 128,-1,32
 471 128 471 128 442 96.5 c 128,-1,33
 413 65 413 65 375.5 47 c 128,-1,34
 338 29 338 29 294 29 c 0,35,36
 252 29 252 29 213.5 47 c 128,-1,37
 175 65 175 65 147 96 c 128,-1,38
 119 127 119 127 102.5 168.5 c 128,-1,39
 86 210 86 210 86 257 c 0,20,21
EndSplineSet
Substitution2: "Single Substitution lookup 45 subtable" ordmasculine
Substitution2: "'aalt' Access All Alternates lookup 0 subtable" ordmasculine
EndChar

StartChar: p
Encoding: 112 112 83
Width: 610
GlyphClass: 1
Flags: W
LayerCount: 2
Fore
SplineSet
328 -10 m 0,0,1
 381 -10 381 -10 425 12 c 128,-1,2
 469 34 469 34 500.5 70.5 c 128,-1,3
 532 107 532 107 549.5 156 c 128,-1,4
 567 205 567 205 567 259 c 0,5,6
 567 310 567 310 548.5 358.5 c 128,-1,7
 530 407 530 407 497 444.5 c 128,-1,8
 464 482 464 482 418 505 c 128,-1,9
 372 528 372 528 318 528 c 0,10,11
 258 528 258 528 204.5 496.5 c 128,-1,12
 151 465 151 465 119 414 c 1,13,-1
 119 520 l 1,14,-1
 80 520 l 1,15,-1
 80 -213 l 1,16,-1
 122 -213 l 1,17,-1
 122 114 l 1,18,19
 139 88 139 88 160 65.5 c 128,-1,20
 181 43 181 43 207 26.5 c 128,-1,21
 233 10 233 10 264 0 c 128,-1,22
 295 -10 295 -10 328 -10 c 0,0,1
319 29 m 0,23,24
 287 29 287 29 257 40 c 128,-1,25
 227 51 227 51 201.5 70 c 128,-1,26
 176 89 176 89 155.5 115 c 128,-1,27
 135 141 135 141 122 170 c 1,28,-1
 122 345 l 2,29,30
 125 373 125 373 144.5 399.5 c 128,-1,31
 164 426 164 426 191.5 446 c 128,-1,32
 219 466 219 466 250.5 478 c 128,-1,33
 282 490 282 490 310 490 c 0,34,35
 355 490 355 490 394 471 c 128,-1,36
 433 452 433 452 461.5 420 c 128,-1,37
 490 388 490 388 506.5 346.5 c 128,-1,38
 523 305 523 305 523 259 c 0,39,40
 523 216 523 216 509 174.5 c 128,-1,41
 495 133 495 133 468 100.5 c 128,-1,42
 441 68 441 68 403.5 48.5 c 128,-1,43
 366 29 366 29 319 29 c 0,23,24
EndSplineSet
EndChar

StartChar: q
Encoding: 113 113 84
Width: 610
GlyphClass: 1
Flags: W
LayerCount: 2
Fore
SplineSet
282 -10 m 0,0,1
 342 -10 342 -10 394 21.5 c 128,-1,2
 446 53 446 53 487 114 c 1,3,-1
 487 -213 l 1,4,-1
 530 -213 l 1,5,-1
 530 520 l 1,6,-1
 491 520 l 1,7,-1
 491 414 l 1,8,9
 476 438 476 438 454 459 c 128,-1,10
 432 480 432 480 406.5 495.5 c 128,-1,11
 381 511 381 511 352 519.5 c 128,-1,12
 323 528 323 528 292 528 c 0,13,14
 240 528 240 528 194.5 506.5 c 128,-1,15
 149 485 149 485 115.5 447.5 c 128,-1,16
 82 410 82 410 62.5 361.5 c 128,-1,17
 43 313 43 313 43 259 c 0,18,19
 43 207 43 207 60 158.5 c 128,-1,20
 77 110 77 110 108.5 72.5 c 128,-1,21
 140 35 140 35 184 12.5 c 128,-1,22
 228 -10 228 -10 282 -10 c 0,0,1
292 29 m 0,23,24
 247 29 247 29 209.5 47.5 c 128,-1,25
 172 66 172 66 144.5 97.5 c 128,-1,26
 117 129 117 129 101.5 171 c 128,-1,27
 86 213 86 213 86 258 c 0,28,29
 86 301 86 301 102 342.5 c 128,-1,30
 118 384 118 384 146 417 c 128,-1,31
 174 450 174 450 212.5 470 c 128,-1,32
 251 490 251 490 298 490 c 0,33,34
 329 490 329 490 361 477.5 c 128,-1,35
 393 465 393 465 419.5 445 c 128,-1,36
 446 425 446 425 465 398 c 128,-1,37
 484 371 484 371 487 341 c 2,38,-1
 487 167 l 1,39,40
 473 139 473 139 453.5 114 c 128,-1,41
 434 89 434 89 409 70 c 128,-1,42
 384 51 384 51 355 40 c 128,-1,43
 326 29 326 29 292 29 c 0,23,24
EndSplineSet
Substitution2: "'ss06' Style Set 6 lookup 34 subtable" q.ss06
Substitution2: "'aalt' Access All Alternates lookup 0 subtable" q.ss06
EndChar

StartChar: r
Encoding: 114 114 85
Width: 336
GlyphClass: 1
Flags: W
LayerCount: 2
Fore
SplineSet
320 521 m 1,0,1
 314 521 314 521 306 521 c 128,-1,2
 298 521 298 521 288 520 c 0,3,4
 237 515 237 515 192 480 c 128,-1,5
 147 445 147 445 120 390 c 1,6,-1
 120 520 l 1,7,-1
 80 520 l 1,8,-1
 80 0 l 1,9,-1
 122 0 l 1,10,-1
 122 326 l 1,11,12
 143 397 143 397 195.5 437.5 c 128,-1,13
 248 478 248 478 320 481 c 1,14,-1
 320 521 l 1,0,1
EndSplineSet
EndChar

StartChar: s
Encoding: 115 115 86
Width: 477
GlyphClass: 1
Flags: W
LayerCount: 2
Fore
SplineSet
240 -10 m 0,0,1
 285 -10 285 -10 321 0.5 c 128,-1,2
 357 11 357 11 382.5 31 c 128,-1,3
 408 51 408 51 422.5 79 c 128,-1,4
 437 107 437 107 437 142 c 0,5,6
 437 176 437 176 423 198.5 c 128,-1,7
 409 221 409 221 383.5 236.5 c 128,-1,8
 358 252 358 252 321.5 262.5 c 128,-1,9
 285 273 285 273 239 285 c 0,10,11
 205 294 205 294 180 301.5 c 128,-1,12
 155 309 155 309 138.5 319.5 c 128,-1,13
 122 330 122 330 114 345 c 128,-1,14
 106 360 106 360 106 384 c 0,15,16
 106 413 106 413 118 433.5 c 128,-1,17
 130 454 130 454 149.5 467 c 128,-1,18
 169 480 169 480 195 486 c 128,-1,19
 221 492 221 492 250 492 c 0,20,21
 298 492 298 492 339 476 c 128,-1,22
 380 460 380 460 403 429 c 1,23,-1
 429 455 l 1,24,25
 406 488 406 488 360.5 508 c 128,-1,26
 315 528 315 528 254 528 c 0,27,28
 215 528 215 528 180.5 519 c 128,-1,29
 146 510 146 510 120.5 491.5 c 128,-1,30
 95 473 95 473 80 445 c 128,-1,31
 65 417 65 417 65 379 c 0,32,33
 65 348 65 348 75.5 327.5 c 128,-1,34
 86 307 86 307 106 292.5 c 128,-1,35
 126 278 126 278 156 268 c 128,-1,36
 186 258 186 258 226 248 c 0,37,38
 267 238 267 238 298 229.5 c 128,-1,39
 329 221 329 221 350.5 209 c 128,-1,40
 372 197 372 197 383.5 180 c 128,-1,41
 395 163 395 163 395 138 c 0,42,43
 395 84 395 84 351.5 55.5 c 128,-1,44
 308 27 308 27 239 27 c 0,45,46
 185 27 185 27 141.5 45.5 c 128,-1,47
 98 64 98 64 56 104 c 1,48,-1
 35 75 l 1,49,50
 75 32 75 32 126.5 11 c 128,-1,51
 178 -10 178 -10 240 -10 c 0,0,1
EndSplineSet
EndChar

StartChar: t
Encoding: 116 116 87
Width: 314
GlyphClass: 1
Flags: W
LayerCount: 2
Fore
SplineSet
290 59 m 1,0,1
 288 57 288 57 281 53 c 128,-1,2
 274 49 274 49 263 45 c 128,-1,3
 252 41 252 41 238 38 c 128,-1,4
 224 35 224 35 208 35 c 0,5,6
 183 35 183 35 163.5 49.5 c 128,-1,7
 144 64 144 64 142 93 c 2,8,-1
 142 484 l 1,9,-1
 264 484 l 1,10,-1
 264 520 l 1,11,-1
 142 520 l 1,12,-1
 142 699 l 1,13,-1
 99 699 l 1,14,-1
 99 520 l 1,15,-1
 26 520 l 1,16,-1
 26 484 l 1,17,-1
 99 484 l 1,18,-1
 99 84 l 2,19,20
 99 63 99 63 107.5 46.5 c 128,-1,21
 116 30 116 30 129 18.5 c 128,-1,22
 142 7 142 7 160.5 0.5 c 128,-1,23
 179 -6 179 -6 199 -6 c 0,24,25
 220 -6 220 -6 237.5 -1.5 c 128,-1,26
 255 3 255 3 269 8 c 128,-1,27
 283 13 283 13 292.5 18 c 128,-1,28
 302 23 302 23 304 25 c 2,29,-1
 290 59 l 1,0,1
EndSplineSet
Substitution2: "'ss07' Style Set 7 lookup 35 subtable" t.ss07
Substitution2: "'aalt' Access All Alternates lookup 0 subtable" t.ss07
EndChar

StartChar: u
Encoding: 117 117 88
Width: 582
GlyphClass: 1
Flags: W
LayerCount: 2
Fore
SplineSet
502 0 m 1,0,-1
 502 520 l 1,1,-1
 460 520 l 1,2,-1
 460 191 l 1,3,4
 450 159 450 159 430 129.5 c 128,-1,5
 410 100 410 100 383 77.5 c 128,-1,6
 356 55 356 55 323.5 42 c 128,-1,7
 291 29 291 29 255 29 c 0,8,9
 213 29 213 29 186 44.5 c 128,-1,10
 159 60 159 60 143.5 87.5 c 128,-1,11
 128 115 128 115 122.5 151 c 128,-1,12
 117 187 117 187 117 227 c 2,13,-1
 117 520 l 1,14,-1
 74 520 l 1,15,-1
 74 222 l 2,16,17
 74 178 74 178 80.5 136.5 c 128,-1,18
 87 95 87 95 106 62 c 128,-1,19
 125 29 125 29 158.5 9.5 c 128,-1,20
 192 -10 192 -10 245 -10 c 0,21,22
 278 -10 278 -10 309.5 -0.5 c 128,-1,23
 341 9 341 9 369.5 26.5 c 128,-1,24
 398 44 398 44 421.5 69 c 128,-1,25
 445 94 445 94 461 124 c 1,26,-1
 461 0 l 1,27,-1
 502 0 l 1,0,-1
EndSplineSet
Substitution2: "'ss08' Style Set 8 lookup 36 subtable" u.ss08
Substitution2: "'aalt' Access All Alternates lookup 0 subtable" u.ss08
EndChar

StartChar: v
Encoding: 118 118 89
Width: 526
GlyphClass: 1
Flags: W
LayerCount: 2
Fore
SplineSet
285 0 m 1,0,-1
 504 520 l 1,1,-1
 461 520 l 1,2,-1
 264 47 l 1,3,-1
 67 520 l 1,4,-1
 22 520 l 1,5,-1
 241 0 l 1,6,-1
 285 0 l 1,0,-1
EndSplineSet
EndChar

StartChar: w
Encoding: 119 119 90
Width: 813
GlyphClass: 1
Flags: W
LayerCount: 2
Fore
SplineSet
26 520 m 1,0,-1
 211 0 l 1,1,-1
 254 0 l 1,2,-1
 406 458 l 1,3,-1
 558 0 l 1,4,-1
 602 0 l 1,5,-1
 786 520 l 1,6,-1
 741 520 l 1,7,-1
 579 56 l 1,8,-1
 428 520 l 1,9,-1
 385 520 l 1,10,-1
 234 56 l 1,11,-1
 71 520 l 1,12,-1
 26 520 l 1,0,-1
EndSplineSet
Substitution2: "'ss09' Style Set 9 lookup 37 subtable" w.ss09
Substitution2: "'aalt' Access All Alternates lookup 0 subtable" w.ss09
EndChar

StartChar: x
Encoding: 120 120 91
Width: 492
GlyphClass: 1
Flags: W
LayerCount: 2
Fore
SplineSet
18 520 m 1,0,-1
 221 259 l 1,1,-1
 19 0 l 1,2,-1
 69 0 l 1,3,-1
 238 218 l 1,4,-1
 246 231 l 1,5,-1
 254 218 l 1,6,-1
 424 0 l 1,7,-1
 474 0 l 1,8,-1
 272 259 l 1,9,-1
 475 520 l 1,10,-1
 425 520 l 1,11,-1
 254 300 l 1,12,-1
 246 287 l 1,13,-1
 238 300 l 1,14,-1
 67 520 l 1,15,-1
 18 520 l 1,0,-1
EndSplineSet
EndChar

StartChar: y
Encoding: 121 121 92
Width: 539
GlyphClass: 1
Flags: W
LayerCount: 2
Fore
SplineSet
473 520 m 1,0,-1
 274 43 l 1,1,-1
 63 520 l 1,2,-1
 17 520 l 1,3,-1
 252 0 l 1,4,-1
 164 -213 l 1,5,-1
 210 -213 l 1,6,-1
 516 520 l 1,7,-1
 473 520 l 1,0,-1
EndSplineSet
Substitution2: "'ss10' Style Set 10 lookup 38 subtable" y.ss10
Substitution2: "'aalt' Access All Alternates lookup 0 subtable" y.ss10
EndChar

StartChar: z
Encoding: 122 122 93
Width: 490
GlyphClass: 1
Flags: W
LayerCount: 2
Fore
SplineSet
32 0 m 1,0,-1
 453 0 l 1,1,-1
 453 35 l 1,2,-1
 83 35 l 1,3,-1
 455 488 l 1,4,-1
 455 520 l 1,5,-1
 38 520 l 1,6,-1
 38 485 l 1,7,-1
 406 485 l 1,8,-1
 32 32 l 1,9,-1
 32 0 l 1,0,-1
EndSplineSet
EndChar

StartChar: braceleft
Encoding: 123 123 94
Width: 243
GlyphClass: 1
Flags: W
LayerCount: 2
Fore
SplineSet
190 703 m 1,0,-1
 190 740 l 1,1,-1
 118 740 l 2,2,3
 114 740 114 740 104.5 735 c 128,-1,4
 95 730 95 730 95 710 c 2,5,-1
 95 427 l 2,6,7
 95 423 95 423 94 414.5 c 128,-1,8
 93 406 93 406 89 398 c 128,-1,9
 85 390 85 390 78.5 384 c 128,-1,10
 72 378 72 378 61 378 c 1,11,-1
 61 344 l 1,12,13
 79 341 79 341 87 325.5 c 128,-1,14
 95 310 95 310 95 293 c 2,15,-1
 95 -1 l 2,16,17
 95 -18 95 -18 102.5 -24.5 c 128,-1,18
 110 -31 110 -31 118 -31 c 2,19,-1
 190 -31 l 1,20,-1
 190 6 l 1,21,-1
 135 6 l 1,22,-1
 135 301 l 2,23,24
 135 309 135 309 131 327.5 c 128,-1,25
 127 346 127 346 111 360 c 1,26,27
 127 374 127 374 131 392.5 c 128,-1,28
 135 411 135 411 135 419 c 2,29,-1
 135 703 l 1,30,-1
 190 703 l 1,0,-1
EndSplineSet
EndChar

StartChar: bar
Encoding: 124 124 95
Width: 220
GlyphClass: 1
Flags: W
LayerCount: 2
Fore
SplineSet
129 -130 m 1,0,-1
 129 775 l 1,1,-1
 91 775 l 1,2,-1
 91 -130 l 1,3,-1
 129 -130 l 1,0,-1
EndSplineSet
EndChar

StartChar: braceright
Encoding: 125 125 96
Width: 243
GlyphClass: 1
Flags: W
LayerCount: 2
Fore
SplineSet
108 703 m 1,0,-1
 108 419 l 2,1,2
 108 411 108 411 112 392.5 c 128,-1,3
 116 374 116 374 132 360 c 1,4,5
 116 346 116 346 112 327.5 c 128,-1,6
 108 309 108 309 108 301 c 2,7,-1
 108 6 l 1,8,-1
 53 6 l 1,9,-1
 53 -31 l 1,10,-1
 125 -31 l 2,11,12
 133 -31 133 -31 140.5 -24.5 c 128,-1,13
 148 -18 148 -18 148 -1 c 2,14,-1
 148 293 l 2,15,16
 148 310 148 310 155.5 325.5 c 128,-1,17
 163 341 163 341 182 344 c 1,18,-1
 182 378 l 1,19,20
 172 378 172 378 165.5 384 c 128,-1,21
 159 390 159 390 155 398 c 128,-1,22
 151 406 151 406 149.5 414.5 c 128,-1,23
 148 423 148 423 148 427 c 2,24,-1
 148 710 l 2,25,26
 148 730 148 730 138.5 735 c 128,-1,27
 129 740 129 740 125 740 c 2,28,-1
 53 740 l 1,29,-1
 53 703 l 1,30,-1
 108 703 l 1,0,-1
EndSplineSet
EndChar

StartChar: asciitilde
Encoding: 126 126 97
Width: 485
GlyphClass: 1
Flags: W
LayerCount: 2
Fore
SplineSet
68 246 m 1,0,-1
 99 246 l 1,1,2
 99 247 99 247 102.5 256.5 c 128,-1,3
 106 266 106 266 114.5 277 c 128,-1,4
 123 288 123 288 135 297 c 128,-1,5
 147 306 147 306 163 306 c 0,6,7
 180 306 180 306 197 296.5 c 128,-1,8
 214 287 214 287 233 276 c 128,-1,9
 252 265 252 265 272.5 255.5 c 128,-1,10
 293 246 293 246 317 246 c 0,11,12
 346 246 346 246 365.5 259 c 128,-1,13
 385 272 385 272 396.5 287.5 c 128,-1,14
 408 303 408 303 413 316.5 c 128,-1,15
 418 330 418 330 418 331 c 1,16,-1
 387 331 l 1,17,18
 387 329 387 329 383.5 320.5 c 128,-1,19
 380 312 380 312 371 302.5 c 128,-1,20
 362 293 362 293 349 285.5 c 128,-1,21
 336 278 336 278 318 278 c 0,22,23
 297 278 297 278 278.5 287.5 c 128,-1,24
 260 297 260 297 241.5 308 c 128,-1,25
 223 319 223 319 204 328.5 c 128,-1,26
 185 338 185 338 163 338 c 0,27,28
 138 338 138 338 120 325 c 128,-1,29
 102 312 102 312 90 295.5 c 128,-1,30
 78 279 78 279 73 264.5 c 128,-1,31
 68 250 68 250 68 246 c 1,0,-1
EndSplineSet
EndChar

StartChar: exclamdown
Encoding: 161 161 99
Width: 239
GlyphClass: 1
Flags: W
LayerCount: 2
Fore
SplineSet
163 482 m 256,0,1
 163 491 163 491 159.5 499 c 128,-1,2
 156 507 156 507 150 513 c 128,-1,3
 144 519 144 519 136.5 522.5 c 128,-1,4
 129 526 129 526 120 526 c 256,5,6
 111 526 111 526 103 522.5 c 128,-1,7
 95 519 95 519 89 513 c 128,-1,8
 83 507 83 507 79.5 499.5 c 128,-1,9
 76 492 76 492 76 482 c 0,10,11
 76 473 76 473 79.5 465.5 c 128,-1,12
 83 458 83 458 89 452.5 c 128,-1,13
 95 447 95 447 102.5 443.5 c 128,-1,14
 110 440 110 440 120 440 c 0,15,16
 129 440 129 440 137 443.5 c 128,-1,17
 145 447 145 447 150.5 452.5 c 128,-1,18
 156 458 156 458 159.5 465.5 c 128,-1,19
 163 473 163 473 163 482 c 256,0,1
103 306 m 1,20,-1
 98 86 l 1,21,-1
 98 -198 l 1,22,-1
 141 -198 l 1,23,-1
 141 86 l 1,24,-1
 136 306 l 1,25,-1
 103 306 l 1,20,-1
EndSplineSet
EndChar

StartChar: cent
Encoding: 162 162 100
Width: 551
GlyphClass: 1
Flags: W
LayerCount: 2
Fore
SplineSet
304 -120 m 1,0,-1
 304 -10 l 1,1,2
 332 -10 332 -10 363.5 -2 c 128,-1,3
 395 6 395 6 424 22 c 128,-1,4
 453 38 453 38 475.5 61.5 c 128,-1,5
 498 85 498 85 509 116 c 1,6,-1
 467 128 l 1,7,8
 462 106 462 106 443.5 88 c 128,-1,9
 425 70 425 70 401.5 57.5 c 128,-1,10
 378 45 378 45 352 37.5 c 128,-1,11
 326 30 326 30 304 29 c 1,12,-1
 304 489 l 1,13,14
 354 487 354 487 394.5 464.5 c 128,-1,15
 435 442 435 442 461 395 c 1,16,-1
 502 409 l 1,17,18
 476 461 476 461 428 493.5 c 128,-1,19
 380 526 380 526 304 528 c 1,20,-1
 304 645 l 1,21,-1
 276 645 l 1,22,-1
 276 528 l 1,23,24
 224 524 224 524 181 500.5 c 128,-1,25
 138 477 138 477 108 440 c 128,-1,26
 78 403 78 403 61.5 356 c 128,-1,27
 45 309 45 309 45 258 c 0,28,29
 45 210 45 210 62 164 c 128,-1,30
 79 118 79 118 109.5 81 c 128,-1,31
 140 44 140 44 182.5 19.5 c 128,-1,32
 225 -5 225 -5 276 -9 c 1,33,-1
 276 -120 l 1,34,-1
 304 -120 l 1,0,-1
88 258 m 0,35,36
 88 298 88 298 100.5 337.5 c 128,-1,37
 113 377 113 377 137 409.5 c 128,-1,38
 161 442 161 442 196 463 c 128,-1,39
 231 484 231 484 276 488 c 1,40,-1
 276 31 l 1,41,42
 236 36 236 36 201.5 56.5 c 128,-1,43
 167 77 167 77 141.5 107.5 c 128,-1,44
 116 138 116 138 102 177 c 128,-1,45
 88 216 88 216 88 258 c 0,35,36
EndSplineSet
EndChar

StartChar: sterling
Encoding: 163 163 101
Width: 482
GlyphClass: 1
Flags: W
LayerCount: 2
Fore
SplineSet
50 333 m 1,0,-1
 370 333 l 1,1,-1
 370 369 l 1,2,-1
 50 369 l 1,3,-1
 50 333 l 1,0,-1
69 -7 m 1,4,5
 92 -1 92 -1 119.5 3 c 128,-1,6
 147 7 147 7 170 7 c 256,7,8
 193 7 193 7 212.5 3.5 c 128,-1,9
 232 0 232 0 250.5 -4 c 128,-1,10
 269 -8 269 -8 288 -11.5 c 128,-1,11
 307 -15 307 -15 329 -15 c 0,12,13
 356 -15 356 -15 382.5 -9 c 128,-1,14
 409 -3 409 -3 437 9 c 1,15,-1
 425 44 l 1,16,17
 396 33 396 33 374 28.5 c 128,-1,18
 352 24 352 24 331 24 c 0,19,20
 312 24 312 24 295.5 27 c 128,-1,21
 279 30 279 30 262 33.5 c 128,-1,22
 245 37 245 37 226.5 40 c 128,-1,23
 208 43 208 43 186 43 c 0,24,25
 168 43 168 43 150 41 c 128,-1,26
 132 39 132 39 114 35 c 1,27,28
 145 69 145 69 166 97 c 128,-1,29
 187 125 187 125 200.5 150 c 128,-1,30
 214 175 214 175 219.5 199 c 128,-1,31
 225 223 225 223 225 249 c 0,32,33
 225 299 225 299 208.5 337.5 c 128,-1,34
 192 376 192 376 172.5 410.5 c 128,-1,35
 153 445 153 445 136.5 477.5 c 128,-1,36
 120 510 120 510 120 546 c 0,37,38
 120 574 120 574 130 598 c 128,-1,39
 140 622 140 622 157.5 639.5 c 128,-1,40
 175 657 175 657 198.5 667 c 128,-1,41
 222 677 222 677 248 677 c 0,42,43
 291 677 291 677 330 652 c 128,-1,44
 369 627 369 627 393 584 c 1,45,-1
 421 610 l 1,46,47
 393 658 393 658 347.5 686.5 c 128,-1,48
 302 715 302 715 250 715 c 0,49,50
 215 715 215 715 183.5 702 c 128,-1,51
 152 689 152 689 129 666 c 128,-1,52
 106 643 106 643 92 612.5 c 128,-1,53
 78 582 78 582 78 547 c 0,54,55
 78 507 78 507 95 473 c 128,-1,56
 112 439 112 439 132 405 c 128,-1,57
 152 371 152 371 168.5 333 c 128,-1,58
 185 295 185 295 185 247 c 0,59,60
 185 223 185 223 179 199.5 c 128,-1,61
 173 176 173 176 158 150 c 128,-1,62
 143 124 143 124 118 94 c 128,-1,63
 93 64 93 64 55 25 c 1,64,-1
 69 -7 l 1,4,5
EndSplineSet
EndChar

StartChar: currency
Encoding: 164 164 102
Width: 535
GlyphClass: 1
Flags: W
LayerCount: 2
Fore
SplineSet
82 542 m 1,0,-1
 59 519 l 1,1,-1
 128 450 l 1,2,3
 109 426 109 426 99 397 c 128,-1,4
 89 368 89 368 89 336 c 0,5,6
 89 303 89 303 99.5 274 c 128,-1,7
 110 245 110 245 129 221 c 1,8,-1
 59 151 l 1,9,-1
 81 130 l 1,10,-1
 151 198 l 1,11,12
 174 178 174 178 203 167 c 128,-1,13
 232 156 232 156 266 156 c 0,14,15
 301 156 301 156 330.5 167.5 c 128,-1,16
 360 179 360 179 383 200 c 1,17,-1
 456 130 l 1,18,-1
 478 151 l 1,19,-1
 405 222 l 1,20,21
 424 246 424 246 434.5 275 c 128,-1,22
 445 304 445 304 445 336 c 0,23,24
 445 367 445 367 435 396 c 128,-1,25
 425 425 425 425 407 448 c 1,26,-1
 478 519 l 1,27,-1
 454 542 l 1,28,-1
 384 472 l 1,29,30
 361 493 361 493 331 505 c 128,-1,31
 301 517 301 517 266 517 c 0,32,33
 232 517 232 517 202.5 505.5 c 128,-1,34
 173 494 173 494 151 473 c 1,35,-1
 82 542 l 1,0,-1
127 335 m 256,36,37
 127 366 127 366 138 393 c 128,-1,38
 149 420 149 420 168 440.5 c 128,-1,39
 187 461 187 461 212.5 472.5 c 128,-1,40
 238 484 238 484 266 484 c 0,41,42
 295 484 295 484 321 472.5 c 128,-1,43
 347 461 347 461 366 441 c 128,-1,44
 385 421 385 421 396 394 c 128,-1,45
 407 367 407 367 407 337 c 0,46,47
 407 306 407 306 396 279 c 128,-1,48
 385 252 385 252 366 232 c 128,-1,49
 347 212 347 212 321 200 c 128,-1,50
 295 188 295 188 266 188 c 0,51,52
 238 188 238 188 212.5 199.5 c 128,-1,53
 187 211 187 211 168 231 c 128,-1,54
 149 251 149 251 138 277.5 c 128,-1,55
 127 304 127 304 127 335 c 256,36,37
EndSplineSet
EndChar

StartChar: yen
Encoding: 165 165 103
Width: 663
GlyphClass: 1
Flags: W
LayerCount: 2
Fore
SplineSet
635 710 m 1,0,-1
 586 710 l 1,1,-1
 331 312 l 1,2,-1
 76 710 l 1,3,-1
 28 710 l 1,4,-1
 260 353 l 1,5,-1
 169 353 l 1,6,-1
 169 320 l 1,7,-1
 279 320 l 1,8,-1
 309 272 l 1,9,-1
 309 244 l 1,10,-1
 169 244 l 1,11,-1
 169 211 l 1,12,-1
 309 211 l 1,13,-1
 309 0 l 1,14,-1
 352 0 l 1,15,-1
 352 211 l 1,16,-1
 493 211 l 1,17,-1
 493 244 l 1,18,-1
 352 244 l 1,19,-1
 352 270 l 1,20,-1
 384 320 l 1,21,-1
 493 320 l 1,22,-1
 493 353 l 1,23,-1
 404 353 l 1,24,-1
 635 710 l 1,0,-1
EndSplineSet
EndChar

StartChar: brokenbar
Encoding: 166 166 104
Width: 223
GlyphClass: 1
Flags: W
LayerCount: 2
Fore
SplineSet
92 281 m 1,0,-1
 92 -130 l 1,1,-1
 131 -130 l 1,2,-1
 131 281 l 1,3,-1
 92 281 l 1,0,-1
92 775 m 1,4,-1
 92 364 l 1,5,-1
 131 364 l 1,6,-1
 131 775 l 1,7,-1
 92 775 l 1,4,-1
EndSplineSet
EndChar

StartChar: section
Encoding: 167 167 105
Width: 493
GlyphClass: 1
Flags: W
LayerCount: 2
Fore
SplineSet
400 188 m 1,0,1
 415 203 415 203 424.5 228.5 c 128,-1,2
 434 254 434 254 434 283 c 0,3,4
 434 324 434 324 417 352.5 c 128,-1,5
 400 381 400 381 372 399 c 128,-1,6
 344 417 344 417 309 425.5 c 128,-1,7
 274 434 274 434 239 434 c 0,8,9
 207 434 207 434 179.5 440 c 128,-1,10
 152 446 152 446 132 460 c 128,-1,11
 112 474 112 474 100.5 496.5 c 128,-1,12
 89 519 89 519 89 551 c 0,13,14
 89 580 89 580 102 603 c 128,-1,15
 115 626 115 626 136 642 c 128,-1,16
 157 658 157 658 184 666.5 c 128,-1,17
 211 675 211 675 237 675 c 0,18,19
 256 675 256 675 276.5 672.5 c 128,-1,20
 297 670 297 670 315.5 663 c 128,-1,21
 334 656 334 656 350 644.5 c 128,-1,22
 366 633 366 633 375 614 c 1,23,-1
 410 630 l 1,24,25
 398 648 398 648 382.5 663.5 c 128,-1,26
 367 679 367 679 346 690.5 c 128,-1,27
 325 702 325 702 298 708.5 c 128,-1,28
 271 715 271 715 236 715 c 0,29,30
 202 715 202 715 168 703.5 c 128,-1,31
 134 692 134 692 107 671 c 128,-1,32
 80 650 80 650 63 619.5 c 128,-1,33
 46 589 46 589 46 551 c 0,34,35
 46 510 46 510 61.5 478.5 c 128,-1,36
 77 447 77 447 102 431 c 1,37,38
 89 416 89 416 80.5 392 c 128,-1,39
 72 368 72 368 72 341 c 0,40,41
 72 302 72 302 87 273 c 128,-1,42
 102 244 102 244 127.5 225 c 128,-1,43
 153 206 153 206 188 196 c 128,-1,44
 223 186 223 186 263 185 c 0,45,46
 289 184 289 184 314.5 179.5 c 128,-1,47
 340 175 340 175 360.5 164 c 128,-1,48
 381 153 381 153 394 133 c 128,-1,49
 407 113 407 113 407 81 c 0,50,51
 407 51 407 51 393.5 27 c 128,-1,52
 380 3 380 3 358.5 -13.5 c 128,-1,53
 337 -30 337 -30 310 -38.5 c 128,-1,54
 283 -47 283 -47 256 -47 c 0,55,56
 209 -47 209 -47 170.5 -29.5 c 128,-1,57
 132 -12 132 -12 93 25 c 1,58,-1
 64 -2 l 1,59,60
 80 -18 80 -18 99.5 -33.5 c 128,-1,61
 119 -49 119 -49 143 -61 c 128,-1,62
 167 -73 167 -73 195.5 -80.5 c 128,-1,63
 224 -88 224 -88 257 -88 c 256,64,65
 290 -88 290 -88 324 -77.5 c 128,-1,66
 358 -67 358 -67 386 -45.5 c 128,-1,67
 414 -24 414 -24 432 8 c 128,-1,68
 450 40 450 40 450 82 c 0,69,70
 450 120 450 120 438 146 c 128,-1,71
 426 172 426 172 400 188 c 1,0,1
114 337 m 0,72,73
 114 359 114 359 122 380 c 128,-1,74
 130 401 130 401 142 413 c 1,75,76
 162 405 162 405 187.5 400.5 c 128,-1,77
 213 396 213 396 240 396 c 0,78,79
 265 396 265 396 292 390.5 c 128,-1,80
 319 385 319 385 341.5 372 c 128,-1,81
 364 359 364 359 378.5 337 c 128,-1,82
 393 315 393 315 393 283 c 0,83,84
 393 259 393 259 384 236.5 c 128,-1,85
 375 214 375 214 359 202 c 1,86,87
 340 210 340 210 314.5 212.5 c 128,-1,88
 289 215 289 215 261.5 218 c 128,-1,89
 234 221 234 221 208 226.5 c 128,-1,90
 182 232 182 232 161 244.5 c 128,-1,91
 140 257 140 257 127 279 c 128,-1,92
 114 301 114 301 114 337 c 0,72,73
EndSplineSet
EndChar

StartChar: copyright
Encoding: 169 169 107
Width: 828
GlyphClass: 1
Flags: W
LayerCount: 2
Fore
SplineSet
413 -7 m 0,0,1
 492 -7 492 -7 559 20.5 c 128,-1,2
 626 48 626 48 674.5 96.5 c 128,-1,3
 723 145 723 145 750.5 211 c 128,-1,4
 778 277 778 277 778 355 c 0,5,6
 778 432 778 432 750.5 498 c 128,-1,7
 723 564 723 564 674.5 612 c 128,-1,8
 626 660 626 660 559 687.5 c 128,-1,9
 492 715 492 715 413 715 c 0,10,11
 335 715 335 715 268.5 687.5 c 128,-1,12
 202 660 202 660 153.5 612 c 128,-1,13
 105 564 105 564 77.5 498 c 128,-1,14
 50 432 50 432 50 355 c 0,15,16
 50 277 50 277 77.5 211 c 128,-1,17
 105 145 105 145 153.5 96.5 c 128,-1,18
 202 48 202 48 268.5 20.5 c 128,-1,19
 335 -7 335 -7 413 -7 c 0,0,1
414 21 m 0,20,21
 342 21 342 21 280.5 46.5 c 128,-1,22
 219 72 219 72 174 116.5 c 128,-1,23
 129 161 129 161 104 222 c 128,-1,24
 79 283 79 283 79 354 c 0,25,26
 79 426 79 426 104 486.5 c 128,-1,27
 129 547 129 547 174.5 592 c 128,-1,28
 220 637 220 637 281 662 c 128,-1,29
 342 687 342 687 414 687 c 256,30,31
 486 687 486 687 547.5 662 c 128,-1,32
 609 637 609 637 653.5 592 c 128,-1,33
 698 547 698 547 723.5 485.5 c 128,-1,34
 749 424 749 424 749 352 c 0,35,36
 749 279 749 279 723 218 c 128,-1,37
 697 157 697 157 652 113 c 128,-1,38
 607 69 607 69 546 45 c 128,-1,39
 485 21 485 21 414 21 c 0,20,21
421 125 m 0,40,41
 457 125 457 125 488 136.5 c 128,-1,42
 519 148 519 148 543 164.5 c 128,-1,43
 567 181 567 181 582 200.5 c 128,-1,44
 597 220 597 220 603 236 c 1,45,-1
 562 248 l 1,46,47
 553 228 553 228 537 212.5 c 128,-1,48
 521 197 521 197 501 186.5 c 128,-1,49
 481 176 481 176 459 170 c 128,-1,50
 437 164 437 164 417 164 c 0,51,52
 387 164 387 164 355.5 176.5 c 128,-1,53
 324 189 324 189 298 213.5 c 128,-1,54
 272 238 272 238 255 273.5 c 128,-1,55
 238 309 238 309 238 355 c 0,56,57
 238 389 238 389 249 423.5 c 128,-1,58
 260 458 260 458 281 486 c 128,-1,59
 302 514 302 514 335.5 531.5 c 128,-1,60
 369 549 369 549 414 549 c 0,61,62
 430 549 430 549 449.5 546 c 128,-1,63
 469 543 469 543 488.5 534 c 128,-1,64
 508 525 508 525 525 509.5 c 128,-1,65
 542 494 542 494 553 469 c 1,66,-1
 594 483 l 1,67,68
 573 535 573 535 523.5 561 c 128,-1,69
 474 587 474 587 414 587 c 0,70,71
 357 587 357 587 316 566.5 c 128,-1,72
 275 546 275 546 248 512.5 c 128,-1,73
 221 479 221 479 208 437.5 c 128,-1,74
 195 396 195 396 195 355 c 0,75,76
 195 302 195 302 214.5 259 c 128,-1,77
 234 216 234 216 266 186 c 128,-1,78
 298 156 298 156 338.5 140.5 c 128,-1,79
 379 125 379 125 421 125 c 0,40,41
EndSplineSet
EndChar

StartChar: ordfeminine
Encoding: 170 170 108
Width: 429
GlyphClass: 1
Flags: W
LayerCount: 2
Fore
SplineSet
168 349 m 0,0,1
 212 349 212 349 250 365.5 c 128,-1,2
 288 382 288 382 313 414 c 1,3,-1
 314 354 l 1,4,-1
 352 354 l 1,5,-1
 352 571 l 2,6,7
 352 637 352 637 313.5 673.5 c 128,-1,8
 275 710 275 710 207 710 c 0,9,10
 174 710 174 710 141 698.5 c 128,-1,11
 108 687 108 687 73 664 c 1,12,-1
 89 635 l 1,13,14
 120 655 120 655 148.5 665.5 c 128,-1,15
 177 676 177 676 204 676 c 0,16,17
 252 676 252 676 280 649 c 128,-1,18
 308 622 308 622 308 576 c 2,19,-1
 308 544 l 1,20,21
 285 553 285 553 256.5 557.5 c 128,-1,22
 228 562 228 562 199 562 c 0,23,24
 133 562 133 562 91.5 533 c 128,-1,25
 50 504 50 504 50 457 c 0,26,27
 50 434 50 434 59 414 c 128,-1,28
 68 394 68 394 84 380 c 128,-1,29
 100 366 100 366 121.5 357.5 c 128,-1,30
 143 349 143 349 168 349 c 0,0,1
179 384 m 0,31,32
 142 384 142 384 117 405.5 c 128,-1,33
 92 427 92 427 92 460 c 256,34,35
 92 493 92 493 123.5 513 c 128,-1,36
 155 533 155 533 206 533 c 0,37,38
 232 533 232 533 258 529 c 128,-1,39
 284 525 284 525 308 515 c 1,40,-1
 308 458 l 2,41,42
 308 452 308 452 305 445 c 128,-1,43
 302 438 302 438 296 432 c 0,44,45
 279 410 279 410 248 397 c 128,-1,46
 217 384 217 384 179 384 c 0,31,32
EndSplineSet
EndChar

StartChar: guillemotleft
Encoding: 171 171 109
Width: 544
GlyphClass: 1
Flags: W
LayerCount: 2
Fore
SplineSet
41 245 m 1,0,-1
 284 73 l 1,1,-1
 284 113 l 1,2,-1
 78 259 l 1,3,-1
 284 406 l 1,4,-1
 284 445 l 1,5,-1
 41 272 l 1,6,-1
 41 245 l 1,0,-1
235 245 m 1,7,-1
 478 73 l 1,8,-1
 478 113 l 1,9,-1
 272 259 l 1,10,-1
 478 406 l 1,11,-1
 478 445 l 1,12,-1
 235 272 l 1,13,-1
 235 245 l 1,7,-1
EndSplineSet
EndChar

StartChar: logicalnot
Encoding: 172 172 110
Width: 571
GlyphClass: 1
Flags: W
LayerCount: 2
Fore
SplineSet
80 350 m 1,0,-1
 80 310 l 1,1,-1
 462 310 l 1,2,-1
 462 133 l 1,3,-1
 500 133 l 1,4,-1
 500 350 l 1,5,-1
 80 350 l 1,0,-1
EndSplineSet
EndChar

StartChar: uni00AD
Encoding: 173 173 111
Width: 555
GlyphClass: 1
Flags: W
LayerCount: 2
Fore
SplineSet
487 252 m 1,0,-1
 487 292 l 1,1,-1
 67 292 l 1,2,-1
 67 252 l 1,3,-1
 487 252 l 1,0,-1
EndSplineSet
EndChar

StartChar: registered
Encoding: 174 174 112
Width: 828
GlyphClass: 1
Flags: W
LayerCount: 2
Fore
SplineSet
414 -7 m 0,0,1
 492 -7 492 -7 559 20.5 c 128,-1,2
 626 48 626 48 674.5 96.5 c 128,-1,3
 723 145 723 145 750.5 211 c 128,-1,4
 778 277 778 277 778 355 c 0,5,6
 778 432 778 432 750.5 498 c 128,-1,7
 723 564 723 564 674.5 612 c 128,-1,8
 626 660 626 660 559 687.5 c 128,-1,9
 492 715 492 715 414 715 c 0,10,11
 335 715 335 715 268.5 687.5 c 128,-1,12
 202 660 202 660 153.5 612 c 128,-1,13
 105 564 105 564 77.5 498 c 128,-1,14
 50 432 50 432 50 355 c 0,15,16
 50 277 50 277 77.5 211 c 128,-1,17
 105 145 105 145 153.5 96.5 c 128,-1,18
 202 48 202 48 268.5 20.5 c 128,-1,19
 335 -7 335 -7 414 -7 c 0,0,1
414 21 m 0,20,21
 342 21 342 21 280.5 46.5 c 128,-1,22
 219 72 219 72 174.5 116.5 c 128,-1,23
 130 161 130 161 105 222.5 c 128,-1,24
 80 284 80 284 80 355 c 256,25,26
 80 426 80 426 105 486.5 c 128,-1,27
 130 547 130 547 174.5 591.5 c 128,-1,28
 219 636 219 636 280.5 661.5 c 128,-1,29
 342 687 342 687 414 687 c 256,30,31
 486 687 486 687 547 661.5 c 128,-1,32
 608 636 608 636 653 591.5 c 128,-1,33
 698 547 698 547 723 486.5 c 128,-1,34
 748 426 748 426 748 355 c 0,35,36
 748 280 748 280 722.5 218.5 c 128,-1,37
 697 157 697 157 652 113 c 128,-1,38
 607 69 607 69 545.5 45 c 128,-1,39
 484 21 484 21 414 21 c 0,20,21
265 124 m 1,40,-1
 301 124 l 1,41,-1
 301 299 l 1,42,-1
 439 299 l 1,43,-1
 550 124 l 1,44,-1
 590 124 l 1,45,-1
 476 303 l 1,46,47
 500 306 500 306 521 318 c 128,-1,48
 542 330 542 330 556.5 348.5 c 128,-1,49
 571 367 571 367 579 391 c 128,-1,50
 587 415 587 415 587 440 c 0,51,52
 587 466 587 466 577 491.5 c 128,-1,53
 567 517 567 517 549.5 537 c 128,-1,54
 532 557 532 557 508 569.5 c 128,-1,55
 484 582 484 582 455 582 c 2,56,-1
 265 582 l 1,57,-1
 265 124 l 1,40,-1
301 332 m 1,58,-1
 301 548 l 1,59,-1
 453 548 l 2,60,61
 474 548 474 548 492.5 539.5 c 128,-1,62
 511 531 511 531 524 516.5 c 128,-1,63
 537 502 537 502 544.5 482.5 c 128,-1,64
 552 463 552 463 552 440 c 0,65,66
 552 418 552 418 546 398.5 c 128,-1,67
 540 379 540 379 528 364 c 128,-1,68
 516 349 516 349 498 340.5 c 128,-1,69
 480 332 480 332 457 332 c 2,70,-1
 301 332 l 1,58,-1
EndSplineSet
EndChar

StartChar: degree
Encoding: 176 176 114
Width: 259
GlyphClass: 1
Flags: W
LayerCount: 2
Fore
SplineSet
54 649 m 256,0,1
 54 617 54 617 75.5 595 c 128,-1,2
 97 573 97 573 129 573 c 0,3,4
 162 573 162 573 183.5 594.5 c 128,-1,5
 205 616 205 616 205 649 c 0,6,7
 205 681 205 681 183.5 702.5 c 128,-1,8
 162 724 162 724 129 724 c 0,9,10
 97 724 97 724 75.5 702.5 c 128,-1,11
 54 681 54 681 54 649 c 256,0,1
96 682 m 0,12,13
 103 688 103 688 111 691.5 c 128,-1,14
 119 695 119 695 129 695 c 256,15,16
 139 695 139 695 147.5 691.5 c 128,-1,17
 156 688 156 688 162 682 c 0,18,19
 168 675 168 675 172 666.5 c 128,-1,20
 176 658 176 658 176 648 c 0,21,22
 176 639 176 639 172 630 c 128,-1,23
 168 621 168 621 163 616 c 0,24,25
 156 609 156 609 147.5 605.5 c 128,-1,26
 139 602 139 602 129 602 c 256,27,28
 119 602 119 602 111 605.5 c 128,-1,29
 103 609 103 609 96 616 c 0,30,31
 90 622 90 622 86.5 630.5 c 128,-1,32
 83 639 83 639 83 648 c 0,33,34
 83 659 83 659 86.5 667 c 128,-1,35
 90 675 90 675 96 682 c 0,12,13
EndSplineSet
EndChar

StartChar: plusminus
Encoding: 177 177 115
Width: 469
GlyphClass: 1
Flags: W
LayerCount: 2
Fore
SplineSet
390 74 m 1,0,-1
 390 111 l 1,1,-1
 79 111 l 1,2,-1
 79 74 l 1,3,-1
 390 74 l 1,0,-1
254 378 m 1,4,-1
 254 523 l 1,5,-1
 214 523 l 1,6,-1
 214 378 l 1,7,-1
 79 378 l 1,8,-1
 79 341 l 1,9,-1
 214 341 l 1,10,-1
 214 195 l 1,11,-1
 254 195 l 1,12,-1
 254 341 l 1,13,-1
 390 341 l 1,14,-1
 390 378 l 1,15,-1
 254 378 l 1,4,-1
EndSplineSet
EndChar

StartChar: twosuperior
Encoding: 178 178 116
Width: 378
GlyphClass: 1
Flags: W
LayerCount: 2
Fore
SplineSet
334 415 m 1,0,-1
 334 446 l 1,1,-1
 77 446 l 1,2,3
 77 460 77 460 81.5 477.5 c 128,-1,4
 86 495 86 495 98 512.5 c 128,-1,5
 110 530 110 530 133 546.5 c 128,-1,6
 156 563 156 563 192 575 c 0,7,8
 213 582 213 582 238 590.5 c 128,-1,9
 263 599 263 599 284.5 612.5 c 128,-1,10
 306 626 306 626 321 646.5 c 128,-1,11
 336 667 336 667 336 697 c 0,12,13
 336 720 336 720 327.5 741 c 128,-1,14
 319 762 319 762 301.5 777.5 c 128,-1,15
 284 793 284 793 258.5 802 c 128,-1,16
 233 811 233 811 197 811 c 256,17,18
 161 811 161 811 133 801.5 c 128,-1,19
 105 792 105 792 85.5 780.5 c 128,-1,20
 66 769 66 769 55.5 758 c 128,-1,21
 45 747 45 747 43 744 c 2,22,-1
 65 723 l 1,23,24
 71 731 71 731 82.5 741 c 128,-1,25
 94 751 94 751 110 759.5 c 128,-1,26
 126 768 126 768 146.5 774 c 128,-1,27
 167 780 167 780 193 780 c 0,28,29
 248 780 248 780 274.5 755.5 c 128,-1,30
 301 731 301 731 301 698 c 0,31,32
 301 674 301 674 288 657.5 c 128,-1,33
 275 641 275 641 254.5 629.5 c 128,-1,34
 234 618 234 618 209.5 610 c 128,-1,35
 185 602 185 602 162 593 c 0,36,37
 133 582 133 582 109.5 567 c 128,-1,38
 86 552 86 552 70 531 c 128,-1,39
 54 510 54 510 46 481.5 c 128,-1,40
 38 453 38 453 38 415 c 1,41,-1
 334 415 l 1,0,-1
EndSplineSet
EndChar

StartChar: threesuperior
Encoding: 179 179 117
Width: 385
GlyphClass: 1
Flags: W
LayerCount: 2
Fore
SplineSet
190 410 m 0,0,1
 222 410 222 410 249.5 417.5 c 128,-1,2
 277 425 277 425 298 438.5 c 128,-1,3
 319 452 319 452 331.5 472 c 128,-1,4
 344 492 344 492 344 516 c 0,5,6
 344 553 344 553 316.5 580.5 c 128,-1,7
 289 608 289 608 242 616 c 1,8,9
 287 625 287 625 309.5 647 c 128,-1,10
 332 669 332 669 332 703 c 0,11,12
 332 726 332 726 320.5 745.5 c 128,-1,13
 309 765 309 765 289.5 780 c 128,-1,14
 270 795 270 795 243 803 c 128,-1,15
 216 811 216 811 184 811 c 0,16,17
 160 811 160 811 138.5 806.5 c 128,-1,18
 117 802 117 802 98.5 793.5 c 128,-1,19
 80 785 80 785 66 773 c 128,-1,20
 52 761 52 761 44 746 c 1,21,-1
 66 724 l 1,22,23
 80 749 80 749 111 765.5 c 128,-1,24
 142 782 142 782 184 782 c 0,25,26
 208 782 208 782 229 776 c 128,-1,27
 250 770 250 770 265.5 759.5 c 128,-1,28
 281 749 281 749 289.5 734.5 c 128,-1,29
 298 720 298 720 298 701 c 0,30,31
 298 665 298 665 263 647 c 128,-1,32
 228 629 228 629 163 629 c 2,33,-1
 140 629 l 1,34,-1
 140 600 l 1,35,-1
 163 600 l 2,36,37
 230 600 230 600 271 578.5 c 128,-1,38
 312 557 312 557 312 520 c 0,39,40
 312 485 312 485 276.5 463 c 128,-1,41
 241 441 241 441 190 441 c 0,42,43
 163 441 163 441 139.5 448 c 128,-1,44
 116 455 116 455 98.5 466 c 128,-1,45
 81 477 81 477 71 491 c 128,-1,46
 61 505 61 505 59 520 c 1,47,-1
 38 503 l 1,48,49
 43 461 43 461 85 435.5 c 128,-1,50
 127 410 127 410 190 410 c 0,0,1
EndSplineSet
EndChar

StartChar: uni00B5
Encoding: 181 181 119
Width: 611
GlyphClass: 1
Flags: W
LayerCount: 2
Fore
SplineSet
87 -212 m 1,0,-1
 129 -212 l 1,1,-1
 128 85 l 1,2,3
 136 62 136 62 148.5 44.5 c 128,-1,4
 161 27 161 27 178 15 c 128,-1,5
 195 3 195 3 216.5 -3.5 c 128,-1,6
 238 -10 238 -10 263 -10 c 0,7,8
 297 -10 297 -10 328.5 0 c 128,-1,9
 360 10 360 10 387.5 28 c 128,-1,10
 415 46 415 46 438 70.5 c 128,-1,11
 461 95 461 95 477 125 c 1,12,-1
 483 0 l 1,13,-1
 515 0 l 1,14,-1
 515 520 l 1,15,-1
 473 520 l 1,16,-1
 473 191 l 1,17,18
 461 155 461 155 440 125 c 128,-1,19
 419 95 419 95 391.5 74 c 128,-1,20
 364 53 364 53 331.5 41 c 128,-1,21
 299 29 299 29 265 29 c 0,22,23
 196 29 196 29 162.5 77.5 c 128,-1,24
 129 126 129 126 129 227 c 2,25,-1
 129 520 l 1,26,-1
 87 520 l 1,27,-1
 87 -212 l 1,0,-1
EndSplineSet
EndChar

StartChar: paragraph
Encoding: 182 182 120
Width: 583
GlyphClass: 1
Flags: W
LayerCount: 2
Fore
SplineSet
33 474 m 0,0,1
 33 420 33 420 52 377 c 128,-1,2
 71 334 71 334 106 304 c 128,-1,3
 141 274 141 274 191 257.5 c 128,-1,4
 241 241 241 241 304 240 c 1,5,-1
 304 -80 l 1,6,-1
 343 -80 l 1,7,-1
 343 240 l 1,8,-1
 426 240 l 1,9,-1
 426 -80 l 1,10,-1
 465 -80 l 1,11,-1
 465 674 l 1,12,-1
 535 674 l 1,13,-1
 535 710 l 1,14,-1
 315 710 l 2,15,16
 181 710 181 710 107 647.5 c 128,-1,17
 33 585 33 585 33 474 c 0,0,1
71 475 m 0,18,19
 71 568 71 568 131 620.5 c 128,-1,20
 191 673 191 673 304 674 c 1,21,-1
 304 276 l 1,22,23
 257 278 257 278 215 290 c 128,-1,24
 173 302 173 302 141 326.5 c 128,-1,25
 109 351 109 351 90 387.5 c 128,-1,26
 71 424 71 424 71 475 c 0,18,19
426 276 m 1,27,-1
 343 276 l 1,28,-1
 343 674 l 1,29,-1
 426 674 l 1,30,-1
 426 276 l 1,27,-1
EndSplineSet
EndChar

StartChar: onesuperior
Encoding: 185 185 123
Width: 261
GlyphClass: 1
Flags: W
LayerCount: 2
Fore
SplineSet
163 446 m 1,0,-1
 163 811 l 1,1,-1
 131 811 l 2,2,3
 130 810 130 810 121 801.5 c 128,-1,4
 112 793 112 793 98 783 c 128,-1,5
 84 773 84 773 67.5 764.5 c 128,-1,6
 51 756 51 756 35 756 c 1,7,-1
 35 725 l 1,8,9
 47 725 47 725 61.5 730.5 c 128,-1,10
 76 736 76 736 89.5 743 c 128,-1,11
 103 750 103 750 114.5 758.5 c 128,-1,12
 126 767 126 767 131 773 c 1,13,-1
 131 446 l 1,14,-1
 49 446 l 1,15,-1
 49 415 l 1,16,-1
 240 415 l 1,17,-1
 240 446 l 1,18,-1
 163 446 l 1,0,-1
EndSplineSet
EndChar

StartChar: ordmasculine
Encoding: 186 186 124
Width: 449
GlyphClass: 1
Flags: W
LayerCount: 2
Fore
SplineSet
224 349 m 0,0,1
 263 349 263 349 295.5 363.5 c 128,-1,2
 328 378 328 378 352 402.5 c 128,-1,3
 376 427 376 427 389.5 459.5 c 128,-1,4
 403 492 403 492 403 528 c 0,5,6
 403 566 403 566 389.5 598.5 c 128,-1,7
 376 631 376 631 352 656 c 128,-1,8
 328 681 328 681 295 695.5 c 128,-1,9
 262 710 262 710 224 710 c 256,10,11
 186 710 186 710 153.5 695.5 c 128,-1,12
 121 681 121 681 97 656 c 128,-1,13
 73 631 73 631 60 598.5 c 128,-1,14
 47 566 47 566 47 528 c 0,15,16
 47 492 47 492 60 459.5 c 128,-1,17
 73 427 73 427 97 402.5 c 128,-1,18
 121 378 121 378 153.5 363.5 c 128,-1,19
 186 349 186 349 224 349 c 0,0,1
85 527 m 0,20,21
 85 558 85 558 96 585 c 128,-1,22
 107 612 107 612 126 632.5 c 128,-1,23
 145 653 145 653 170.5 664.5 c 128,-1,24
 196 676 196 676 224 676 c 0,25,26
 253 676 253 676 278.5 664.5 c 128,-1,27
 304 653 304 653 323 633 c 128,-1,28
 342 613 342 613 353 586.5 c 128,-1,29
 364 560 364 560 364 529 c 0,30,31
 364 499 364 499 353 472 c 128,-1,32
 342 445 342 445 323 425 c 128,-1,33
 304 405 304 405 278.5 393.5 c 128,-1,34
 253 382 253 382 224 382 c 0,35,36
 196 382 196 382 170.5 393.5 c 128,-1,37
 145 405 145 405 126 424.5 c 128,-1,38
 107 444 107 444 96 470.5 c 128,-1,39
 85 497 85 497 85 527 c 0,20,21
EndSplineSet
EndChar

StartChar: guillemotright
Encoding: 187 187 125
Width: 544
GlyphClass: 1
Flags: W
LayerCount: 2
Fore
SplineSet
503 272 m 1,0,-1
 260 445 l 1,1,-1
 260 406 l 1,2,-1
 466 259 l 1,3,-1
 260 113 l 1,4,-1
 260 73 l 1,5,-1
 503 245 l 1,6,-1
 503 272 l 1,0,-1
309 272 m 1,7,-1
 66 445 l 1,8,-1
 66 406 l 1,9,-1
 272 259 l 1,10,-1
 66 113 l 1,11,-1
 66 73 l 1,12,-1
 309 245 l 1,13,-1
 309 272 l 1,7,-1
EndSplineSet
EndChar

StartChar: onehalf
Encoding: 189 189 127
Width: 772
GlyphClass: 1
Flags: W
LayerCount: 2
Fore
SplineSet
163 366 m 1,0,-1
 163 731 l 1,1,-1
 131 731 l 2,2,3
 130 730 130 730 121 721.5 c 128,-1,4
 112 713 112 713 98 703 c 128,-1,5
 84 693 84 693 67.5 684.5 c 128,-1,6
 51 676 51 676 35 676 c 1,7,-1
 35 645 l 1,8,9
 47 645 47 645 61.5 650.5 c 128,-1,10
 76 656 76 656 89.5 663 c 128,-1,11
 103 670 103 670 114.5 678.5 c 128,-1,12
 126 687 126 687 131 693 c 1,13,-1
 131 366 l 1,14,-1
 49 366 l 1,15,-1
 49 335 l 1,16,-1
 240 335 l 1,17,-1
 240 366 l 1,18,-1
 163 366 l 1,0,-1
64 -2 m 1,19,-1
 339 346 l 1,20,-1
 619 692 l 1,21,-1
 594 712 l 1,22,-1
 319 364 l 1,23,-1
 39 18 l 1,24,-1
 64 -2 l 1,19,-1
730 0 m 1,25,-1
 730 31 l 1,26,-1
 473 31 l 1,27,28
 473 45 473 45 477.5 62.5 c 128,-1,29
 482 80 482 80 494 97.5 c 128,-1,30
 506 115 506 115 528.5 131.5 c 128,-1,31
 551 148 551 148 587 160 c 0,32,33
 608 167 608 167 632.5 175.5 c 128,-1,34
 657 184 657 184 678.5 197.5 c 128,-1,35
 700 211 700 211 714.5 231 c 128,-1,36
 729 251 729 251 729 282 c 0,37,38
 729 305 729 305 720.5 326 c 128,-1,39
 712 347 712 347 695 362.5 c 128,-1,40
 678 378 678 378 652.5 387 c 128,-1,41
 627 396 627 396 592 396 c 0,42,43
 556 396 556 396 528.5 386.5 c 128,-1,44
 501 377 501 377 482 365.5 c 128,-1,45
 463 354 463 354 452.5 343 c 128,-1,46
 442 332 442 332 440 328 c 1,47,-1
 461 307 l 1,48,49
 468 315 468 315 479 325.5 c 128,-1,50
 490 336 490 336 505.5 344.5 c 128,-1,51
 521 353 521 353 542 359 c 128,-1,52
 563 365 563 365 588 365 c 0,53,54
 642 365 642 365 668.5 340.5 c 128,-1,55
 695 316 695 316 695 283 c 0,56,57
 695 258 695 258 682 241.5 c 128,-1,58
 669 225 669 225 649 214 c 128,-1,59
 629 203 629 203 605 194.5 c 128,-1,60
 581 186 581 186 558 178 c 0,61,62
 529 167 529 167 505.5 152 c 128,-1,63
 482 137 482 137 466.5 116 c 128,-1,64
 451 95 451 95 443 66.5 c 128,-1,65
 435 38 435 38 435 0 c 1,66,-1
 730 0 l 1,25,-1
EndSplineSet
EndChar

StartChar: questiondown
Encoding: 191 191 129
Width: 465
GlyphClass: 1
Flags: W
LayerCount: 2
Fore
SplineSet
263 316 m 1,0,1
 263 276 263 276 256.5 249.5 c 128,-1,2
 250 223 250 223 239 205.5 c 128,-1,3
 228 188 228 188 213 177.5 c 128,-1,4
 198 167 198 167 181 158 c 0,5,6
 155 143 155 143 128.5 129 c 128,-1,7
 102 115 102 115 81 95.5 c 128,-1,8
 60 76 60 76 47 47 c 128,-1,9
 34 18 34 18 34 -24 c 0,10,11
 34 -71 34 -71 50 -106.5 c 128,-1,12
 66 -142 66 -142 92.5 -165.5 c 128,-1,13
 119 -189 119 -189 153.5 -201 c 128,-1,14
 188 -213 188 -213 225 -213 c 0,15,16
 256 -213 256 -213 287.5 -204.5 c 128,-1,17
 319 -196 319 -196 347 -179.5 c 128,-1,18
 375 -163 375 -163 397 -139 c 128,-1,19
 419 -115 419 -115 433 -84 c 1,20,-1
 401 -66 l 1,21,22
 389 -90 389 -90 371 -110 c 128,-1,23
 353 -130 353 -130 330 -145 c 128,-1,24
 307 -160 307 -160 280 -167.5 c 128,-1,25
 253 -175 253 -175 225 -175 c 0,26,27
 196 -175 196 -175 168.5 -166.5 c 128,-1,28
 141 -158 141 -158 120 -139.5 c 128,-1,29
 99 -121 99 -121 86 -93.5 c 128,-1,30
 73 -66 73 -66 73 -28 c 0,31,32
 73 12 73 12 87 38.5 c 128,-1,33
 101 65 101 65 122.5 82.5 c 128,-1,34
 144 100 144 100 169 112.5 c 128,-1,35
 194 125 194 125 216 137 c 0,36,37
 235 148 235 148 251 162 c 128,-1,38
 267 176 267 176 278 197 c 128,-1,39
 289 218 289 218 295 246.5 c 128,-1,40
 301 275 301 275 301 316 c 1,41,-1
 263 316 l 1,0,1
323 471 m 256,42,43
 323 488 323 488 311 500.5 c 128,-1,44
 299 513 299 513 282 513 c 256,45,46
 265 513 265 513 252.5 500.5 c 128,-1,47
 240 488 240 488 240 471 c 256,48,49
 240 454 240 454 252.5 442.5 c 128,-1,50
 265 431 265 431 282 431 c 256,51,52
 299 431 299 431 311 442.5 c 128,-1,53
 323 454 323 454 323 471 c 256,42,43
EndSplineSet
EndChar

StartChar: AE
Encoding: 198 198 136
Width: 962
GlyphClass: 1
Flags: W
LayerCount: 2
Fore
SplineSet
-28 0 m 1,0,-1
 22 0 l 1,1,-1
 176 239 l 1,2,-1
 447 239 l 1,3,-1
 447 0 l 1,4,-1
 915 0 l 1,5,-1
 915 40 l 1,6,-1
 490 40 l 1,7,-1
 490 343 l 1,8,-1
 852 343 l 1,9,-1
 852 383 l 1,10,-1
 490 383 l 1,11,-1
 490 670 l 1,12,-1
 906 670 l 1,13,-1
 906 710 l 1,14,-1
 435 710 l 1,15,-1
 -28 0 l 1,0,-1
198 279 m 1,16,-1
 445 654 l 1,17,-1
 445 279 l 1,18,-1
 198 279 l 1,16,-1
EndSplineSet
EndChar

StartChar: Idieresis
Encoding: 207 207 145
Width: 232
GlyphClass: 1
Flags: W
LayerCount: 2
Fore
SplineSet
138 0 m 1,0,-1
 138 710 l 1,1,-1
 94 710 l 1,2,-1
 94 0 l 1,3,-1
 138 0 l 1,0,-1
16 874 m 256,4,5
 16 857 16 857 27 845 c 128,-1,6
 38 833 38 833 54 833 c 256,7,8
 70 833 70 833 81.5 845 c 128,-1,9
 93 857 93 857 93 874 c 256,10,11
 93 891 93 891 81.5 903 c 128,-1,12
 70 915 70 915 54 915 c 256,13,14
 38 915 38 915 27 903 c 128,-1,15
 16 891 16 891 16 874 c 256,4,5
138 874 m 256,16,17
 138 857 138 857 149.5 845 c 128,-1,18
 161 833 161 833 177 833 c 256,19,20
 193 833 193 833 204.5 845 c 128,-1,21
 216 857 216 857 216 874 c 256,22,23
 216 891 216 891 204.5 903 c 128,-1,24
 193 915 193 915 177 915 c 256,25,26
 161 915 161 915 149.5 903 c 128,-1,27
 138 891 138 891 138 874 c 256,16,17
EndSplineSet
EndChar

StartChar: Eth
Encoding: 208 208 146
Width: 719
GlyphClass: 1
Flags: W
LayerCount: 2
Fore
SplineSet
326 339 m 1,0,-1
 326 375 l 1,1,-1
 35 375 l 1,2,-1
 35 339 l 1,3,-1
 326 339 l 1,0,-1
335 0 m 2,4,5
 412 0 412 0 474.5 25.5 c 128,-1,6
 537 51 537 51 580.5 97.5 c 128,-1,7
 624 144 624 144 647.5 209.5 c 128,-1,8
 671 275 671 275 671 356 c 0,9,10
 671 430 671 430 650 494.5 c 128,-1,11
 629 559 629 559 587.5 607 c 128,-1,12
 546 655 546 655 483 682.5 c 128,-1,13
 420 710 420 710 335 710 c 2,14,-1
 101 710 l 1,15,-1
 101 0 l 1,16,-1
 335 0 l 2,4,5
628 356 m 256,17,18
 628 288 628 288 609 230.5 c 128,-1,19
 590 173 590 173 553.5 130.5 c 128,-1,20
 517 88 517 88 462 64 c 128,-1,21
 407 40 407 40 335 40 c 2,22,-1
 144 40 l 1,23,-1
 144 670 l 1,24,-1
 335 670 l 2,25,26
 405 670 405 670 459.5 646.5 c 128,-1,27
 514 623 514 623 551.5 581.5 c 128,-1,28
 589 540 589 540 608.5 482 c 128,-1,29
 628 424 628 424 628 356 c 256,17,18
EndSplineSet
EndChar

StartChar: multiply
Encoding: 215 215 153
Width: 448
GlyphClass: 1
Flags: W
LayerCount: 2
Fore
SplineSet
252 271 m 1,0,-1
 380 400 l 1,1,-1
 353 428 l 1,2,-1
 224 300 l 1,3,-1
 96 427 l 1,4,-1
 68 400 l 1,5,-1
 195 271 l 1,6,-1
 68 143 l 1,7,-1
 95 115 l 1,8,-1
 224 243 l 1,9,-1
 353 115 l 1,10,-1
 381 142 l 1,11,-1
 252 271 l 1,0,-1
EndSplineSet
EndChar

StartChar: Thorn
Encoding: 222 222 160
Width: 601
GlyphClass: 1
Flags: W
LayerCount: 2
Fore
SplineSet
366 564 m 2,0,-1
 138 564 l 1,1,-1
 138 710 l 1,2,-1
 94 710 l 1,3,-1
 94 0 l 1,4,-1
 138 0 l 1,5,-1
 138 125 l 1,6,-1
 373 125 l 2,7,8
 417 125 417 125 453.5 143.5 c 128,-1,9
 490 162 490 162 516.5 192.5 c 128,-1,10
 543 223 543 223 557 263 c 128,-1,11
 571 303 571 303 571 345 c 0,12,13
 571 386 571 386 556 425 c 128,-1,14
 541 464 541 464 513.5 495.5 c 128,-1,15
 486 527 486 527 448.5 545.5 c 128,-1,16
 411 564 411 564 366 564 c 2,0,-1
372 165 m 2,17,-1
 138 165 l 1,18,-1
 138 524 l 1,19,-1
 365 524 l 2,20,21
 399 524 399 524 428.5 509.5 c 128,-1,22
 458 495 458 495 480 470 c 128,-1,23
 502 445 502 445 515 413 c 128,-1,24
 528 381 528 381 528 346 c 0,25,26
 528 312 528 312 517 279.5 c 128,-1,27
 506 247 506 247 486 221.5 c 128,-1,28
 466 196 466 196 437 180.5 c 128,-1,29
 408 165 408 165 372 165 c 2,17,-1
EndSplineSet
EndChar

StartChar: germandbls
Encoding: 223 223 161
Width: 548
GlyphClass: 1
Flags: W
LayerCount: 2
Fore
SplineSet
234 -6 m 1,0,1
 298 -4 298 -4 348 11 c 128,-1,2
 398 26 398 26 433.5 52.5 c 128,-1,3
 469 79 469 79 487.5 117.5 c 128,-1,4
 506 156 506 156 506 205 c 0,5,6
 506 281 506 281 463 334 c 128,-1,7
 420 387 420 387 341 403 c 1,8,9
 365 409 365 409 385.5 423 c 128,-1,10
 406 437 406 437 421 457.5 c 128,-1,11
 436 478 436 478 445 503.5 c 128,-1,12
 454 529 454 529 454 556 c 0,13,14
 454 590 454 590 440 619 c 128,-1,15
 426 648 426 648 401.5 669 c 128,-1,16
 377 690 377 690 343.5 702 c 128,-1,17
 310 714 310 714 271 714 c 0,18,19
 229 714 229 714 193.5 699.5 c 128,-1,20
 158 685 158 685 133 658.5 c 128,-1,21
 108 632 108 632 94 594.5 c 128,-1,22
 80 557 80 557 80 512 c 2,23,-1
 80 0 l 1,24,-1
 121 0 l 1,25,-1
 121 507 l 2,26,27
 121 544 121 544 131 574.5 c 128,-1,28
 141 605 141 605 160.5 628 c 128,-1,29
 180 651 180 651 207.5 663 c 128,-1,30
 235 675 235 675 270 675 c 0,31,32
 299 675 299 675 325.5 666 c 128,-1,33
 352 657 352 657 371 640 c 128,-1,34
 390 623 390 623 401.5 599.5 c 128,-1,35
 413 576 413 576 413 548 c 256,36,37
 413 520 413 520 402.5 497 c 128,-1,38
 392 474 392 474 373.5 457 c 128,-1,39
 355 440 355 440 329.5 430.5 c 128,-1,40
 304 421 304 421 274 421 c 2,41,-1
 258 421 l 1,42,-1
 258 381 l 1,43,-1
 275 381 l 2,44,45
 317 381 317 381 351.5 368.5 c 128,-1,46
 386 356 386 356 410.5 333 c 128,-1,47
 435 310 435 310 448.5 278 c 128,-1,48
 462 246 462 246 462 206 c 0,49,50
 462 165 462 165 446.5 133 c 128,-1,51
 431 101 431 101 401.5 79 c 128,-1,52
 372 57 372 57 329.5 46 c 128,-1,53
 287 35 287 35 234 34 c 1,54,-1
 234 -6 l 1,0,1
EndSplineSet
EndChar

StartChar: ae
Encoding: 230 230 168
Width: 930
GlyphClass: 1
Flags: W
LayerCount: 2
Fore
SplineSet
206 -10 m 0,0,1
 237 -10 237 -10 270.5 -3 c 128,-1,2
 304 4 304 4 335.5 18 c 128,-1,3
 367 32 367 32 393.5 54.5 c 128,-1,4
 420 77 420 77 436 108 c 1,5,6
 470 55 470 55 525 22.5 c 128,-1,7
 580 -10 580 -10 647 -10 c 0,8,9
 682 -10 682 -10 716 -0.5 c 128,-1,10
 750 9 750 9 778 26 c 128,-1,11
 806 43 806 43 827.5 66 c 128,-1,12
 849 89 849 89 860 117 c 1,13,-1
 822 127 l 1,14,15
 812 105 812 105 794 86 c 128,-1,16
 776 67 776 67 753 53.5 c 128,-1,17
 730 40 730 40 703 32.5 c 128,-1,18
 676 25 676 25 648 25 c 0,19,20
 606 25 606 25 568.5 42 c 128,-1,21
 531 59 531 59 502 88 c 128,-1,22
 473 117 473 117 454.5 156.5 c 128,-1,23
 436 196 436 196 432 242 c 1,24,-1
 897 242 l 1,25,26
 897 246 897 246 897 251 c 128,-1,27
 897 256 897 256 897 260 c 0,28,29
 897 315 897 315 877.5 364 c 128,-1,30
 858 413 858 413 824 449.5 c 128,-1,31
 790 486 790 486 743.5 507 c 128,-1,32
 697 528 697 528 642 528 c 0,33,34
 578 528 578 528 524.5 497 c 128,-1,35
 471 466 471 466 439 414 c 1,36,37
 418 468 418 468 372 498 c 128,-1,38
 326 528 326 528 260 528 c 0,39,40
 215 528 215 528 168.5 511 c 128,-1,41
 122 494 122 494 72 460 c 1,42,-1
 90 431 l 1,43,44
 134 461 134 461 176 477.5 c 128,-1,45
 218 494 218 494 257 494 c 0,46,47
 319 494 319 494 359.5 461 c 128,-1,48
 400 428 400 428 411 371 c 1,49,50
 403 351 403 351 398 328 c 128,-1,51
 393 305 393 305 391 283 c 1,52,53
 360 292 360 292 323.5 297.5 c 128,-1,54
 287 303 287 303 252 303 c 0,55,56
 204 303 204 303 164.5 291.5 c 128,-1,57
 125 280 125 280 96 260 c 128,-1,58
 67 240 67 240 51.5 212 c 128,-1,59
 36 184 36 184 36 150 c 0,60,61
 36 117 36 117 49 87.5 c 128,-1,62
 62 58 62 58 85 36.5 c 128,-1,63
 108 15 108 15 139 2.5 c 128,-1,64
 170 -10 170 -10 206 -10 c 0,0,1
214 25 m 0,65,66
 185 25 185 25 160 35 c 128,-1,67
 135 45 135 45 116.5 62 c 128,-1,68
 98 79 98 79 87.5 102.5 c 128,-1,69
 77 126 77 126 77 153 c 256,70,71
 77 180 77 180 90 201.5 c 128,-1,72
 103 223 103 223 126.5 239 c 128,-1,73
 150 255 150 255 183 263.5 c 128,-1,74
 216 272 216 272 256 272 c 0,75,76
 291 272 291 272 325 267 c 128,-1,77
 359 262 359 262 391 251 c 1,78,79
 392 224 392 224 398.5 195.5 c 128,-1,80
 405 167 405 167 417 143 c 1,81,82
 415 135 415 135 411 126 c 128,-1,83
 407 117 407 117 400 108 c 0,84,85
 375 70 375 70 324.5 47.5 c 128,-1,86
 274 25 274 25 214 25 c 0,65,66
432 275 m 1,87,88
 435 322 435 322 451.5 362 c 128,-1,89
 468 402 468 402 496.5 431 c 128,-1,90
 525 460 525 460 562.5 476.5 c 128,-1,91
 600 493 600 493 643 493 c 256,92,93
 686 493 686 493 723 476.5 c 128,-1,94
 760 460 760 460 788.5 431.5 c 128,-1,95
 817 403 817 403 834.5 362.5 c 128,-1,96
 852 322 852 322 855 275 c 1,97,-1
 432 275 l 1,87,88
EndSplineSet
EndChar

StartChar: idieresis
Encoding: 239 239 177
Width: 202
GlyphClass: 1
Flags: W
LayerCount: 2
Fore
SplineSet
122 0 m 1,0,-1
 122 520 l 1,1,-1
 80 520 l 1,2,-1
 80 0 l 1,3,-1
 122 0 l 1,0,-1
4 684 m 256,4,5
 4 667 4 667 14.5 655 c 128,-1,6
 25 643 25 643 41 643 c 256,7,8
 57 643 57 643 68 655 c 128,-1,9
 79 667 79 667 79 684 c 256,10,11
 79 701 79 701 68 713 c 128,-1,12
 57 725 57 725 41 725 c 0,13,14
 26 725 26 725 15 713 c 128,-1,15
 4 701 4 701 4 684 c 256,4,5
123 684 m 256,16,17
 123 667 123 667 133.5 655 c 128,-1,18
 144 643 144 643 160 643 c 256,19,20
 176 643 176 643 187 655 c 128,-1,21
 198 667 198 667 198 684 c 256,22,23
 198 701 198 701 187 713 c 128,-1,24
 176 725 176 725 160 725 c 0,25,26
 145 725 145 725 134 713 c 128,-1,27
 123 701 123 701 123 684 c 256,16,17
EndSplineSet
EndChar

StartChar: eth
Encoding: 240 240 178
Width: 597
GlyphClass: 1
Flags: W
LayerCount: 2
Fore
SplineSet
550 261 m 0,0,1
 550 321 550 321 539.5 381.5 c 128,-1,2
 529 442 529 442 498.5 502 c 128,-1,3
 468 562 468 562 412.5 619.5 c 128,-1,4
 357 677 357 677 266 730 c 1,5,-1
 206 730 l 1,6,7
 291 682 291 682 346.5 633 c 128,-1,8
 402 584 402 584 435.5 535.5 c 128,-1,9
 469 487 469 487 485 439 c 128,-1,10
 501 391 501 391 507 343 c 1,11,12
 494 372 494 372 472 396 c 128,-1,13
 450 420 450 420 422 437.5 c 128,-1,14
 394 455 394 455 360.5 464.5 c 128,-1,15
 327 474 327 474 291 474 c 0,16,17
 241 474 241 474 196 455 c 128,-1,18
 151 436 151 436 117.5 403 c 128,-1,19
 84 370 84 370 64.5 326 c 128,-1,20
 45 282 45 282 45 232 c 0,21,22
 45 183 45 183 65 138.5 c 128,-1,23
 85 94 85 94 119 61.5 c 128,-1,24
 153 29 153 29 198.5 9.5 c 128,-1,25
 244 -10 244 -10 296 -10 c 256,26,27
 348 -10 348 -10 394 10.5 c 128,-1,28
 440 31 440 31 475 67.5 c 128,-1,29
 510 104 510 104 530 153.5 c 128,-1,30
 550 203 550 203 550 261 c 0,0,1
88 231 m 256,31,32
 88 273 88 273 104.5 310.5 c 128,-1,33
 121 348 121 348 149.5 376 c 128,-1,34
 178 404 178 404 216.5 420.5 c 128,-1,35
 255 437 255 437 298 437 c 256,36,37
 341 437 341 437 379 422 c 128,-1,38
 417 407 417 407 445.5 380.5 c 128,-1,39
 474 354 474 354 490.5 319 c 128,-1,40
 507 284 507 284 507 244 c 0,41,42
 507 201 507 201 490.5 161.5 c 128,-1,43
 474 122 474 122 445 92.5 c 128,-1,44
 416 63 416 63 378 46 c 128,-1,45
 340 29 340 29 296 29 c 0,46,47
 253 29 253 29 215 45 c 128,-1,48
 177 61 177 61 149 88.5 c 128,-1,49
 121 116 121 116 104.5 152.5 c 128,-1,50
 88 189 88 189 88 231 c 256,31,32
467 713 m 1,51,-1
 364 647 l 1,52,-1
 351 642 l 1,53,-1
 229 564 l 1,54,-1
 244 542 l 1,55,-1
 369 622 l 1,56,-1
 383 629 l 1,57,-1
 482 691 l 1,58,-1
 467 713 l 1,51,-1
EndSplineSet
EndChar

StartChar: divide
Encoding: 247 247 185
Width: 542
GlyphClass: 1
Flags: W
LayerCount: 2
Fore
SplineSet
473 258 m 1,0,-1
 473 295 l 1,1,-1
 70 295 l 1,2,-1
 70 258 l 1,3,-1
 473 258 l 1,0,-1
228 119 m 256,4,5
 228 102 228 102 240 90 c 128,-1,6
 252 78 252 78 269 78 c 256,7,8
 286 78 286 78 298.5 90 c 128,-1,9
 311 102 311 102 311 119 c 256,10,11
 311 136 311 136 298.5 148 c 128,-1,12
 286 160 286 160 269 160 c 256,13,14
 252 160 252 160 240 148 c 128,-1,15
 228 136 228 136 228 119 c 256,4,5
228 434 m 0,16,17
 228 418 228 418 240.5 405.5 c 128,-1,18
 253 393 253 393 270 393 c 256,19,20
 287 393 287 393 299 405.5 c 128,-1,21
 311 418 311 418 311 434 c 0,22,23
 311 451 311 451 299 463 c 128,-1,24
 287 475 287 475 270 475 c 256,25,26
 253 475 253 475 240.5 463 c 128,-1,27
 228 451 228 451 228 434 c 0,16,17
EndSplineSet
EndChar

StartChar: oslash
Encoding: 248 248 186
Width: 590
GlyphClass: 1
Flags: W
LayerCount: 2
Fore
SplineSet
295 -10 m 256,0,1
 349 -10 349 -10 395 11.5 c 128,-1,2
 441 33 441 33 475 70 c 128,-1,3
 509 107 509 107 528.5 156 c 128,-1,4
 548 205 548 205 548 259 c 0,5,6
 548 314 548 314 528.5 363 c 128,-1,7
 509 412 509 412 474.5 448.5 c 128,-1,8
 440 485 440 485 394 506.5 c 128,-1,9
 348 528 348 528 295 528 c 256,10,11
 242 528 242 528 196 506.5 c 128,-1,12
 150 485 150 485 116 448.5 c 128,-1,13
 82 412 82 412 62.5 363 c 128,-1,14
 43 314 43 314 43 259 c 0,15,16
 43 205 43 205 62 156 c 128,-1,17
 81 107 81 107 115 70 c 128,-1,18
 149 33 149 33 195 11.5 c 128,-1,19
 241 -10 241 -10 295 -10 c 256,0,1
294 29 m 0,20,21
 252 29 252 29 213.5 47 c 128,-1,22
 175 65 175 65 147 96 c 128,-1,23
 119 127 119 127 102.5 168.5 c 128,-1,24
 86 210 86 210 86 257 c 0,25,26
 86 305 86 305 102.5 347 c 128,-1,27
 119 389 119 389 147.5 421 c 128,-1,28
 176 453 176 453 214 471.5 c 128,-1,29
 252 490 252 490 295 490 c 256,30,31
 338 490 338 490 376 471.5 c 128,-1,32
 414 453 414 453 442.5 421.5 c 128,-1,33
 471 390 471 390 487.5 348.5 c 128,-1,34
 504 307 504 307 504 260 c 0,35,36
 504 212 504 212 487.5 170 c 128,-1,37
 471 128 471 128 442 96.5 c 128,-1,38
 413 65 413 65 375.5 47 c 128,-1,39
 338 29 338 29 294 29 c 0,20,21
145 -1 m 1,40,-1
 178 47 l 1,41,-1
 150 65 l 1,42,-1
 104 -1 l 1,43,-1
 145 -1 l 1,40,-1
440 455 m 1,44,-1
 410 471 l 1,45,-1
 154 67 l 1,46,-1
 181 49 l 1,47,-1
 440 455 l 1,44,-1
488 521 m 1,48,-1
 445 521 l 1,49,-1
 413 473 l 1,50,-1
 444 456 l 1,51,-1
 488 521 l 1,48,-1
EndSplineSet
EndChar

StartChar: thorn
Encoding: 254 254 192
Width: 603
GlyphClass: 1
Flags: W
LayerCount: 2
Fore
SplineSet
561 258 m 0,0,1
 561 306 561 306 544 354.5 c 128,-1,2
 527 403 527 403 496 442 c 128,-1,3
 465 481 465 481 419.5 505 c 128,-1,4
 374 529 374 529 317 529 c 0,5,6
 252 529 252 529 205 496.5 c 128,-1,7
 158 464 158 464 123 415 c 1,8,-1
 123 710 l 1,9,-1
 80 710 l 1,10,-1
 80 -213 l 1,11,-1
 123 -213 l 1,12,-1
 123 92 l 1,13,14
 136 70 136 70 156 51 c 128,-1,15
 176 32 176 32 200 18 c 128,-1,16
 224 4 224 4 251.5 -4.5 c 128,-1,17
 279 -13 279 -13 308 -13 c 0,18,19
 361 -13 361 -13 406.5 9.5 c 128,-1,20
 452 32 452 32 486 69 c 128,-1,21
 520 106 520 106 540 155 c 128,-1,22
 560 204 560 204 561 258 c 0,0,1
517 258 m 0,23,24
 517 215 517 215 501.5 173.5 c 128,-1,25
 486 132 486 132 458.5 99.5 c 128,-1,26
 431 67 431 67 392 47 c 128,-1,27
 353 27 353 27 307 27 c 0,28,29
 279 27 279 27 247 39 c 128,-1,30
 215 51 215 51 187.5 70.5 c 128,-1,31
 160 90 160 90 141.5 116 c 128,-1,32
 123 142 123 142 123 170 c 2,33,-1
 123 352 l 1,34,35
 137 379 137 379 156 404 c 128,-1,36
 175 429 175 429 199 448 c 128,-1,37
 223 467 223 467 252.5 478 c 128,-1,38
 282 489 282 489 315 489 c 0,39,40
 360 489 360 489 397.5 470 c 128,-1,41
 435 451 435 451 461.5 419 c 128,-1,42
 488 387 488 387 502.5 345 c 128,-1,43
 517 303 517 303 517 258 c 0,23,24
EndSplineSet
EndChar

StartChar: Dcroat
Encoding: 272 272 210
Width: 719
GlyphClass: 1
Flags: W
LayerCount: 2
Fore
SplineSet
326 339 m 1,0,-1
 326 375 l 1,1,-1
 35 375 l 1,2,-1
 35 339 l 1,3,-1
 326 339 l 1,0,-1
335 0 m 2,4,5
 412 0 412 0 474.5 25.5 c 128,-1,6
 537 51 537 51 580.5 97.5 c 128,-1,7
 624 144 624 144 647.5 209.5 c 128,-1,8
 671 275 671 275 671 356 c 0,9,10
 671 430 671 430 650 494.5 c 128,-1,11
 629 559 629 559 587.5 607 c 128,-1,12
 546 655 546 655 483 682.5 c 128,-1,13
 420 710 420 710 335 710 c 2,14,-1
 101 710 l 1,15,-1
 101 0 l 1,16,-1
 335 0 l 2,4,5
628 356 m 256,17,18
 628 288 628 288 609 230.5 c 128,-1,19
 590 173 590 173 553.5 130.5 c 128,-1,20
 517 88 517 88 462 64 c 128,-1,21
 407 40 407 40 335 40 c 2,22,-1
 144 40 l 1,23,-1
 144 670 l 1,24,-1
 335 670 l 2,25,26
 405 670 405 670 459.5 646.5 c 128,-1,27
 514 623 514 623 551.5 581.5 c 128,-1,28
 589 540 589 540 608.5 482 c 128,-1,29
 628 424 628 424 628 356 c 256,17,18
EndSplineSet
EndChar

StartChar: dcroat
Encoding: 273 273 211
Width: 612
GlyphClass: 1
Flags: W
LayerCount: 2
Fore
SplineSet
604 626 m 1,0,-1
 604 658 l 1,1,-1
 368 658 l 1,2,-1
 368 626 l 1,3,-1
 604 626 l 1,0,-1
530 0 m 1,4,-1
 530 730 l 1,5,-1
 488 730 l 1,6,-1
 488 405 l 1,7,8
 471 430 471 430 449.5 452.5 c 128,-1,9
 428 475 428 475 402 491.5 c 128,-1,10
 376 508 376 508 346.5 518 c 128,-1,11
 317 528 317 528 282 528 c 0,12,13
 231 528 231 528 187 506.5 c 128,-1,14
 143 485 143 485 111 448 c 128,-1,15
 79 411 79 411 61 362 c 128,-1,16
 43 313 43 313 43 259 c 0,17,18
 43 207 43 207 61.5 159 c 128,-1,19
 80 111 80 111 113.5 73 c 128,-1,20
 147 35 147 35 193 12.5 c 128,-1,21
 239 -10 239 -10 293 -10 c 0,22,23
 352 -10 352 -10 404 21 c 128,-1,24
 456 52 456 52 488 103 c 1,25,-1
 488 0 l 1,26,-1
 530 0 l 1,4,-1
488 174 m 2,27,28
 486 144 486 144 466.5 117.5 c 128,-1,29
 447 91 447 91 419.5 71.5 c 128,-1,30
 392 52 392 52 360 40.5 c 128,-1,31
 328 29 328 29 300 29 c 0,32,33
 255 29 255 29 216 47.5 c 128,-1,34
 177 66 177 66 148.5 98 c 128,-1,35
 120 130 120 130 103.5 171.5 c 128,-1,36
 87 213 87 213 87 258 c 0,37,38
 87 302 87 302 101 343.5 c 128,-1,39
 115 385 115 385 142 417.5 c 128,-1,40
 169 450 169 450 206.5 470 c 128,-1,41
 244 490 244 490 291 490 c 0,42,43
 320 490 320 490 351 478.5 c 128,-1,44
 382 467 382 467 408.5 448 c 128,-1,45
 435 429 435 429 456.5 403.5 c 128,-1,46
 478 378 478 378 488 348 c 1,47,-1
 488 174 l 2,27,28
EndSplineSet
EndChar

StartChar: Hbar
Encoding: 294 294 232
Width: 744
GlyphClass: 1
Flags: W
LayerCount: 2
Fore
SplineSet
695 546 m 1,0,-1
 695 581 l 1,1,-1
 49 581 l 1,2,-1
 49 546 l 1,3,-1
 695 546 l 1,0,-1
602 710 m 1,4,-1
 602 383 l 1,5,-1
 143 383 l 1,6,-1
 143 710 l 1,7,-1
 99 710 l 1,8,-1
 99 0 l 1,9,-1
 143 0 l 1,10,-1
 143 343 l 1,11,-1
 602 343 l 1,12,-1
 602 0 l 1,13,-1
 645 0 l 1,14,-1
 645 710 l 1,15,-1
 602 710 l 1,4,-1
EndSplineSet
EndChar

StartChar: hbar
Encoding: 295 295 233
Width: 573
GlyphClass: 1
Flags: W
LayerCount: 2
Fore
SplineSet
247 626 m 1,0,-1
 247 658 l 1,1,-1
 12 658 l 1,2,-1
 12 626 l 1,3,-1
 247 626 l 1,0,-1
499 297 m 2,4,5
 499 352 499 352 489.5 395 c 128,-1,6
 480 438 480 438 459.5 467.5 c 128,-1,7
 439 497 439 497 408 512.5 c 128,-1,8
 377 528 377 528 334 528 c 0,9,10
 269 528 269 528 211.5 492 c 128,-1,11
 154 456 154 456 122 393 c 1,12,-1
 122 730 l 1,13,-1
 80 730 l 1,14,-1
 80 0 l 1,15,-1
 122 0 l 1,16,-1
 122 324 l 1,17,18
 132 359 132 359 152.5 389 c 128,-1,19
 173 419 173 419 200 441 c 128,-1,20
 227 463 227 463 259 476 c 128,-1,21
 291 489 291 489 324 489 c 0,22,23
 390 489 390 489 423.5 439.5 c 128,-1,24
 457 390 457 390 457 290 c 2,25,-1
 457 0 l 1,26,-1
 499 0 l 1,27,-1
 499 297 l 2,4,5
EndSplineSet
EndChar

StartChar: dotlessi
Encoding: 305 305 243
Width: 202
GlyphClass: 1
Flags: W
LayerCount: 2
Fore
SplineSet
122 0 m 1,0,-1
 122 520 l 1,1,-1
 80 520 l 1,2,-1
 80 0 l 1,3,-1
 122 0 l 1,0,-1
EndSplineSet
EndChar

StartChar: kgreenlandic
Encoding: 312 312 248
Width: 518
GlyphClass: 1
Flags: W
LayerCount: 2
Fore
SplineSet
505 0 m 1,0,-1
 279 309 l 1,1,-1
 498 518 l 1,2,-1
 448 518 l 1,3,-1
 122 214 l 1,4,-1
 122 520 l 1,5,-1
 80 520 l 1,6,-1
 80 0 l 1,7,-1
 122 0 l 1,8,-1
 122 166 l 1,9,-1
 250 283 l 1,10,-1
 457 0 l 1,11,-1
 505 0 l 1,0,-1
EndSplineSet
EndChar

StartChar: Lslash
Encoding: 321 321 257
Width: 588
GlyphClass: 1
Flags: W
LayerCount: 2
Fore
SplineSet
335 495 m 1,0,-1
 317 522 l 1,1,-1
 23 252 l 1,2,-1
 41 225 l 1,3,-1
 335 495 l 1,0,-1
574 0 m 1,4,-1
 574 40 l 1,5,-1
 145 40 l 1,6,-1
 145 710 l 1,7,-1
 101 710 l 1,8,-1
 101 0 l 1,9,-1
 574 0 l 1,4,-1
EndSplineSet
EndChar

StartChar: lslash
Encoding: 322 322 258
Width: 271
GlyphClass: 1
Flags: W
LayerCount: 2
Fore
SplineSet
253 494 m 1,0,-1
 234 519 l 1,1,-1
 13 323 l 1,2,-1
 32 297 l 1,3,-1
 253 494 l 1,0,-1
101 86 m 2,4,5
 101 44 101 44 125.5 19 c 128,-1,6
 150 -6 150 -6 190 -6 c 0,7,8
 207 -6 207 -6 230.5 -1.5 c 128,-1,9
 254 3 254 3 271 9 c 1,10,-1
 262 44 l 1,11,12
 249 40 249 40 232 36.5 c 128,-1,13
 215 33 215 33 201 33 c 0,14,15
 188 33 188 33 177.5 36.5 c 128,-1,16
 167 40 167 40 159 47.5 c 128,-1,17
 151 55 151 55 147 67 c 128,-1,18
 143 79 143 79 143 96 c 2,19,-1
 143 730 l 1,20,-1
 101 730 l 1,21,-1
 101 86 l 2,4,5
EndSplineSet
EndChar

StartChar: Eng
Encoding: 330 330 265
Width: 771
GlyphClass: 1
Flags: W
LayerCount: 2
Fore
SplineSet
634 2 m 1,0,-1
 634 -32 l 2,1,2
 634 -54 634 -54 625 -73 c 128,-1,3
 616 -92 616 -92 601 -106 c 128,-1,4
 586 -120 586 -120 567.5 -128 c 128,-1,5
 549 -136 549 -136 530 -136 c 0,6,7
 510 -136 510 -136 489.5 -131 c 128,-1,8
 469 -126 469 -126 452 -111 c 1,9,-1
 428 -139 l 1,10,11
 449 -159 449 -159 476 -167 c 128,-1,12
 503 -175 503 -175 534 -175 c 0,13,14
 560 -175 560 -175 585.5 -164.5 c 128,-1,15
 611 -154 611 -154 631.5 -134.5 c 128,-1,16
 652 -115 652 -115 664.5 -88.5 c 128,-1,17
 677 -62 677 -62 677 -31 c 2,18,-1
 677 709 l 1,19,-1
 634 709 l 1,20,-1
 634 73 l 1,21,-1
 127 710 l 1,22,-1
 94 710 l 1,23,-1
 94 0 l 1,24,-1
 138 0 l 1,25,-1
 138 627 l 1,26,-1
 634 2 l 1,0,-1
EndSplineSet
EndChar

StartChar: eng
Encoding: 331 331 266
Width: 573
GlyphClass: 1
Flags: W
LayerCount: 2
Fore
SplineSet
357 -175 m 0,0,1
 383 -175 383 -175 408.5 -164.5 c 128,-1,2
 434 -154 434 -154 454 -134.5 c 128,-1,3
 474 -115 474 -115 486.5 -88 c 128,-1,4
 499 -61 499 -61 499 -30 c 2,5,-1
 499 297 l 2,6,7
 499 353 499 353 490.5 396.5 c 128,-1,8
 482 440 482 440 463.5 469 c 128,-1,9
 445 498 445 498 415.5 513 c 128,-1,10
 386 528 386 528 345 528 c 0,11,12
 310 528 310 528 276.5 518.5 c 128,-1,13
 243 509 243 509 213.5 491 c 128,-1,14
 184 473 184 473 159.5 448.5 c 128,-1,15
 135 424 135 424 120 393 c 1,16,-1
 120 520 l 1,17,-1
 80 520 l 1,18,-1
 80 0 l 1,19,-1
 122 0 l 1,20,-1
 122 324 l 1,21,22
 133 359 133 359 154 389.5 c 128,-1,23
 175 420 175 420 204 442 c 128,-1,24
 233 464 233 464 266.5 476.5 c 128,-1,25
 300 489 300 489 334 489 c 0,26,27
 398 489 398 489 427.5 441.5 c 128,-1,28
 457 394 457 394 457 290 c 2,29,-1
 457 -32 l 2,30,31
 457 -54 457 -54 448 -73 c 128,-1,32
 439 -92 439 -92 424 -106 c 128,-1,33
 409 -120 409 -120 390.5 -128 c 128,-1,34
 372 -136 372 -136 353 -136 c 0,35,36
 333 -136 333 -136 312 -131 c 128,-1,37
 291 -126 291 -126 274 -111 c 1,38,-1
 250 -139 l 1,39,40
 271 -159 271 -159 298.5 -167 c 128,-1,41
 326 -175 326 -175 357 -175 c 0,0,1
EndSplineSet
EndChar

StartChar: OE
Encoding: 338 338 273
Width: 1182
GlyphClass: 1
Flags: W
LayerCount: 2
Fore
SplineSet
709 40 m 1,0,-1
 709 343 l 1,1,-1
 1072 343 l 1,2,-1
 1072 383 l 1,3,-1
 709 383 l 1,4,-1
 709 670 l 1,5,-1
 1126 670 l 1,6,-1
 1126 710 l 1,7,-1
 666 710 l 1,8,-1
 666 501 l 1,9,10
 650 545 650 545 622 584 c 128,-1,11
 594 623 594 623 557 652 c 128,-1,12
 520 681 520 681 475 698 c 128,-1,13
 430 715 430 715 378 715 c 0,14,15
 307 715 307 715 246 685.5 c 128,-1,16
 185 656 185 656 140.5 606 c 128,-1,17
 96 556 96 556 70.5 491 c 128,-1,18
 45 426 45 426 45 355 c 0,19,20
 45 287 45 287 69.5 222 c 128,-1,21
 94 157 94 157 138 106.5 c 128,-1,22
 182 56 182 56 243 25.5 c 128,-1,23
 304 -5 304 -5 379 -5 c 0,24,25
 428 -5 428 -5 473 11.5 c 128,-1,26
 518 28 518 28 555 57 c 128,-1,27
 592 86 592 86 620.5 125 c 128,-1,28
 649 164 649 164 666 208 c 1,29,-1
 666 0 l 1,30,-1
 1135 0 l 1,31,-1
 1135 40 l 1,32,-1
 709 40 l 1,0,-1
377 35 m 0,33,34
 314 35 314 35 261 61.5 c 128,-1,35
 208 88 208 88 170 132.5 c 128,-1,36
 132 177 132 177 110.5 235 c 128,-1,37
 89 293 89 293 89 355 c 0,38,39
 89 415 89 415 109.5 472 c 128,-1,40
 130 529 130 529 168 574 c 128,-1,41
 206 619 206 619 259 647 c 128,-1,42
 312 675 312 675 378 675 c 0,43,44
 439 675 439 675 491.5 648.5 c 128,-1,45
 544 622 544 622 583 577.5 c 128,-1,46
 622 533 622 533 643.5 475.5 c 128,-1,47
 665 418 665 418 665 356 c 0,48,49
 665 297 665 297 644.5 239 c 128,-1,50
 624 181 624 181 586.5 136 c 128,-1,51
 549 91 549 91 495.5 63 c 128,-1,52
 442 35 442 35 377 35 c 0,33,34
EndSplineSet
EndChar

StartChar: oe
Encoding: 339 339 274
Width: 1043
GlyphClass: 1
Flags: W
LayerCount: 2
Fore
SplineSet
293 -10 m 0,0,1
 333 -10 333 -10 369 2.5 c 128,-1,2
 405 15 405 15 435.5 38.5 c 128,-1,3
 466 62 466 62 489 95.5 c 128,-1,4
 512 129 512 129 526 170 c 1,5,6
 540 130 540 130 564.5 97 c 128,-1,7
 589 64 589 64 621 40 c 128,-1,8
 653 16 653 16 690.5 3 c 128,-1,9
 728 -10 728 -10 768 -10 c 0,10,11
 802 -10 802 -10 835.5 -0.5 c 128,-1,12
 869 9 869 9 897.5 26 c 128,-1,13
 926 43 926 43 948 66 c 128,-1,14
 970 89 970 89 982 117 c 1,15,-1
 944 127 l 1,16,17
 935 105 935 105 918 86 c 128,-1,18
 901 67 901 67 878 53.5 c 128,-1,19
 855 40 855 40 827 32.5 c 128,-1,20
 799 25 799 25 770 25 c 0,21,22
 727 25 727 25 688 42 c 128,-1,23
 649 59 649 59 619.5 88 c 128,-1,24
 590 117 590 117 571 157 c 128,-1,25
 552 197 552 197 549 242 c 1,26,-1
 1010 242 l 1,27,28
 1010 246 1010 246 1009.5 251 c 128,-1,29
 1009 256 1009 256 1009 260 c 0,30,31
 1004 321 1004 321 984 370.5 c 128,-1,32
 964 420 964 420 931 455.5 c 128,-1,33
 898 491 898 491 854 509.5 c 128,-1,34
 810 528 810 528 757 528 c 0,35,36
 672 528 672 528 610.5 480.5 c 128,-1,37
 549 433 549 433 524 348 c 1,38,39
 512 389 512 389 490 422.5 c 128,-1,40
 468 456 468 456 438 479.5 c 128,-1,41
 408 503 408 503 372 515.5 c 128,-1,42
 336 528 336 528 296 528 c 0,43,44
 243 528 243 528 197 507 c 128,-1,45
 151 486 151 486 116.5 449.5 c 128,-1,46
 82 413 82 413 62.5 363.5 c 128,-1,47
 43 314 43 314 43 258 c 256,48,49
 43 202 43 202 62 153 c 128,-1,50
 81 104 81 104 115 68 c 128,-1,51
 149 32 149 32 195 11 c 128,-1,52
 241 -10 241 -10 293 -10 c 0,0,1
294 29 m 0,53,54
 251 29 251 29 213 46.5 c 128,-1,55
 175 64 175 64 146.5 95 c 128,-1,56
 118 126 118 126 102 167 c 128,-1,57
 86 208 86 208 86 256 c 256,58,59
 86 304 86 304 102.5 346.5 c 128,-1,60
 119 389 119 389 147.5 421 c 128,-1,61
 176 453 176 453 214.5 471.5 c 128,-1,62
 253 490 253 490 296 490 c 256,63,64
 339 490 339 490 377 472 c 128,-1,65
 415 454 415 454 443 422.5 c 128,-1,66
 471 391 471 391 487.5 348.5 c 128,-1,67
 504 306 504 306 504 259 c 0,68,69
 504 211 504 211 487.5 169 c 128,-1,70
 471 127 471 127 442.5 96 c 128,-1,71
 414 65 414 65 376 47 c 128,-1,72
 338 29 338 29 294 29 c 0,53,54
548 275 m 1,73,74
 551 322 551 322 567.5 362 c 128,-1,75
 584 402 584 402 612 431 c 128,-1,76
 640 460 640 460 677 476.5 c 128,-1,77
 714 493 714 493 756 493 c 256,78,79
 798 493 798 493 835.5 476.5 c 128,-1,80
 873 460 873 460 901 431.5 c 128,-1,81
 929 403 929 403 947 362.5 c 128,-1,82
 965 322 965 322 968 275 c 1,83,-1
 548 275 l 1,73,74
EndSplineSet
EndChar

StartChar: Tbar
Encoding: 358 358 293
Width: 641
GlyphClass: 1
Flags: W
LayerCount: 2
Fore
SplineSet
564 308 m 1,0,-1
 564 343 l 1,1,-1
 77 343 l 1,2,-1
 77 308 l 1,3,-1
 564 308 l 1,0,-1
605 710 m 1,4,-1
 36 710 l 1,5,-1
 36 670 l 1,6,-1
 299 670 l 1,7,-1
 299 0 l 1,8,-1
 342 0 l 1,9,-1
 342 670 l 1,10,-1
 605 670 l 1,11,-1
 605 710 l 1,4,-1
EndSplineSet
EndChar

StartChar: tbar
Encoding: 359 359 294
Width: 316
GlyphClass: 1
Flags: W
LayerCount: 2
Fore
SplineSet
254 290 m 1,0,-1
 254 322 l 1,1,-1
 30 322 l 1,2,-1
 30 290 l 1,3,-1
 254 290 l 1,0,-1
291 59 m 1,4,5
 289 57 289 57 282 53 c 128,-1,6
 275 49 275 49 264 45 c 128,-1,7
 253 41 253 41 239 38 c 128,-1,8
 225 35 225 35 209 35 c 0,9,10
 184 35 184 35 164.5 49.5 c 128,-1,11
 145 64 145 64 143 93 c 2,12,-1
 143 484 l 1,13,-1
 265 484 l 1,14,-1
 265 520 l 1,15,-1
 143 520 l 1,16,-1
 143 699 l 1,17,-1
 100 699 l 1,18,-1
 100 520 l 1,19,-1
 27 520 l 1,20,-1
 27 484 l 1,21,-1
 100 484 l 1,22,-1
 100 84 l 2,23,24
 100 63 100 63 108.5 46.5 c 128,-1,25
 117 30 117 30 130 18.5 c 128,-1,26
 143 7 143 7 161.5 0.5 c 128,-1,27
 180 -6 180 -6 200 -6 c 0,28,29
 221 -6 221 -6 238.5 -1.5 c 128,-1,30
 256 3 256 3 270 8 c 128,-1,31
 284 13 284 13 293.5 18 c 128,-1,32
 303 23 303 23 305 25 c 2,33,-1
 291 59 l 1,4,5
EndSplineSet
EndChar

StartChar: uni018F
Encoding: 399 399 318
Width: 738
GlyphClass: 1
Flags: W
LayerCount: 2
Fore
SplineSet
365 -8 m 0,0,1
 434 -8 434 -8 493.5 19.5 c 128,-1,2
 553 47 553 47 597.5 95.5 c 128,-1,3
 642 144 642 144 667.5 209 c 128,-1,4
 693 274 693 274 693 348 c 0,5,6
 693 424 693 424 666.5 491 c 128,-1,7
 640 558 640 558 595.5 608 c 128,-1,8
 551 658 551 658 490.5 686.5 c 128,-1,9
 430 715 430 715 362 715 c 0,10,11
 316 715 316 715 273 702.5 c 128,-1,12
 230 690 230 690 192.5 667 c 128,-1,13
 155 644 155 644 126.5 613 c 128,-1,14
 98 582 98 582 82 545 c 1,15,-1
 123 526 l 1,16,17
 136 559 136 559 160 586.5 c 128,-1,18
 184 614 184 614 215.5 633 c 128,-1,19
 247 652 247 652 283.5 662.5 c 128,-1,20
 320 673 320 673 358 673 c 0,21,22
 414 673 414 673 464 650.5 c 128,-1,23
 514 628 514 628 552.5 587.5 c 128,-1,24
 591 547 591 547 615.5 491.5 c 128,-1,25
 640 436 640 436 645 372 c 1,26,-1
 32 372 l 2,27,28
 31 369 31 369 31 363 c 128,-1,29
 31 357 31 357 31 351 c 0,30,31
 31 277 31 277 57 211.5 c 128,-1,32
 83 146 83 146 128 97 c 128,-1,33
 173 48 173 48 234 20 c 128,-1,34
 295 -8 295 -8 365 -8 c 0,0,1
365 33 m 0,35,36
 307 33 307 33 256.5 55.5 c 128,-1,37
 206 78 206 78 168 118 c 128,-1,38
 130 158 130 158 106.5 212.5 c 128,-1,39
 83 267 83 267 79 331 c 1,40,-1
 646 331 l 1,41,42
 643 268 643 268 619.5 213 c 128,-1,43
 596 158 596 158 559 118.5 c 128,-1,44
 522 79 522 79 472 56 c 128,-1,45
 422 33 422 33 365 33 c 0,35,36
EndSplineSet
EndChar

StartChar: florin
Encoding: 402 402 319
Width: 517
GlyphClass: 1
Flags: W
LayerCount: 2
Fore
SplineSet
137 -175 m 0,0,1
 163 -175 163 -175 188.5 -164.5 c 128,-1,2
 214 -154 214 -154 234 -134.5 c 128,-1,3
 254 -115 254 -115 266.5 -88.5 c 128,-1,4
 279 -62 279 -62 279 -31 c 2,5,-1
 279 423 l 1,6,-1
 429 423 l 1,7,-1
 429 459 l 1,8,-1
 279 459 l 1,9,-1
 279 539 l 2,10,11
 279 618 279 618 307 660 c 128,-1,12
 335 702 335 702 388 702 c 0,13,14
 410 702 410 702 431 695 c 128,-1,15
 452 688 452 688 465 677 c 1,16,-1
 483 707 l 1,17,18
 466 722 466 722 438.5 731 c 128,-1,19
 411 740 411 740 381 740 c 0,20,21
 348 740 348 740 321 726 c 128,-1,22
 294 712 294 712 275.5 686.5 c 128,-1,23
 257 661 257 661 247 623 c 128,-1,24
 237 585 237 585 237 538 c 2,25,-1
 237 459 l 1,26,-1
 163 459 l 1,27,-1
 163 423 l 1,28,-1
 237 423 l 1,29,-1
 237 -32 l 2,30,31
 237 -54 237 -54 228 -73 c 128,-1,32
 219 -92 219 -92 204 -106 c 128,-1,33
 189 -120 189 -120 170.5 -128 c 128,-1,34
 152 -136 152 -136 133 -136 c 0,35,36
 113 -136 113 -136 92 -131 c 128,-1,37
 71 -126 71 -126 54 -111 c 1,38,-1
 30 -139 l 1,39,40
 51 -159 51 -159 78.5 -167 c 128,-1,41
 106 -175 106 -175 137 -175 c 0,0,1
EndSplineSet
EndChar

StartChar: Aringacute
Encoding: 506 506 328
Width: 675
GlyphClass: 1
Flags: W
LayerCount: 2
Fore
SplineSet
15 0 m 1,0,-1
 62 0 l 1,1,-1
 164 239 l 1,2,-1
 510 239 l 1,3,-1
 612 0 l 1,4,-1
 659 0 l 1,5,-1
 356 710 l 1,6,-1
 319 710 l 1,7,-1
 15 0 l 1,0,-1
175 275 m 1,8,-1
 338 656 l 1,9,-1
 498 275 l 1,10,-1
 175 275 l 1,8,-1
256 779 m 0,11,12
 256 745 256 745 279 723 c 128,-1,13
 302 701 302 701 338 701 c 0,14,15
 373 701 373 701 396 723 c 128,-1,16
 419 745 419 745 419 779 c 0,17,18
 419 814 419 814 396 836.5 c 128,-1,19
 373 859 373 859 338 859 c 0,20,21
 302 859 302 859 279 836.5 c 128,-1,22
 256 814 256 814 256 779 c 0,11,12
338 831 m 0,23,24
 359 831 359 831 374.5 817.5 c 128,-1,25
 390 804 390 804 390 779 c 0,26,27
 390 756 390 756 373.5 742 c 128,-1,28
 357 728 357 728 338 728 c 0,29,30
 316 728 316 728 301 742.5 c 128,-1,31
 286 757 286 757 286 779 c 0,32,33
 286 804 286 804 301 817.5 c 128,-1,34
 316 831 316 831 338 831 c 0,23,24
472 991 m 1,35,-1
 420 991 l 1,36,-1
 320 834 l 1,37,-1
 349 834 l 1,38,-1
 472 991 l 1,35,-1
EndSplineSet
EndChar

StartChar: uni0237
Encoding: 567 567 370
Width: 202
GlyphClass: 1
Flags: W
LayerCount: 2
Fore
SplineSet
-20 -175 m 0,0,1
 6 -175 6 -175 31.5 -164.5 c 128,-1,2
 57 -154 57 -154 77 -134.5 c 128,-1,3
 97 -115 97 -115 109.5 -88 c 128,-1,4
 122 -61 122 -61 122 -30 c 2,5,-1
 122 520 l 1,6,-1
 80 520 l 1,7,-1
 80 -32 l 2,8,9
 80 -54 80 -54 71 -73 c 128,-1,10
 62 -92 62 -92 47 -106 c 128,-1,11
 32 -120 32 -120 13.5 -128 c 128,-1,12
 -5 -136 -5 -136 -24 -136 c 0,13,14
 -45 -136 -45 -136 -65.5 -131 c 128,-1,15
 -86 -126 -86 -126 -103 -111 c 1,16,-1
 -127 -139 l 1,17,18
 -106 -159 -106 -159 -78.5 -167 c 128,-1,19
 -51 -175 -51 -175 -20 -175 c 0,0,1
EndSplineSet
EndChar

StartChar: uni0259
Encoding: 601 601 371
Width: 581
GlyphClass: 1
Flags: W
LayerCount: 2
Fore
SplineSet
287 -10 m 256,0,1
 341 -10 341 -10 387 11 c 128,-1,2
 433 32 433 32 466.5 68 c 128,-1,3
 500 104 500 104 519 152 c 128,-1,4
 538 200 538 200 538 255 c 0,5,6
 538 311 538 311 518.5 360.5 c 128,-1,7
 499 410 499 410 464.5 447.5 c 128,-1,8
 430 485 430 485 383.5 506.5 c 128,-1,9
 337 528 337 528 283 528 c 0,10,11
 247 528 247 528 213.5 518.5 c 128,-1,12
 180 509 180 509 152 492 c 128,-1,13
 124 475 124 475 102.5 452 c 128,-1,14
 81 429 81 429 70 402 c 1,15,-1
 108 391 l 1,16,17
 118 414 118 414 135.5 432.5 c 128,-1,18
 153 451 153 451 176.5 464.5 c 128,-1,19
 200 478 200 478 226.5 485.5 c 128,-1,20
 253 493 253 493 281 493 c 0,21,22
 323 493 323 493 360 476.5 c 128,-1,23
 397 460 397 460 425.5 431 c 128,-1,24
 454 402 454 402 472 362 c 128,-1,25
 490 322 490 322 494 276 c 1,26,-1
 33 276 l 1,27,28
 33 272 33 272 32.5 267.5 c 128,-1,29
 32 263 32 263 32 259 c 0,30,31
 32 203 32 203 52 154 c 128,-1,32
 72 105 72 105 106 68.5 c 128,-1,33
 140 32 140 32 186.5 11 c 128,-1,34
 233 -10 233 -10 287 -10 c 256,0,1
287 25 m 256,35,36
 245 25 245 25 207.5 41.5 c 128,-1,37
 170 58 170 58 141.5 86.5 c 128,-1,38
 113 115 113 115 95.5 155.5 c 128,-1,39
 78 196 78 196 75 243 c 1,40,-1
 495 243 l 1,41,42
 492 197 492 197 475 156.5 c 128,-1,43
 458 116 458 116 430.5 87 c 128,-1,44
 403 58 403 58 366 41.5 c 128,-1,45
 329 25 329 25 287 25 c 256,35,36
EndSplineSet
EndChar

StartChar: uni02BE
Encoding: 702 702 376
Width: 161
GlyphClass: 1
Flags: W
LayerCount: 2
Fore
SplineSet
40 597 m 1,0,1
 75 597 75 597 98 619 c 128,-1,2
 121 641 121 641 121 675 c 0,3,4
 121 710 121 710 98 732.5 c 128,-1,5
 75 755 75 755 40 755 c 1,6,-1
 40 728 l 1,7,8
 61 728 61 728 76.5 714 c 128,-1,9
 92 700 92 700 92 676 c 0,10,11
 92 653 92 653 75.5 638.5 c 128,-1,12
 59 624 59 624 40 624 c 1,13,-1
 40 597 l 1,0,1
EndSplineSet
EndChar

StartChar: uni02BF
Encoding: 703 703 377
Width: 161
GlyphClass: 1
Flags: W
LayerCount: 2
Fore
SplineSet
121 624 m 1,0,1
 99 624 99 624 84.5 639 c 128,-1,2
 70 654 70 654 70 676 c 0,3,4
 70 700 70 700 85 714 c 128,-1,5
 100 728 100 728 121 728 c 1,6,-1
 121 755 l 1,7,8
 86 755 86 755 63 732.5 c 128,-1,9
 40 710 40 710 40 675 c 0,10,11
 40 641 40 641 63 619 c 128,-1,12
 86 597 86 597 121 597 c 1,13,-1
 121 624 l 1,0,1
EndSplineSet
EndChar

StartChar: uni02C8
Encoding: 712 712 380
Width: 223
GlyphClass: 1
Flags: W
LayerCount: 2
Fore
SplineSet
92 775 m 1,0,-1
 92 364 l 1,1,-1
 131 364 l 1,2,-1
 131 775 l 1,3,-1
 92 775 l 1,0,-1
EndSplineSet
EndChar

StartChar: uni02C9
Encoding: 713 713 381
Width: 388
GlyphClass: 1
Flags: W
LayerCount: 2
Fore
SplineSet
336 675 m 1,0,-1
 336 708 l 1,1,-1
 52 708 l 1,2,-1
 52 675 l 1,3,-1
 336 675 l 1,0,-1
EndSplineSet
EndChar

StartChar: uni02CA
Encoding: 714 714 382
Width: 181
GlyphClass: 1
Flags: W
LayerCount: 2
Fore
SplineSet
94 546 m 1,0,-1
 110 713 l 1,1,-1
 71 713 l 1,2,-1
 71 546 l 1,3,-1
 94 546 l 1,0,-1
EndSplineSet
EndChar

StartChar: uni02CB
Encoding: 715 715 383
Width: 181
GlyphClass: 1
Flags: W
LayerCount: 2
Fore
SplineSet
110 546 m 1,0,-1
 110 713 l 1,1,-1
 71 713 l 1,2,-1
 87 546 l 1,3,-1
 110 546 l 1,0,-1
EndSplineSet
EndChar

StartChar: uni02CC
Encoding: 716 716 384
Width: 223
GlyphClass: 1
Flags: W
LayerCount: 2
Fore
SplineSet
92 281 m 1,0,-1
 92 -130 l 1,1,-1
 131 -130 l 1,2,-1
 131 281 l 1,3,-1
 92 281 l 1,0,-1
EndSplineSet
EndChar

StartChar: tilde
Encoding: 732 732 389
Width: 394
GlyphClass: 1
Flags: W
LayerCount: 2
Fore
SplineSet
256 651 m 0,0,1
 285 651 285 651 302.5 661.5 c 128,-1,2
 320 672 320 672 329.5 686 c 128,-1,3
 339 700 339 700 342 713 c 128,-1,4
 345 726 345 726 345 730 c 1,5,-1
 315 730 l 1,6,7
 315 729 315 729 313.5 721 c 128,-1,8
 312 713 312 713 306 704.5 c 128,-1,9
 300 696 300 696 288.5 689 c 128,-1,10
 277 682 277 682 257 682 c 0,11,12
 238 682 238 682 223.5 688 c 128,-1,13
 209 694 209 694 195 701.5 c 128,-1,14
 181 709 181 709 166 715 c 128,-1,15
 151 721 151 721 130 721 c 0,16,17
 104 721 104 721 88 710.5 c 128,-1,18
 72 700 72 700 63 686 c 128,-1,19
 54 672 54 672 51.5 659 c 128,-1,20
 49 646 49 646 49 642 c 1,21,-1
 79 642 l 1,22,23
 79 644 79 644 81 652 c 128,-1,24
 83 660 83 660 88.5 668.5 c 128,-1,25
 94 677 94 677 104 683.5 c 128,-1,26
 114 690 114 690 130 690 c 0,27,28
 145 690 145 690 158.5 684 c 128,-1,29
 172 678 172 678 186.5 670.5 c 128,-1,30
 201 663 201 663 217.5 657 c 128,-1,31
 234 651 234 651 256 651 c 0,0,1
EndSplineSet
EndChar

StartChar: gravecomb
Encoding: 768 768 391
Width: 209
GlyphClass: 1
Flags: W
LayerCount: 2
Fore
SplineSet
36 760 m 1,0,-1
 158 600 l 1,1,-1
 187 600 l 1,2,-1
 88 760 l 1,3,-1
 36 760 l 1,0,-1
EndSplineSet
EndChar

StartChar: acutecomb
Encoding: 769 769 392
Width: 209
GlyphClass: 1
Flags: W
LayerCount: 2
Fore
SplineSet
187 760 m 1,0,-1
 135 760 l 1,1,-1
 36 600 l 1,2,-1
 65 600 l 1,3,-1
 187 760 l 1,0,-1
EndSplineSet
EndChar

StartChar: uni0302
Encoding: 770 770 393
Width: 315
GlyphClass: 1
Flags: W
LayerCount: 2
Fore
SplineSet
19 600 m 1,0,-1
 48 600 l 1,1,-1
 156 697 l 1,2,-1
 263 600 l 1,3,-1
 292 600 l 1,4,-1
 182 727 l 1,5,-1
 129 727 l 1,6,-1
 19 600 l 1,0,-1
EndSplineSet
EndChar

StartChar: tildecomb
Encoding: 771 771 394
Width: 456
GlyphClass: 1
Flags: W
LayerCount: 2
Fore
SplineSet
287 651 m 0,0,1
 316 651 316 651 334 661.5 c 128,-1,2
 352 672 352 672 361 686 c 128,-1,3
 370 700 370 700 373.5 713 c 128,-1,4
 377 726 377 726 377 730 c 1,5,-1
 346 730 l 1,6,7
 346 729 346 729 344.5 721 c 128,-1,8
 343 713 343 713 337 704.5 c 128,-1,9
 331 696 331 696 319.5 689 c 128,-1,10
 308 682 308 682 288 682 c 0,11,12
 269 682 269 682 254.5 688 c 128,-1,13
 240 694 240 694 226 701.5 c 128,-1,14
 212 709 212 709 197 715 c 128,-1,15
 182 721 182 721 162 721 c 0,16,17
 135 721 135 721 119 710.5 c 128,-1,18
 103 700 103 700 94.5 686 c 128,-1,19
 86 672 86 672 83 659 c 128,-1,20
 80 646 80 646 80 642 c 1,21,-1
 111 642 l 1,22,23
 111 644 111 644 112.5 652 c 128,-1,24
 114 660 114 660 119.5 668.5 c 128,-1,25
 125 677 125 677 135 683.5 c 128,-1,26
 145 690 145 690 161 690 c 0,27,28
 176 690 176 690 190 684 c 128,-1,29
 204 678 204 678 218 670.5 c 128,-1,30
 232 663 232 663 248.5 657 c 128,-1,31
 265 651 265 651 287 651 c 0,0,1
EndSplineSet
EndChar

StartChar: uni0304
Encoding: 772 772 395
Width: 388
GlyphClass: 1
Flags: W
LayerCount: 2
Fore
SplineSet
336 675 m 1,0,-1
 336 708 l 1,1,-1
 52 708 l 1,2,-1
 52 675 l 1,3,-1
 336 675 l 1,0,-1
EndSplineSet
EndChar

StartChar: uni0306
Encoding: 774 774 396
Width: 264
GlyphClass: 1
Flags: W
LayerCount: 2
Fore
SplineSet
132 667 m 0,0,1
 110 667 110 667 93 686.5 c 128,-1,2
 76 706 76 706 76 730 c 1,3,-1
 47 730 l 1,4,5
 47 712 47 712 53.5 696 c 128,-1,6
 60 680 60 680 72 668 c 128,-1,7
 84 656 84 656 99 649 c 128,-1,8
 114 642 114 642 132 642 c 256,9,10
 150 642 150 642 165 649 c 128,-1,11
 180 656 180 656 192 668 c 128,-1,12
 204 680 204 680 210.5 696 c 128,-1,13
 217 712 217 712 217 730 c 1,14,-1
 189 730 l 1,15,16
 186 704 186 704 169.5 685.5 c 128,-1,17
 153 667 153 667 132 667 c 0,0,1
EndSplineSet
EndChar

StartChar: uni0307
Encoding: 775 775 397
Width: 140
GlyphClass: 1
Flags: W
LayerCount: 2
Fore
SplineSet
29 684 m 256,0,1
 29 667 29 667 41 655 c 128,-1,2
 53 643 53 643 70 643 c 256,3,4
 87 643 87 643 99 655 c 128,-1,5
 111 667 111 667 111 684 c 256,6,7
 111 701 111 701 99 713 c 128,-1,8
 87 725 87 725 70 725 c 256,9,10
 53 725 53 725 41 713 c 128,-1,11
 29 701 29 701 29 684 c 256,0,1
EndSplineSet
EndChar

StartChar: uni0308
Encoding: 776 776 398
Width: 280
GlyphClass: 1
Flags: W
LayerCount: 2
Fore
SplineSet
17 684 m 256,0,1
 17 667 17 667 29 655 c 128,-1,2
 41 643 41 643 58 643 c 256,3,4
 75 643 75 643 87 655 c 128,-1,5
 99 667 99 667 99 684 c 256,6,7
 99 701 99 701 87 713 c 128,-1,8
 75 725 75 725 58 725 c 256,9,10
 41 725 41 725 29 713 c 128,-1,11
 17 701 17 701 17 684 c 256,0,1
180 684 m 256,12,13
 180 667 180 667 192 655 c 128,-1,14
 204 643 204 643 221 643 c 256,15,16
 238 643 238 643 250 655 c 128,-1,17
 262 667 262 667 262 684 c 256,18,19
 262 701 262 701 250 713 c 128,-1,20
 238 725 238 725 221 725 c 256,21,22
 204 725 204 725 192 713 c 128,-1,23
 180 701 180 701 180 684 c 256,12,13
EndSplineSet
EndChar

StartChar: hookabovecomb
Encoding: 777 777 399
Width: 600
GlyphClass: 1
Flags: W
LayerCount: 2
Fore
SplineSet
253 687 m 1,0,1
 267 700 267 700 276.5 705.5 c 128,-1,2
 286 711 286 711 300 711 c 0,3,4
 319 711 319 711 327.5 700.5 c 128,-1,5
 336 690 336 690 336 676 c 0,6,7
 336 664 336 664 328 651.5 c 128,-1,8
 320 639 320 639 304 621 c 1,9,-1
 320 604 l 1,10,11
 341 626 341 626 353.5 642 c 128,-1,12
 366 658 366 658 366 678 c 0,13,14
 366 705 366 705 349 721.5 c 128,-1,15
 332 738 332 738 304 738 c 0,16,17
 282 738 282 738 266.5 729.5 c 128,-1,18
 251 721 251 721 234 706 c 1,19,-1
 253 687 l 1,0,1
EndSplineSet
EndChar

StartChar: uni030A
Encoding: 778 778 400
Width: 243
GlyphClass: 1
Flags: W
LayerCount: 2
Fore
SplineSet
40 676 m 0,0,1
 40 641 40 641 63 619 c 128,-1,2
 86 597 86 597 121 597 c 0,3,4
 157 597 157 597 180 619 c 128,-1,5
 203 641 203 641 203 676 c 0,6,7
 203 710 203 710 180 732.5 c 128,-1,8
 157 755 157 755 121 755 c 0,9,10
 86 755 86 755 63 732.5 c 128,-1,11
 40 710 40 710 40 676 c 0,0,1
121 728 m 0,12,13
 143 728 143 728 158 714 c 128,-1,14
 173 700 173 700 173 676 c 0,15,16
 173 653 173 653 157 638.5 c 128,-1,17
 141 624 141 624 121 624 c 0,18,19
 99 624 99 624 84.5 639 c 128,-1,20
 70 654 70 654 70 676 c 0,21,22
 70 700 70 700 85 714 c 128,-1,23
 100 728 100 728 121 728 c 0,12,13
EndSplineSet
EndChar

StartChar: uni030C
Encoding: 780 780 402
Width: 315
GlyphClass: 1
Flags: W
LayerCount: 2
Fore
SplineSet
19 727 m 1,0,-1
 129 600 l 1,1,-1
 182 600 l 1,2,-1
 292 727 l 1,3,-1
 263 727 l 1,4,-1
 156 630 l 1,5,-1
 48 727 l 1,6,-1
 19 727 l 1,0,-1
EndSplineSet
EndChar

StartChar: uni0311
Encoding: 785 785 404
Width: 264
GlyphClass: 1
Flags: W
LayerCount: 2
Fore
SplineSet
132 704 m 0,0,1
 153 704 153 704 169.5 686 c 128,-1,2
 186 668 186 668 189 642 c 1,3,-1
 217 642 l 1,4,5
 217 660 217 660 210.5 676 c 128,-1,6
 204 692 204 692 192 704 c 128,-1,7
 180 716 180 716 165 723 c 128,-1,8
 150 730 150 730 132 730 c 256,9,10
 114 730 114 730 99 723 c 128,-1,11
 84 716 84 716 72 704 c 128,-1,12
 60 692 60 692 53.5 676 c 128,-1,13
 47 660 47 660 47 642 c 1,14,-1
 76 642 l 1,15,16
 76 666 76 666 93 685 c 128,-1,17
 110 704 110 704 132 704 c 0,0,1
EndSplineSet
EndChar

StartChar: uni0312
Encoding: 786 786 405
Width: 136
GlyphClass: 1
Flags: W
LayerCount: 2
Fore
SplineSet
30 605 m 1,0,-1
 82 605 l 1,1,-1
 158 728 l 1,2,-1
 129 728 l 1,3,-1
 30 605 l 1,0,-1
EndSplineSet
EndChar

StartChar: uni031B
Encoding: 795 795 406
Width: 236
GlyphClass: 1
Flags: W
LayerCount: 2
Fore
SplineSet
50 522 m 1,0,1
 67 522 67 522 84 524.5 c 128,-1,2
 101 527 101 527 115 531.5 c 128,-1,3
 129 536 129 536 141 542.5 c 128,-1,4
 153 549 153 549 160 558 c 0,5,6
 168 567 168 567 172.5 576 c 128,-1,7
 177 585 177 585 180 594.5 c 128,-1,8
 183 604 183 604 184 615.5 c 128,-1,9
 185 627 185 627 186 641 c 1,10,-1
 148 641 l 1,11,12
 147 619 147 619 143.5 604.5 c 128,-1,13
 140 590 140 590 131 580 c 0,14,15
 121 569 121 569 100.5 563 c 128,-1,16
 80 557 80 557 51 557 c 1,17,-1
 50 522 l 1,0,1
EndSplineSet
EndChar

StartChar: dotbelowcomb
Encoding: 803 803 407
Width: 140
GlyphClass: 1
Flags: W
LayerCount: 2
Fore
SplineSet
29 -106 m 256,0,1
 29 -123 29 -123 41 -135 c 128,-1,2
 53 -147 53 -147 70 -147 c 256,3,4
 87 -147 87 -147 99 -135 c 128,-1,5
 111 -123 111 -123 111 -106 c 256,6,7
 111 -89 111 -89 99 -77 c 128,-1,8
 87 -65 87 -65 70 -65 c 256,9,10
 53 -65 53 -65 41 -77 c 128,-1,11
 29 -89 29 -89 29 -106 c 256,0,1
EndSplineSet
EndChar

StartChar: uni0324
Encoding: 804 804 408
Width: 280
GlyphClass: 1
Flags: W
LayerCount: 2
Fore
SplineSet
87 -105 m 0,0,1
 87 -122 87 -122 99.5 -134.5 c 128,-1,2
 112 -147 112 -147 129 -147 c 256,3,4
 146 -147 146 -147 158 -134.5 c 128,-1,5
 170 -122 170 -122 170 -105 c 256,6,7
 170 -88 170 -88 158 -76.5 c 128,-1,8
 146 -65 146 -65 129 -65 c 256,9,10
 112 -65 112 -65 99.5 -77 c 128,-1,11
 87 -89 87 -89 87 -105 c 0,0,1
110 -105 m 0,12,13
 110 -122 110 -122 122 -134.5 c 128,-1,14
 134 -147 134 -147 151 -147 c 256,15,16
 168 -147 168 -147 180 -134.5 c 128,-1,17
 192 -122 192 -122 192 -105 c 256,18,19
 192 -88 192 -88 180 -76.5 c 128,-1,20
 168 -65 168 -65 151 -65 c 256,21,22
 134 -65 134 -65 122 -77 c 128,-1,23
 110 -89 110 -89 110 -105 c 0,12,13
EndSplineSet
EndChar

StartChar: uni0326
Encoding: 806 806 409
Width: 136
GlyphClass: 1
Flags: W
LayerCount: 2
Fore
SplineSet
62 -211 m 1,0,-1
 107 -50 l 1,1,-1
 56 -50 l 1,2,-1
 32 -211 l 1,3,-1
 62 -211 l 1,0,-1
EndSplineSet
EndChar

StartChar: uni0327
Encoding: 807 807 410
Width: 267
GlyphClass: 1
Flags: W
LayerCount: 2
Fore
SplineSet
53 -153 m 0,0,1
 74 -164 74 -164 99.5 -168 c 128,-1,2
 125 -172 125 -172 149 -172 c 0,3,4
 165 -172 165 -172 181 -169 c 128,-1,5
 197 -166 197 -166 210 -159.5 c 128,-1,6
 223 -153 223 -153 231.5 -140.5 c 128,-1,7
 240 -128 240 -128 240 -109 c 0,8,9
 240 -76 240 -76 218.5 -63.5 c 128,-1,10
 197 -51 197 -51 168 -51 c 0,11,12
 158 -51 158 -51 147.5 -52 c 128,-1,13
 137 -53 137 -53 128 -57 c 1,14,-1
 162 -1 l 1,15,16
 160 0 160 0 156.5 2 c 128,-1,17
 153 4 153 4 149.5 5.5 c 128,-1,18
 146 7 146 7 142.5 8.5 c 128,-1,19
 139 10 139 10 137 11 c 2,20,-1
 81 -88 l 1,21,22
 101 -81 101 -81 121 -77 c 128,-1,23
 141 -73 141 -73 162 -73 c 0,24,25
 182 -73 182 -73 196.5 -80 c 128,-1,26
 211 -87 211 -87 211 -110 c 0,27,28
 211 -122 211 -122 205.5 -129 c 128,-1,29
 200 -136 200 -136 191.5 -140 c 128,-1,30
 183 -144 183 -144 173 -145.5 c 128,-1,31
 163 -147 163 -147 153 -147 c 0,32,33
 131 -147 131 -147 108 -142.5 c 128,-1,34
 85 -138 85 -138 66 -128 c 1,35,36
 65 -130 65 -130 62.5 -133.5 c 128,-1,37
 60 -137 60 -137 58 -140.5 c 128,-1,38
 56 -144 56 -144 54.5 -147.5 c 128,-1,39
 53 -151 53 -151 53 -153 c 0,0,1
EndSplineSet
EndChar

StartChar: uni0328
Encoding: 808 808 411
Width: 220
GlyphClass: 1
Flags: W
LayerCount: 2
Fore
SplineSet
53 -102 m 0,0,1
 53 -115 53 -115 57.5 -126 c 128,-1,2
 62 -137 62 -137 72.5 -146 c 128,-1,3
 83 -155 83 -155 101 -162 c 128,-1,4
 119 -169 119 -169 146 -172 c 1,5,-1
 160 -142 l 1,6,7
 121 -136 121 -136 103.5 -126 c 128,-1,8
 86 -116 86 -116 86 -96 c 256,9,10
 86 -76 86 -76 104 -54 c 128,-1,11
 122 -32 122 -32 163 0 c 1,12,-1
 150 14 l 1,13,-1
 138 14 l 1,14,15
 96 -18 96 -18 74.5 -45.5 c 128,-1,16
 53 -73 53 -73 53 -102 c 0,0,1
EndSplineSet
EndChar

StartChar: uni032E
Encoding: 814 814 412
Width: 264
GlyphClass: 1
Flags: W
LayerCount: 2
Fore
SplineSet
132 -109 m 0,0,1
 110 -109 110 -109 93 -90 c 128,-1,2
 76 -71 76 -71 76 -46 c 1,3,-1
 47 -46 l 1,4,5
 47 -64 47 -64 53.5 -80 c 128,-1,6
 60 -96 60 -96 72 -108 c 128,-1,7
 84 -120 84 -120 99 -127.5 c 128,-1,8
 114 -135 114 -135 132 -135 c 256,9,10
 150 -135 150 -135 165 -127.5 c 128,-1,11
 180 -120 180 -120 192 -108 c 128,-1,12
 204 -96 204 -96 210.5 -80 c 128,-1,13
 217 -64 217 -64 217 -46 c 1,14,-1
 189 -46 l 1,15,16
 186 -73 186 -73 169.5 -91 c 128,-1,17
 153 -109 153 -109 132 -109 c 0,0,1
EndSplineSet
EndChar

StartChar: uni0331
Encoding: 817 817 413
Width: 388
GlyphClass: 1
Flags: W
LayerCount: 2
Fore
SplineSet
336 -111 m 1,0,-1
 336 -78 l 1,1,-1
 52 -78 l 1,2,-1
 52 -111 l 1,3,-1
 336 -111 l 1,0,-1
EndSplineSet
EndChar

StartChar: uni0335
Encoding: 821 821 414
Width: 324
GlyphClass: 1
Flags: W
LayerCount: 2
Fore
SplineSet
274 290 m 1,0,-1
 274 322 l 1,1,-1
 50 322 l 1,2,-1
 50 290 l 1,3,-1
 274 290 l 1,0,-1
EndSplineSet
EndChar

StartChar: tonos
Encoding: 900 900 416
Width: 145
GlyphClass: 1
Flags: W
LayerCount: 2
Fore
SplineSet
66 778 m 1,0,-1
 42 577 l 1,1,-1
 76 571 l 1,2,-1
 103 772 l 1,3,-1
 66 778 l 1,0,-1
EndSplineSet
EndChar

StartChar: dieresistonos
Encoding: 901 901 417
Width: 336
GlyphClass: 1
Flags: W
LayerCount: 2
Fore
SplineSet
4 640 m 0,0,1
 4 622 4 622 17 608 c 128,-1,2
 30 594 30 594 50 594 c 0,3,4
 71 594 71 594 83 608 c 128,-1,5
 95 622 95 622 95 640 c 0,6,7
 95 661 95 661 83 673 c 128,-1,8
 71 685 71 685 50 685 c 0,9,10
 30 685 30 685 17 673 c 128,-1,11
 4 661 4 661 4 640 c 0,0,1
241 640 m 0,12,13
 241 622 241 622 255 608 c 128,-1,14
 269 594 269 594 287 594 c 0,15,16
 308 594 308 594 320 608 c 128,-1,17
 332 622 332 622 332 640 c 0,18,19
 332 661 332 661 320 673 c 128,-1,20
 308 685 308 685 287 685 c 0,21,22
 269 685 269 685 255 673 c 128,-1,23
 241 661 241 661 241 640 c 0,12,13
168 796 m 1,24,-1
 144 595 l 1,25,-1
 178 590 l 1,26,-1
 205 790 l 1,27,-1
 168 796 l 1,24,-1
EndSplineSet
EndChar

StartChar: Alphatonos
Encoding: 902 902 418
Width: 668
GlyphClass: 1
Flags: W
LayerCount: 2
Fore
SplineSet
15 0 m 1,0,-1
 62 0 l 1,1,-1
 164 239 l 1,2,-1
 510 239 l 1,3,-1
 612 0 l 1,4,-1
 659 0 l 1,5,-1
 356 710 l 1,6,-1
 319 710 l 1,7,-1
 15 0 l 1,0,-1
175 275 m 1,8,-1
 338 656 l 1,9,-1
 498 275 l 1,10,-1
 175 275 l 1,8,-1
254 853 m 1,11,-1
 153 650 l 1,12,-1
 178 632 l 1,13,-1
 290 826 l 1,14,-1
 254 853 l 1,11,-1
EndSplineSet
EndChar

StartChar: Epsilontonos
Encoding: 904 904 420
Width: 623
GlyphClass: 1
Flags: W
LayerCount: 2
Fore
SplineSet
148 40 m 1,0,-1
 148 344 l 1,1,-1
 514 344 l 1,2,-1
 514 382 l 1,3,-1
 148 382 l 1,4,-1
 148 670 l 1,5,-1
 567 670 l 1,6,-1
 567 710 l 1,7,-1
 105 710 l 1,8,-1
 105 0 l 1,9,-1
 576 0 l 1,10,-1
 576 40 l 1,11,-1
 148 40 l 1,0,-1
125 940 m 1,12,-1
 24 737 l 1,13,-1
 49 720 l 1,14,-1
 162 913 l 1,15,-1
 125 940 l 1,12,-1
EndSplineSet
EndChar

StartChar: Etatonos
Encoding: 905 905 421
Width: 701
GlyphClass: 1
Flags: W
LayerCount: 2
Fore
SplineSet
607 710 m 1,0,-1
 607 383 l 1,1,-1
 148 383 l 1,2,-1
 148 710 l 1,3,-1
 105 710 l 1,4,-1
 105 0 l 1,5,-1
 148 0 l 1,6,-1
 148 343 l 1,7,-1
 607 343 l 1,8,-1
 607 0 l 1,9,-1
 650 0 l 1,10,-1
 650 710 l 1,11,-1
 607 710 l 1,0,-1
81 849 m 1,12,-1
 -20 646 l 1,13,-1
 5 628 l 1,14,-1
 118 822 l 1,15,-1
 81 849 l 1,12,-1
EndSplineSet
EndChar

StartChar: Iotatonos
Encoding: 906 906 422
Width: 257
GlyphClass: 1
Flags: W
LayerCount: 2
Fore
SplineSet
147 0 m 1,0,-1
 147 710 l 1,1,-1
 104 710 l 1,2,-1
 104 0 l 1,3,-1
 147 0 l 1,0,-1
90 844 m 1,4,-1
 -12 642 l 1,5,-1
 14 624 l 1,6,-1
 126 817 l 1,7,-1
 90 844 l 1,4,-1
EndSplineSet
EndChar

StartChar: Omicrontonos
Encoding: 908 908 423
Width: 801
GlyphClass: 1
Flags: W
LayerCount: 2
Fore
SplineSet
382 -5 m 0,0,1
 453 -5 453 -5 513.5 24.5 c 128,-1,2
 574 54 574 54 618.5 103.5 c 128,-1,3
 663 153 663 153 688.5 218 c 128,-1,4
 714 283 714 283 714 355 c 0,5,6
 714 421 714 421 690 485.5 c 128,-1,7
 666 550 666 550 622 601 c 128,-1,8
 578 652 578 652 517.5 683.5 c 128,-1,9
 457 715 457 715 383 715 c 0,10,11
 312 715 312 715 251 685.5 c 128,-1,12
 190 656 190 656 145.5 606 c 128,-1,13
 101 556 101 556 75.5 491 c 128,-1,14
 50 426 50 426 50 355 c 0,15,16
 50 287 50 287 74 222 c 128,-1,17
 98 157 98 157 142 107 c 128,-1,18
 186 57 186 57 247 26 c 128,-1,19
 308 -5 308 -5 382 -5 c 0,0,1
94 355 m 0,20,21
 94 414 94 414 114.5 471.5 c 128,-1,22
 135 529 135 529 173 574 c 128,-1,23
 211 619 211 619 264 646.5 c 128,-1,24
 317 674 317 674 383 674 c 0,25,26
 444 674 444 674 496.5 648 c 128,-1,27
 549 622 549 622 588 577.5 c 128,-1,28
 627 533 627 533 648.5 475 c 128,-1,29
 670 417 670 417 670 355 c 0,30,31
 670 296 670 296 649.5 238.5 c 128,-1,32
 629 181 629 181 591.5 136 c 128,-1,33
 554 91 554 91 500.5 63 c 128,-1,34
 447 35 447 35 382 35 c 0,35,36
 319 35 319 35 266 61.5 c 128,-1,37
 213 88 213 88 175 132.5 c 128,-1,38
 137 177 137 177 115.5 235 c 128,-1,39
 94 293 94 293 94 355 c 0,20,21
108 844 m 1,40,-1
 7 642 l 1,41,-1
 32 624 l 1,42,-1
 144 817 l 1,43,-1
 108 844 l 1,40,-1
EndSplineSet
EndChar

StartChar: Upsilontonos
Encoding: 910 910 424
Width: 649
GlyphClass: 1
Flags: W
LayerCount: 2
Fore
SplineSet
320 0 m 1,0,-1
 361 0 l 1,1,-1
 361 248 l 2,2,3
 362 314 362 314 379 371.5 c 128,-1,4
 396 429 396 429 426 480.5 c 128,-1,5
 456 532 456 532 498 580.5 c 128,-1,6
 540 629 540 629 589 677 c 1,7,-1
 560 705 l 1,8,9
 513 657 513 657 478.5 620.5 c 128,-1,10
 444 584 444 584 418.5 548.5 c 128,-1,11
 393 513 393 513 375.5 473.5 c 128,-1,12
 358 434 358 434 342 381 c 1,13,-1
 337 381 l 1,14,15
 321 434 321 434 303 473.5 c 128,-1,16
 285 513 285 513 260 549 c 128,-1,17
 235 585 235 585 201 621.5 c 128,-1,18
 167 658 167 658 120 705 c 1,19,-1
 93 677 l 1,20,21
 137 634 137 634 177.5 588.5 c 128,-1,22
 218 543 218 543 250 491.5 c 128,-1,23
 282 440 282 440 301 380 c 128,-1,24
 320 320 320 320 320 248 c 2,25,-1
 320 0 l 1,0,-1
106 844 m 1,26,-1
 4 642 l 1,27,-1
 30 624 l 1,28,-1
 142 817 l 1,29,-1
 106 844 l 1,26,-1
EndSplineSet
EndChar

StartChar: Omegatonos
Encoding: 911 911 425
Width: 704
GlyphClass: 1
Flags: W
LayerCount: 2
Fore
SplineSet
65 0 m 1,0,-1
 304 0 l 1,1,-1
 304 128 l 1,2,3
 260 140 260 140 222 164.5 c 128,-1,4
 184 189 184 189 156.5 224.5 c 128,-1,5
 129 260 129 260 113.5 306 c 128,-1,6
 98 352 98 352 98 406 c 0,7,8
 98 463 98 463 117 512 c 128,-1,9
 136 561 136 561 169.5 597 c 128,-1,10
 203 633 203 633 249 653.5 c 128,-1,11
 295 674 295 674 349 673 c 0,12,13
 403 674 403 674 449.5 653.5 c 128,-1,14
 496 633 496 633 529.5 597 c 128,-1,15
 563 561 563 561 582.5 512.5 c 128,-1,16
 602 464 602 464 601 407 c 0,17,18
 602 352 602 352 586 305.5 c 128,-1,19
 570 259 570 259 542 224 c 128,-1,20
 514 189 514 189 475.5 164 c 128,-1,21
 437 139 437 139 393 128 c 1,22,-1
 393 0 l 1,23,-1
 633 0 l 1,24,-1
 633 42 l 1,25,-1
 414 42 l 1,26,-1
 436 19 l 1,27,-1
 436 119 l 1,28,-1
 422 93 l 1,29,30
 470 109 470 109 511 138 c 128,-1,31
 552 167 552 167 582.5 207 c 128,-1,32
 613 247 613 247 630.5 297.5 c 128,-1,33
 648 348 648 348 648 407 c 0,34,35
 648 473 648 473 625 530 c 128,-1,36
 602 587 602 587 562 628 c 128,-1,37
 522 669 522 669 467.5 692.5 c 128,-1,38
 413 716 413 716 349 716 c 256,39,40
 285 716 285 716 231 692.5 c 128,-1,41
 177 669 177 669 137.5 628 c 128,-1,42
 98 587 98 587 75.5 530.5 c 128,-1,43
 53 474 53 474 53 407 c 0,44,45
 53 348 53 348 70 297 c 128,-1,46
 87 246 87 246 117 206 c 128,-1,47
 147 166 147 166 188 137 c 128,-1,48
 229 108 229 108 278 93 c 1,49,-1
 262 119 l 1,50,-1
 262 19 l 1,51,-1
 285 42 l 1,52,-1
 66 42 l 1,53,-1
 65 0 l 1,0,-1
130 844 m 1,54,-1
 29 642 l 1,55,-1
 54 624 l 1,56,-1
 166 817 l 1,57,-1
 130 844 l 1,54,-1
EndSplineSet
EndChar

StartChar: iotadieresistonos
Encoding: 912 912 426
Width: 311
GlyphClass: 1
Flags: W
LayerCount: 2
Fore
SplineSet
200 -8 m 0,0,1
 205 -8 205 -8 219 -7 c 128,-1,2
 233 -6 233 -6 248 1 c 1,3,-1
 235 40 l 1,4,5
 225 37 225 37 218.5 34.5 c 128,-1,6
 212 32 212 32 203 31 c 0,7,8
 181 32 181 32 173 52 c 128,-1,9
 165 72 165 72 163 127 c 0,10,11
 164 151 164 151 165.5 196 c 128,-1,12
 167 241 167 241 168.5 295.5 c 128,-1,13
 170 350 170 350 172 408 c 128,-1,14
 174 466 174 466 176 516 c 1,15,-1
 130 516 l 1,16,17
 128 460 128 460 127 404.5 c 128,-1,18
 126 349 126 349 125 295.5 c 128,-1,19
 124 242 124 242 123.5 190 c 128,-1,20
 123 138 123 138 123 90 c 0,21,22
 123 62 123 62 129.5 43 c 128,-1,23
 136 24 136 24 146 12.5 c 128,-1,24
 156 1 156 1 170 -3.5 c 128,-1,25
 184 -8 184 -8 200 -8 c 0,0,1
-14 643 m 0,26,27
 -14 624 -14 624 -0.5 610 c 128,-1,28
 13 596 13 596 33 596 c 0,29,30
 52 596 52 596 64 610 c 128,-1,31
 76 624 76 624 76 643 c 0,32,33
 76 663 76 663 64 674.5 c 128,-1,34
 52 686 52 686 33 686 c 0,35,36
 13 686 13 686 -0.5 674.5 c 128,-1,37
 -14 663 -14 663 -14 643 c 0,26,27
221 643 m 0,38,39
 221 624 221 624 235 610 c 128,-1,40
 249 596 249 596 268 596 c 256,41,42
 287 596 287 596 299.5 610 c 128,-1,43
 312 624 312 624 312 643 c 0,44,45
 312 663 312 663 299.5 674.5 c 128,-1,46
 287 686 287 686 268 686 c 256,47,48
 249 686 249 686 235 674.5 c 128,-1,49
 221 663 221 663 221 643 c 0,38,39
150 797 m 1,50,-1
 125 598 l 1,51,-1
 159 592 l 1,52,-1
 186 791 l 1,53,-1
 150 797 l 1,50,-1
EndSplineSet
EndChar

StartChar: Gamma
Encoding: 915 915 429
Width: 490
GlyphClass: 1
Flags: W
LayerCount: 2
Fore
SplineSet
558 708 m 1,0,-1
 558 668 l 1,1,-1
 135 668 l 1,2,-1
 135 10 l 1,3,-1
 93 10 l 1,4,-1
 93 708 l 1,5,-1
 558 708 l 1,0,-1
EndSplineSet
EndChar

StartChar: uni0394
Encoding: 916 916 430
Width: 612
GlyphClass: 1
Flags: W
LayerCount: 2
Fore
SplineSet
22 0 m 1,0,-1
 590 0 l 1,1,-1
 590 19 l 1,2,-1
 328 708 l 1,3,-1
 284 708 l 1,4,-1
 22 19 l 1,5,-1
 22 0 l 1,0,-1
73 38 m 1,6,-1
 223 429 l 1,7,-1
 303 653 l 1,8,-1
 307 653 l 1,9,-1
 391 429 l 1,10,-1
 537 38 l 1,11,-1
 73 38 l 1,6,-1
EndSplineSet
EndChar

StartChar: Theta
Encoding: 920 920 434
Width: 754
GlyphClass: 1
Flags: W
LayerCount: 2
Fore
SplineSet
150 334 m 1,0,-1
 587 334 l 1,1,-1
 587 374 l 1,2,-1
 150 374 l 1,3,-1
 150 334 l 1,0,-1
371 -5 m 0,4,5
 440 -5 440 -5 499.5 24 c 128,-1,6
 559 53 559 53 603 101.5 c 128,-1,7
 647 150 647 150 672 214.5 c 128,-1,8
 697 279 697 279 697 349 c 0,9,10
 697 414 697 414 673.5 477.5 c 128,-1,11
 650 541 650 541 607 591 c 128,-1,12
 564 641 564 641 504 672 c 128,-1,13
 444 703 444 703 372 703 c 0,14,15
 302 703 302 703 242 674 c 128,-1,16
 182 645 182 645 138 596 c 128,-1,17
 94 547 94 547 69 483 c 128,-1,18
 44 419 44 419 44 349 c 0,19,20
 44 282 44 282 68 218.5 c 128,-1,21
 92 155 92 155 135 105.5 c 128,-1,22
 178 56 178 56 238 25.5 c 128,-1,23
 298 -5 298 -5 371 -5 c 0,4,5
87 349 m 0,24,25
 87 407 87 407 107.5 463.5 c 128,-1,26
 128 520 128 520 165 564 c 128,-1,27
 202 608 202 608 254.5 635.5 c 128,-1,28
 307 663 307 663 371 663 c 0,29,30
 432 663 432 663 484 637 c 128,-1,31
 536 611 536 611 573.5 567.5 c 128,-1,32
 611 524 611 524 632.5 467 c 128,-1,33
 654 410 654 410 654 349 c 0,34,35
 654 291 654 291 633.5 235 c 128,-1,36
 613 179 613 179 576 134.5 c 128,-1,37
 539 90 539 90 487 62.5 c 128,-1,38
 435 35 435 35 371 35 c 0,39,40
 309 35 309 35 256.5 61 c 128,-1,41
 204 87 204 87 166.5 130.5 c 128,-1,42
 129 174 129 174 108 231 c 128,-1,43
 87 288 87 288 87 349 c 0,24,25
EndSplineSet
EndChar

StartChar: Lambda
Encoding: 923 923 437
Width: 643
GlyphClass: 1
Flags: W
LayerCount: 2
Fore
SplineSet
30 0 m 1,0,-1
 76 0 l 1,1,-1
 230 414 l 1,2,-1
 319 661 l 1,3,-1
 323 661 l 1,4,-1
 413 414 l 1,5,-1
 567 0 l 1,6,-1
 614 0 l 1,7,-1
 349 708 l 1,8,-1
 296 708 l 1,9,-1
 30 0 l 1,0,-1
EndSplineSet
EndChar

StartChar: Xi
Encoding: 926 926 440
Width: 611
GlyphClass: 1
Flags: W
LayerCount: 2
Fore
SplineSet
74 0 m 1,0,-1
 534 0 l 1,1,-1
 534 38 l 1,2,-1
 74 38 l 1,3,-1
 74 0 l 1,0,-1
142 342 m 1,4,-1
 466 342 l 1,5,-1
 466 380 l 1,6,-1
 142 380 l 1,7,-1
 142 342 l 1,4,-1
74 673 m 1,8,-1
 534 673 l 1,9,-1
 534 713 l 1,10,-1
 74 713 l 1,11,-1
 74 673 l 1,8,-1
EndSplineSet
EndChar

StartChar: Pi
Encoding: 928 928 442
Width: 622
GlyphClass: 1
Flags: W
LayerCount: 2
Fore
SplineSet
90 0 m 1,0,-1
 136 0 l 1,1,-1
 136 673 l 1,2,-1
 488 673 l 1,3,-1
 488 0 l 1,4,-1
 532 0 l 1,5,-1
 532 713 l 1,6,-1
 90 713 l 1,7,-1
 90 0 l 1,0,-1
EndSplineSet
EndChar

StartChar: Sigma
Encoding: 931 931 444
Width: 536
GlyphClass: 1
Flags: W
LayerCount: 2
Fore
SplineSet
50 0 m 1,0,-1
 495 0 l 1,1,-1
 495 38 l 1,2,-1
 111 38 l 1,3,-1
 360 363 l 1,4,-1
 115 673 l 1,5,-1
 463 673 l 1,6,-1
 463 713 l 1,7,-1
 55 713 l 1,8,-1
 55 688 l 1,9,-1
 310 364 l 1,10,-1
 50 25 l 1,11,-1
 50 0 l 1,0,-1
EndSplineSet
EndChar

StartChar: Upsilon
Encoding: 933 933 446
Width: 606
GlyphClass: 1
Flags: W
LayerCount: 2
Fore
SplineSet
281 0 m 1,0,-1
 323 0 l 1,1,-1
 323 248 l 2,2,3
 324 314 324 314 341 371.5 c 128,-1,4
 358 429 358 429 388 480.5 c 128,-1,5
 418 532 418 532 459.5 580.5 c 128,-1,6
 501 629 501 629 551 677 c 1,7,-1
 521 705 l 1,8,9
 474 657 474 657 440 620.5 c 128,-1,10
 406 584 406 584 380.5 548.5 c 128,-1,11
 355 513 355 513 337 473.5 c 128,-1,12
 319 434 319 434 304 381 c 1,13,-1
 298 381 l 1,14,15
 283 434 283 434 264.5 473.5 c 128,-1,16
 246 513 246 513 221.5 549 c 128,-1,17
 197 585 197 585 163 621.5 c 128,-1,18
 129 658 129 658 82 705 c 1,19,-1
 54 677 l 1,20,21
 99 634 99 634 139.5 588.5 c 128,-1,22
 180 543 180 543 212 491.5 c 128,-1,23
 244 440 244 440 262.5 380 c 128,-1,24
 281 320 281 320 281 248 c 2,25,-1
 281 0 l 1,0,-1
EndSplineSet
EndChar

StartChar: Phi
Encoding: 934 934 447
Width: 691
GlyphClass: 1
Flags: W
LayerCount: 2
Fore
SplineSet
335 123 m 1,0,1
 283 123 283 123 238 140.5 c 128,-1,2
 193 158 193 158 160.5 189 c 128,-1,3
 128 220 128 220 109.5 263 c 128,-1,4
 91 306 91 306 91 356 c 0,5,6
 91 407 91 407 109.5 450 c 128,-1,7
 128 493 128 493 160.5 524.5 c 128,-1,8
 193 556 193 556 238 573.5 c 128,-1,9
 283 591 283 591 335 591 c 1,10,-1
 335 632 l 1,11,12
 274 632 274 632 221.5 611 c 128,-1,13
 169 590 169 590 131 553 c 128,-1,14
 93 516 93 516 71.5 465.5 c 128,-1,15
 50 415 50 415 50 356 c 0,16,17
 50 298 50 298 71.5 248 c 128,-1,18
 93 198 93 198 131 161 c 128,-1,19
 169 124 169 124 221.5 103 c 128,-1,20
 274 82 274 82 335 82 c 1,21,-1
 335 123 l 1,0,1
368 -27 m 1,22,-1
 368 740 l 1,23,-1
 324 740 l 1,24,-1
 324 -27 l 1,25,-1
 368 -27 l 1,22,-1
360 82 m 1,26,27
 422 82 422 82 474.5 103 c 128,-1,28
 527 124 527 124 565 161 c 128,-1,29
 603 198 603 198 624 248 c 128,-1,30
 645 298 645 298 645 356 c 0,31,32
 645 415 645 415 624 465.5 c 128,-1,33
 603 516 603 516 565 553 c 128,-1,34
 527 590 527 590 474.5 611 c 128,-1,35
 422 632 422 632 360 632 c 1,36,-1
 360 591 l 1,37,38
 413 591 413 591 457 573.5 c 128,-1,39
 501 556 501 556 533 524.5 c 128,-1,40
 565 493 565 493 583 450 c 128,-1,41
 601 407 601 407 600 356 c 0,42,43
 601 306 601 306 583 263 c 128,-1,44
 565 220 565 220 533 189 c 128,-1,45
 501 158 501 158 457 140.5 c 128,-1,46
 413 123 413 123 360 123 c 1,47,-1
 360 82 l 1,26,27
EndSplineSet
EndChar

StartChar: Psi
Encoding: 936 936 449
Width: 697
GlyphClass: 1
Flags: W
LayerCount: 2
Fore
SplineSet
327 0 m 1,0,-1
 372 0 l 1,1,-1
 372 708 l 1,2,-1
 327 708 l 1,3,-1
 327 0 l 1,0,-1
82 426 m 2,4,5
 82 368 82 368 98.5 323 c 128,-1,6
 115 278 115 278 147.5 247 c 128,-1,7
 180 216 180 216 227.5 199.5 c 128,-1,8
 275 183 275 183 335 183 c 1,9,-1
 336 221 l 1,10,11
 283 221 283 221 243 235 c 128,-1,12
 203 249 203 249 175.5 275.5 c 128,-1,13
 148 302 148 302 134 340 c 128,-1,14
 120 378 120 378 120 427 c 0,15,16
 120 438 120 438 121 456 c 128,-1,17
 122 474 122 474 122.5 496.5 c 128,-1,18
 123 519 123 519 123 545 c 128,-1,19
 123 571 123 571 123 597 c 0,20,21
 124 631 124 631 121.5 657.5 c 128,-1,22
 119 684 119 684 113 708 c 1,23,-1
 71 708 l 1,24,25
 75 688 75 688 77 672 c 128,-1,26
 79 656 79 656 80 641 c 128,-1,27
 81 626 81 626 81.5 612 c 128,-1,28
 82 598 82 598 82 581 c 2,29,-1
 82 426 l 2,4,5
614 581 m 2,30,31
 614 598 614 598 614 612.5 c 128,-1,32
 614 627 614 627 615 641.5 c 128,-1,33
 616 656 616 656 618 672 c 128,-1,34
 620 688 620 688 624 708 c 1,35,-1
 582 708 l 1,36,37
 576 684 576 684 575 657.5 c 128,-1,38
 574 631 574 631 574 597 c 0,39,40
 574 571 574 571 574.5 545 c 128,-1,41
 575 519 575 519 575 496.5 c 128,-1,42
 575 474 575 474 575.5 456 c 128,-1,43
 576 438 576 438 576 427 c 0,44,45
 576 378 576 378 561.5 340 c 128,-1,46
 547 302 547 302 520 275.5 c 128,-1,47
 493 249 493 249 453.5 235 c 128,-1,48
 414 221 414 221 363 221 c 1,49,-1
 364 183 l 1,50,51
 425 183 425 183 471.5 199.5 c 128,-1,52
 518 216 518 216 550 247.5 c 128,-1,53
 582 279 582 279 598 324 c 128,-1,54
 614 369 614 369 614 426 c 2,55,-1
 614 581 l 2,30,31
EndSplineSet
EndChar

StartChar: uni03A9
Encoding: 937 937 450
Width: 698
GlyphClass: 1
Flags: W
LayerCount: 2
Fore
SplineSet
65 0 m 1,0,-1
 304 0 l 1,1,-1
 304 128 l 1,2,3
 260 140 260 140 222 164.5 c 128,-1,4
 184 189 184 189 156.5 224.5 c 128,-1,5
 129 260 129 260 113.5 306 c 128,-1,6
 98 352 98 352 98 406 c 0,7,8
 98 463 98 463 117 512 c 128,-1,9
 136 561 136 561 169.5 597 c 128,-1,10
 203 633 203 633 249 653.5 c 128,-1,11
 295 674 295 674 349 673 c 0,12,13
 403 674 403 674 449.5 653.5 c 128,-1,14
 496 633 496 633 529.5 597 c 128,-1,15
 563 561 563 561 582.5 512.5 c 128,-1,16
 602 464 602 464 601 407 c 0,17,18
 602 352 602 352 586 305.5 c 128,-1,19
 570 259 570 259 542 224 c 128,-1,20
 514 189 514 189 475.5 164 c 128,-1,21
 437 139 437 139 393 128 c 1,22,-1
 393 0 l 1,23,-1
 633 0 l 1,24,-1
 633 42 l 1,25,-1
 414 42 l 1,26,-1
 436 19 l 1,27,-1
 436 119 l 1,28,-1
 422 93 l 1,29,30
 470 109 470 109 511 138 c 128,-1,31
 552 167 552 167 582.5 207 c 128,-1,32
 613 247 613 247 630.5 297.5 c 128,-1,33
 648 348 648 348 648 407 c 0,34,35
 648 473 648 473 625 530 c 128,-1,36
 602 587 602 587 562 628 c 128,-1,37
 522 669 522 669 467.5 692.5 c 128,-1,38
 413 716 413 716 349 716 c 256,39,40
 285 716 285 716 231 692.5 c 128,-1,41
 177 669 177 669 137.5 628 c 128,-1,42
 98 587 98 587 75.5 530.5 c 128,-1,43
 53 474 53 474 53 407 c 0,44,45
 53 348 53 348 70 297 c 128,-1,46
 87 246 87 246 117 206 c 128,-1,47
 147 166 147 166 188 137 c 128,-1,48
 229 108 229 108 278 93 c 1,49,-1
 262 119 l 1,50,-1
 262 19 l 1,51,-1
 285 42 l 1,52,-1
 66 42 l 1,53,-1
 65 0 l 1,0,-1
EndSplineSet
EndChar

StartChar: Iotadieresis
Encoding: 938 938 451
Width: 292
GlyphClass: 1
Flags: W
LayerCount: 2
Fore
SplineSet
135 0 m 1,0,-1
 135 698 l 1,1,-1
 93 698 l 1,2,-1
 93 0 l 1,3,-1
 135 0 l 1,0,-1
16 859 m 256,4,5
 16 842 16 842 26.5 830.5 c 128,-1,6
 37 819 37 819 53 819 c 256,7,8
 69 819 69 819 80.5 831 c 128,-1,9
 92 843 92 843 92 859 c 0,10,11
 92 876 92 876 80.5 888 c 128,-1,12
 69 900 69 900 53 900 c 256,13,14
 37 900 37 900 26.5 888 c 128,-1,15
 16 876 16 876 16 859 c 256,4,5
136 859 m 256,16,17
 136 842 136 842 147 830.5 c 128,-1,18
 158 819 158 819 174 819 c 256,19,20
 190 819 190 819 201.5 831 c 128,-1,21
 213 843 213 843 213 859 c 0,22,23
 213 876 213 876 202 888 c 128,-1,24
 191 900 191 900 174 900 c 0,25,26
 158 900 158 900 147 888 c 128,-1,27
 136 876 136 876 136 859 c 256,16,17
EndSplineSet
EndChar

StartChar: alphatonos
Encoding: 940 940 453
Width: 643
GlyphClass: 1
Flags: W
LayerCount: 2
Fore
SplineSet
469 251 m 2,0,1
 462 224 462 224 450.5 186.5 c 128,-1,2
 439 149 439 149 417.5 116 c 128,-1,3
 396 83 396 83 362.5 59.5 c 128,-1,4
 329 36 329 36 277 35 c 0,5,6
 236 36 236 36 202.5 52 c 128,-1,7
 169 68 169 68 145 97 c 128,-1,8
 121 126 121 126 108 166 c 128,-1,9
 95 206 95 206 95 254 c 0,10,11
 95 308 95 308 108 350.5 c 128,-1,12
 121 393 121 393 143 423.5 c 128,-1,13
 165 454 165 454 196 470 c 128,-1,14
 227 486 227 486 264 486 c 0,15,16
 299 486 299 486 325 470.5 c 128,-1,17
 351 455 351 455 371 429.5 c 128,-1,18
 391 404 391 404 405 371 c 128,-1,19
 419 338 419 338 429 303.5 c 128,-1,20
 439 269 439 269 445.5 236 c 128,-1,21
 452 203 452 203 457 177 c 1,22,-1
 485 231 l 1,23,24
 480 273 480 273 467 325 c 128,-1,25
 454 377 454 377 428.5 422 c 128,-1,26
 403 467 403 467 363.5 498 c 128,-1,27
 324 529 324 529 266 529 c 0,28,29
 219 529 219 529 180 509 c 128,-1,30
 141 489 141 489 113.5 453 c 128,-1,31
 86 417 86 417 70.5 367 c 128,-1,32
 55 317 55 317 55 256 c 0,33,34
 55 200 55 200 70.5 151.5 c 128,-1,35
 86 103 86 103 115 68 c 128,-1,36
 144 33 144 33 184 12.5 c 128,-1,37
 224 -8 224 -8 273 -8 c 0,38,39
 312 -8 312 -8 346 5 c 128,-1,40
 380 18 380 18 407.5 43 c 128,-1,41
 435 68 435 68 456.5 104.5 c 128,-1,42
 478 141 478 141 492 187 c 2,43,-1
 594 519 l 1,44,-1
 546 519 l 1,45,-1
 469 251 l 2,0,1
595 33 m 1,46,-1
 568 47 l 2,47,48
 556 54 556 54 544.5 65.5 c 128,-1,49
 533 77 533 77 522.5 94 c 128,-1,50
 512 111 512 111 503 132 c 128,-1,51
 494 153 494 153 489 179 c 1,52,-1
 457 150 l 1,53,54
 460 126 460 126 469 104 c 128,-1,55
 478 82 478 82 490.5 63.5 c 128,-1,56
 503 45 503 45 518.5 30 c 128,-1,57
 534 15 534 15 551 5 c 2,58,-1
 576 -8 l 1,59,-1
 595 33 l 1,46,-1
294 784 m 1,60,-1
 269 583 l 1,61,-1
 304 578 l 1,62,-1
 331 778 l 1,63,-1
 294 784 l 1,60,-1
EndSplineSet
EndChar

StartChar: epsilontonos
Encoding: 941 941 454
Width: 464
GlyphClass: 1
Flags: W
LayerCount: 2
Fore
SplineSet
411 56 m 1,0,1
 381 46 381 46 344.5 41 c 128,-1,2
 308 36 308 36 276 34 c 0,3,4
 198 36 198 36 153.5 64 c 128,-1,5
 109 92 109 92 107 143 c 0,6,7
 108 170 108 170 122.5 190.5 c 128,-1,8
 137 211 137 211 162 223.5 c 128,-1,9
 187 236 187 236 221 242.5 c 128,-1,10
 255 249 255 249 293 248 c 2,11,-1
 337 248 l 1,12,-1
 337 293 l 1,13,-1
 282 293 l 2,14,15
 250 293 250 293 222 300.5 c 128,-1,16
 194 308 194 308 173.5 321 c 128,-1,17
 153 334 153 334 141.5 352.5 c 128,-1,18
 130 371 130 371 130 393 c 0,19,20
 130 409 130 409 137.5 425.5 c 128,-1,21
 145 442 145 442 161 456 c 128,-1,22
 177 470 177 470 203 478 c 128,-1,23
 229 486 229 486 266 486 c 0,24,25
 283 486 283 486 302.5 484.5 c 128,-1,26
 322 483 322 483 340 480.5 c 128,-1,27
 358 478 358 478 374 473.5 c 128,-1,28
 390 469 390 469 400 464 c 1,29,-1
 414 507 l 1,30,31
 401 512 401 512 383.5 516 c 128,-1,32
 366 520 366 520 347 523 c 128,-1,33
 328 526 328 526 309.5 527.5 c 128,-1,34
 291 529 291 529 274 529 c 0,35,36
 225 529 225 529 189.5 518 c 128,-1,37
 154 507 154 507 131.5 489 c 128,-1,38
 109 471 109 471 98 448 c 128,-1,39
 87 425 87 425 87 399 c 0,40,41
 87 378 87 378 95 358 c 128,-1,42
 103 338 103 338 117 321.5 c 128,-1,43
 131 305 131 305 149 293 c 128,-1,44
 167 281 167 281 188 276 c 1,45,-1
 188 274 l 1,46,47
 162 267 162 267 139.5 254.5 c 128,-1,48
 117 242 117 242 100.5 224.5 c 128,-1,49
 84 207 84 207 74.5 185 c 128,-1,50
 65 163 65 163 65 137 c 0,51,52
 65 105 65 105 80.5 78 c 128,-1,53
 96 51 96 51 124 32 c 128,-1,54
 152 13 152 13 191.5 2.5 c 128,-1,55
 231 -8 231 -8 279 -8 c 0,56,57
 299 -8 299 -8 319 -6.5 c 128,-1,58
 339 -5 339 -5 357.5 -2.5 c 128,-1,59
 376 0 376 0 391.5 3 c 128,-1,60
 407 6 407 6 419 9 c 1,61,-1
 411 56 l 1,0,1
281 823 m 1,62,-1
 256 622 l 1,63,-1
 291 616 l 1,64,-1
 318 817 l 1,65,-1
 281 823 l 1,62,-1
EndSplineSet
EndChar

StartChar: etatonos
Encoding: 942 942 455
Width: 558
GlyphClass: 1
Flags: W
LayerCount: 2
Fore
SplineSet
125 0 m 1,0,1
 135 95 135 95 141 180.5 c 128,-1,2
 147 266 147 266 146 345 c 0,3,4
 146 376 146 376 144 403 c 128,-1,5
 142 430 142 430 134 452.5 c 128,-1,6
 126 475 126 475 110.5 494.5 c 128,-1,7
 95 514 95 514 69 529 c 1,8,-1
 45 490 l 1,9,10
 60 482 60 482 70.5 473 c 128,-1,11
 81 464 81 464 88 446 c 128,-1,12
 95 428 95 428 98.5 398 c 128,-1,13
 102 368 102 368 101 320 c 0,14,15
 103 253 103 253 97 169 c 128,-1,16
 91 85 91 85 80 0 c 1,17,-1
 125 0 l 1,0,1
423 -209 m 1,18,19
 434 -172 434 -172 444 -116 c 128,-1,20
 454 -60 454 -60 462.5 3.5 c 128,-1,21
 471 67 471 67 476 132.5 c 128,-1,22
 481 198 481 198 481 254 c 0,23,24
 481 397 481 397 445 463 c 128,-1,25
 409 529 409 529 329 529 c 0,26,27
 290 529 290 529 258 514.5 c 128,-1,28
 226 500 226 500 200.5 476.5 c 128,-1,29
 175 453 175 453 157.5 422.5 c 128,-1,30
 140 392 140 392 131 359 c 1,31,-1
 141 220 l 1,32,33
 142 266 142 266 154 313 c 128,-1,34
 166 360 166 360 189 398 c 128,-1,35
 212 436 212 436 245 459.5 c 128,-1,36
 278 483 278 483 320 483 c 0,37,38
 382 483 382 483 409.5 425 c 128,-1,39
 437 367 437 367 438 239 c 0,40,41
 438 196 438 196 434.5 144.5 c 128,-1,42
 431 93 431 93 424 35.5 c 128,-1,43
 417 -22 417 -22 406.5 -83 c 128,-1,44
 396 -144 396 -144 381 -205 c 1,45,-1
 423 -209 l 1,18,19
316 784 m 1,46,-1
 291 583 l 1,47,-1
 326 578 l 1,48,-1
 353 778 l 1,49,-1
 316 784 l 1,46,-1
EndSplineSet
EndChar

StartChar: iotatonos
Encoding: 943 943 456
Width: 258
GlyphClass: 1
Flags: W
LayerCount: 2
Fore
SplineSet
165 -8 m 0,0,1
 170 -8 170 -8 184 -7 c 128,-1,2
 198 -6 198 -6 213 1 c 1,3,-1
 200 40 l 1,4,5
 190 37 190 37 183 35 c 128,-1,6
 176 33 176 33 168 31 c 0,7,8
 146 33 146 33 137.5 52.5 c 128,-1,9
 129 72 129 72 128 128 c 0,10,11
 128 152 128 152 129.5 197.5 c 128,-1,12
 131 243 131 243 133 298 c 128,-1,13
 135 353 135 353 137 411.5 c 128,-1,14
 139 470 139 470 141 520 c 1,15,-1
 94 520 l 1,16,17
 92 464 92 464 91 408 c 128,-1,18
 90 352 90 352 89 298 c 128,-1,19
 88 244 88 244 88 192 c 128,-1,20
 88 140 88 140 88 91 c 0,21,22
 88 63 88 63 94 44 c 128,-1,23
 100 25 100 25 110.5 13 c 128,-1,24
 121 1 121 1 135 -3.5 c 128,-1,25
 149 -8 149 -8 165 -8 c 0,0,1
119 786 m 1,26,-1
 95 584 l 1,27,-1
 129 579 l 1,28,-1
 156 780 l 1,29,-1
 119 786 l 1,26,-1
EndSplineSet
EndChar

StartChar: upsilondieresistonos
Encoding: 944 944 457
Width: 536
GlyphClass: 1
Flags: W
LayerCount: 2
Fore
SplineSet
81 167 m 0,0,1
 81 117 81 117 98 83.5 c 128,-1,2
 115 50 115 50 142 29.5 c 128,-1,3
 169 9 169 9 203.5 0.5 c 128,-1,4
 238 -8 238 -8 272 -8 c 0,5,6
 315 -8 315 -8 352 7 c 128,-1,7
 389 22 389 22 415.5 55 c 128,-1,8
 442 88 442 88 457.5 141 c 128,-1,9
 473 194 473 194 473 270 c 0,10,11
 473 292 473 292 471.5 321.5 c 128,-1,12
 470 351 470 351 467.5 385 c 128,-1,13
 465 419 465 419 460 454 c 128,-1,14
 455 489 455 489 448 520 c 1,15,-1
 405 520 l 1,16,17
 413 486 413 486 418.5 450.5 c 128,-1,18
 424 415 424 415 427 382 c 128,-1,19
 430 349 430 349 431.5 321 c 128,-1,20
 433 293 433 293 433 272 c 0,21,22
 433 147 433 147 391.5 91 c 128,-1,23
 350 35 350 35 273 33 c 0,24,25
 244 34 244 34 217 41.5 c 128,-1,26
 190 49 190 49 169 65 c 128,-1,27
 148 81 148 81 135 106.5 c 128,-1,28
 122 132 122 132 121 169 c 0,29,30
 122 180 122 180 123.5 200 c 128,-1,31
 125 220 125 220 126 243 c 128,-1,32
 127 266 127 266 128 289.5 c 128,-1,33
 129 313 129 313 129 333 c 0,34,35
 129 358 129 358 127.5 381.5 c 128,-1,36
 126 405 126 405 122.5 427.5 c 128,-1,37
 119 450 119 450 114.5 473 c 128,-1,38
 110 496 110 496 102 520 c 1,39,-1
 63 520 l 1,40,41
 76 467 76 467 81.5 419.5 c 128,-1,42
 87 372 87 372 87 326 c 0,43,44
 87 305 87 305 86 282 c 128,-1,45
 85 259 85 259 84 237.5 c 128,-1,46
 83 216 83 216 82 197.5 c 128,-1,47
 81 179 81 179 81 167 c 0,0,1
80 647 m 0,48,49
 80 628 80 628 94 614 c 128,-1,50
 108 600 108 600 128 600 c 256,51,52
 148 600 148 600 160 614 c 128,-1,53
 172 628 172 628 172 647 c 0,54,55
 172 667 172 667 160 679 c 128,-1,56
 148 691 148 691 128 691 c 256,57,58
 108 691 108 691 94 679 c 128,-1,59
 80 667 80 667 80 647 c 0,48,49
320 647 m 0,60,61
 320 628 320 628 334 614 c 128,-1,62
 348 600 348 600 368 600 c 256,63,64
 388 600 388 600 400 614 c 128,-1,65
 412 628 412 628 412 647 c 0,66,67
 412 667 412 667 400 679 c 128,-1,68
 388 691 388 691 368 691 c 256,69,70
 348 691 348 691 334 679 c 128,-1,71
 320 667 320 667 320 647 c 0,60,61
247 803 m 1,72,-1
 222 601 l 1,73,-1
 257 596 l 1,74,-1
 284 797 l 1,75,-1
 247 803 l 1,72,-1
EndSplineSet
EndChar

StartChar: alpha
Encoding: 945 945 458
Width: 643
GlyphClass: 1
Flags: W
LayerCount: 2
Fore
SplineSet
469 251 m 2,0,1
 462 224 462 224 450.5 186.5 c 128,-1,2
 439 149 439 149 417.5 116 c 128,-1,3
 396 83 396 83 362.5 59.5 c 128,-1,4
 329 36 329 36 277 35 c 0,5,6
 236 36 236 36 202.5 52 c 128,-1,7
 169 68 169 68 145 97 c 128,-1,8
 121 126 121 126 108 166 c 128,-1,9
 95 206 95 206 95 254 c 0,10,11
 95 308 95 308 108 350.5 c 128,-1,12
 121 393 121 393 143 423.5 c 128,-1,13
 165 454 165 454 196 470 c 128,-1,14
 227 486 227 486 264 486 c 0,15,16
 299 486 299 486 325 470.5 c 128,-1,17
 351 455 351 455 371 429.5 c 128,-1,18
 391 404 391 404 405 371 c 128,-1,19
 419 338 419 338 429 303.5 c 128,-1,20
 439 269 439 269 445.5 236 c 128,-1,21
 452 203 452 203 457 177 c 1,22,-1
 485 231 l 1,23,24
 480 273 480 273 467 325 c 128,-1,25
 454 377 454 377 428.5 422 c 128,-1,26
 403 467 403 467 363.5 498 c 128,-1,27
 324 529 324 529 266 529 c 0,28,29
 219 529 219 529 180 509 c 128,-1,30
 141 489 141 489 113.5 453 c 128,-1,31
 86 417 86 417 70.5 367 c 128,-1,32
 55 317 55 317 55 256 c 0,33,34
 55 200 55 200 70.5 151.5 c 128,-1,35
 86 103 86 103 115 68 c 128,-1,36
 144 33 144 33 184 12.5 c 128,-1,37
 224 -8 224 -8 273 -8 c 0,38,39
 312 -8 312 -8 346 5 c 128,-1,40
 380 18 380 18 407.5 43 c 128,-1,41
 435 68 435 68 456.5 104.5 c 128,-1,42
 478 141 478 141 492 187 c 2,43,-1
 594 519 l 1,44,-1
 546 519 l 1,45,-1
 469 251 l 2,0,1
595 33 m 1,46,-1
 568 47 l 2,47,48
 556 54 556 54 544.5 65.5 c 128,-1,49
 533 77 533 77 522.5 94 c 128,-1,50
 512 111 512 111 503 132 c 128,-1,51
 494 153 494 153 489 179 c 1,52,-1
 457 150 l 1,53,54
 460 126 460 126 469 104 c 128,-1,55
 478 82 478 82 490.5 63.5 c 128,-1,56
 503 45 503 45 518.5 30 c 128,-1,57
 534 15 534 15 551 5 c 2,58,-1
 576 -8 l 1,59,-1
 595 33 l 1,46,-1
EndSplineSet
EndChar

StartChar: beta
Encoding: 946 946 459
Width: 636
GlyphClass: 1
Flags: W
LayerCount: 2
Fore
SplineSet
128 75 m 1,0,1
 152 52 152 52 179 36 c 128,-1,2
 206 20 206 20 233.5 10 c 128,-1,3
 261 0 261 0 288 -4 c 128,-1,4
 315 -8 315 -8 339 -8 c 0,5,6
 388 -8 388 -8 430.5 10.5 c 128,-1,7
 473 29 473 29 504 60 c 128,-1,8
 535 91 535 91 553 132.5 c 128,-1,9
 571 174 571 174 571 219 c 0,10,11
 571 260 571 260 557 296.5 c 128,-1,12
 543 333 543 333 516.5 361 c 128,-1,13
 490 389 490 389 452 407 c 128,-1,14
 414 425 414 425 365 429 c 1,15,-1
 365 433 l 1,16,17
 392 449 392 449 414 468 c 128,-1,18
 436 487 436 487 451.5 508.5 c 128,-1,19
 467 530 467 530 475.5 555 c 128,-1,20
 484 580 484 580 484 607 c 0,21,22
 484 639 484 639 472.5 668 c 128,-1,23
 461 697 461 697 437.5 720 c 128,-1,24
 414 743 414 743 379 756.5 c 128,-1,25
 344 770 344 770 298 769 c 0,26,27
 239 770 239 770 200 748.5 c 128,-1,28
 161 727 161 727 137 688.5 c 128,-1,29
 113 650 113 650 102.5 597.5 c 128,-1,30
 92 545 92 545 92 484 c 2,31,-1
 92 -208 l 1,32,-1
 137 -208 l 1,33,34
 137 -137 137 -137 136 -61.5 c 128,-1,35
 135 14 135 14 134 76 c 2,36,-1
 135 103 l 2,37,38
 135 139 135 139 135 176.5 c 128,-1,39
 135 214 135 214 135 257.5 c 128,-1,40
 135 301 135 301 135 354 c 128,-1,41
 135 407 135 407 135 475 c 0,42,43
 135 533 135 533 143.5 579.5 c 128,-1,44
 152 626 152 626 170.5 659 c 128,-1,45
 189 692 189 692 220.5 710.5 c 128,-1,46
 252 729 252 729 299 729 c 0,47,48
 335 729 335 729 362 718 c 128,-1,49
 389 707 389 707 406.5 689.5 c 128,-1,50
 424 672 424 672 432.5 649.5 c 128,-1,51
 441 627 441 627 441 605 c 0,52,53
 441 578 441 578 429.5 551.5 c 128,-1,54
 418 525 418 525 394 501 c 128,-1,55
 370 477 370 477 333.5 458 c 128,-1,56
 297 439 297 439 247 427 c 1,57,-1
 247 391 l 1,58,59
 249 392 249 392 257 393 c 128,-1,60
 265 394 265 394 277.5 395.5 c 128,-1,61
 290 397 290 397 303.5 397.5 c 128,-1,62
 317 398 317 398 328 397 c 0,63,64
 374 398 374 398 411.5 384 c 128,-1,65
 449 370 449 370 475.5 346.5 c 128,-1,66
 502 323 502 323 516.5 290.5 c 128,-1,67
 531 258 531 258 531 220 c 0,68,69
 531 181 531 181 515.5 146.5 c 128,-1,70
 500 112 500 112 473 86.5 c 128,-1,71
 446 61 446 61 410.5 46 c 128,-1,72
 375 31 375 31 335 30 c 0,73,74
 315 31 315 31 289.5 36 c 128,-1,75
 264 41 264 41 236.5 51.5 c 128,-1,76
 209 62 209 62 181.5 79.5 c 128,-1,77
 154 97 154 97 129 124 c 1,78,-1
 128 75 l 1,0,1
EndSplineSet
EndChar

StartChar: gamma
Encoding: 947 947 460
Width: 512
GlyphClass: 1
Flags: W
LayerCount: 2
Fore
SplineSet
219 -208 m 1,0,1
 235 -94 235 -94 243 12 c 128,-1,2
 251 118 251 118 239 212.5 c 128,-1,3
 227 307 227 307 188.5 387.5 c 128,-1,4
 150 468 150 468 73 531 c 1,5,-1
 46 500 l 1,6,7
 94 464 94 464 124.5 416 c 128,-1,8
 155 368 155 368 173 312.5 c 128,-1,9
 191 257 191 257 197.5 194.5 c 128,-1,10
 204 132 204 132 203 65.5 c 128,-1,11
 202 -1 202 -1 194 -70 c 128,-1,12
 186 -139 186 -139 176 -208 c 1,13,-1
 219 -208 l 1,0,1
218 1 m 1,14,15
 274 77 274 77 316.5 144 c 128,-1,16
 359 211 359 211 390 273.5 c 128,-1,17
 421 336 421 336 442 396.5 c 128,-1,18
 463 457 463 457 477 520 c 1,19,-1
 432 520 l 1,20,21
 423 463 423 463 401 403.5 c 128,-1,22
 379 344 379 344 349.5 286.5 c 128,-1,23
 320 229 320 229 286 174.5 c 128,-1,24
 252 120 252 120 218 70 c 1,25,-1
 218 1 l 1,14,15
EndSplineSet
EndChar

StartChar: delta
Encoding: 948 948 461
Width: 615
GlyphClass: 1
Flags: W
LayerCount: 2
Fore
SplineSet
298 -8 m 0,0,1
 352 -8 352 -8 397 12 c 128,-1,2
 442 32 442 32 475 67 c 128,-1,3
 508 102 508 102 526.5 149.5 c 128,-1,4
 545 197 545 197 545 253 c 0,5,6
 545 311 545 311 526.5 355 c 128,-1,7
 508 399 508 399 479.5 433 c 128,-1,8
 451 467 451 467 414.5 492.5 c 128,-1,9
 378 518 378 518 342 540 c 0,10,11
 316 558 316 558 291 573.5 c 128,-1,12
 266 589 266 589 247 605 c 128,-1,13
 228 621 228 621 216.5 638 c 128,-1,14
 205 655 205 655 205 674 c 0,15,16
 205 701 205 701 226.5 715 c 128,-1,17
 248 729 248 729 289 729 c 0,18,19
 319 729 319 729 355.5 721.5 c 128,-1,20
 392 714 392 714 427.5 701 c 128,-1,21
 463 688 463 688 494 671.5 c 128,-1,22
 525 655 525 655 545 636 c 1,23,-1
 572 668 l 1,24,25
 552 687 552 687 519 705.5 c 128,-1,26
 486 724 486 724 447 738.5 c 128,-1,27
 408 753 408 753 367 762 c 128,-1,28
 326 771 326 771 289 770 c 0,29,30
 227 772 227 772 192.5 745 c 128,-1,31
 158 718 158 718 158 676 c 0,32,33
 158 648 158 648 172 625 c 128,-1,34
 186 602 186 602 208 582 c 128,-1,35
 230 562 230 562 257.5 544.5 c 128,-1,36
 285 527 285 527 313 509 c 0,37,38
 346 490 346 490 380 466 c 128,-1,39
 414 442 414 442 442 411.5 c 128,-1,40
 470 381 470 381 487.5 341 c 128,-1,41
 505 301 505 301 505 250 c 0,42,43
 505 204 505 204 489 165.5 c 128,-1,44
 473 127 473 127 445.5 98 c 128,-1,45
 418 69 418 69 380 53 c 128,-1,46
 342 37 342 37 298 36 c 0,47,48
 254 37 254 37 216 53 c 128,-1,49
 178 69 178 69 150 97.5 c 128,-1,50
 122 126 122 126 106 164.5 c 128,-1,51
 90 203 90 203 90 248 c 0,52,53
 90 296 90 296 107 336 c 128,-1,54
 124 376 124 376 152.5 405.5 c 128,-1,55
 181 435 181 435 218.5 451 c 128,-1,56
 256 467 256 467 299 466 c 0,57,58
 338 467 338 467 374 454.5 c 128,-1,59
 410 442 410 442 442 419 c 1,60,-1
 411 473 l 1,61,62
 385 490 385 490 353.5 498.5 c 128,-1,63
 322 507 322 507 292 507 c 0,64,65
 243 507 243 507 199 488.5 c 128,-1,66
 155 470 155 470 122 436 c 128,-1,67
 89 402 89 402 69.5 354 c 128,-1,68
 50 306 50 306 50 248 c 0,69,70
 50 195 50 195 69 148 c 128,-1,71
 88 101 88 101 121 66.5 c 128,-1,72
 154 32 154 32 199.5 12 c 128,-1,73
 245 -8 245 -8 298 -8 c 0,0,1
EndSplineSet
EndChar

StartChar: epsilon
Encoding: 949 949 462
Width: 466
GlyphClass: 1
Flags: W
LayerCount: 2
Fore
SplineSet
411 56 m 1,0,1
 381 46 381 46 344.5 41 c 128,-1,2
 308 36 308 36 276 34 c 0,3,4
 198 36 198 36 153.5 64 c 128,-1,5
 109 92 109 92 107 143 c 0,6,7
 108 170 108 170 122.5 190.5 c 128,-1,8
 137 211 137 211 162 223.5 c 128,-1,9
 187 236 187 236 221 242.5 c 128,-1,10
 255 249 255 249 293 248 c 2,11,-1
 337 248 l 1,12,-1
 337 293 l 1,13,-1
 282 293 l 2,14,15
 250 293 250 293 222 300.5 c 128,-1,16
 194 308 194 308 173.5 321 c 128,-1,17
 153 334 153 334 141.5 352.5 c 128,-1,18
 130 371 130 371 130 393 c 0,19,20
 130 409 130 409 137.5 425.5 c 128,-1,21
 145 442 145 442 161 456 c 128,-1,22
 177 470 177 470 203 478 c 128,-1,23
 229 486 229 486 266 486 c 0,24,25
 283 486 283 486 302.5 484.5 c 128,-1,26
 322 483 322 483 340 480.5 c 128,-1,27
 358 478 358 478 374 473.5 c 128,-1,28
 390 469 390 469 400 464 c 1,29,-1
 414 507 l 1,30,31
 401 512 401 512 383.5 516 c 128,-1,32
 366 520 366 520 347 523 c 128,-1,33
 328 526 328 526 309.5 527.5 c 128,-1,34
 291 529 291 529 274 529 c 0,35,36
 225 529 225 529 189.5 518 c 128,-1,37
 154 507 154 507 131.5 489 c 128,-1,38
 109 471 109 471 98 448 c 128,-1,39
 87 425 87 425 87 399 c 0,40,41
 87 378 87 378 95 358 c 128,-1,42
 103 338 103 338 117 321.5 c 128,-1,43
 131 305 131 305 149 293 c 128,-1,44
 167 281 167 281 188 276 c 1,45,-1
 188 274 l 1,46,47
 162 267 162 267 139.5 254.5 c 128,-1,48
 117 242 117 242 100.5 224.5 c 128,-1,49
 84 207 84 207 74.5 185 c 128,-1,50
 65 163 65 163 65 137 c 0,51,52
 65 105 65 105 80.5 78 c 128,-1,53
 96 51 96 51 124 32 c 128,-1,54
 152 13 152 13 191.5 2.5 c 128,-1,55
 231 -8 231 -8 279 -8 c 0,56,57
 299 -8 299 -8 319 -6.5 c 128,-1,58
 339 -5 339 -5 357.5 -2.5 c 128,-1,59
 376 0 376 0 391.5 3 c 128,-1,60
 407 6 407 6 419 9 c 1,61,-1
 411 56 l 1,0,1
EndSplineSet
EndChar

StartChar: zeta
Encoding: 950 950 463
Width: 492
GlyphClass: 1
Flags: W
LayerCount: 2
Fore
SplineSet
336 -156 m 0,0,1
 368 -156 368 -156 395 -147.5 c 128,-1,2
 422 -139 422 -139 442 -124 c 128,-1,3
 462 -109 462 -109 473.5 -89 c 128,-1,4
 485 -69 485 -69 484 -45 c 0,5,6
 485 -26 485 -26 477 -10 c 128,-1,7
 469 6 469 6 455 18 c 128,-1,8
 441 30 441 30 421.5 36 c 128,-1,9
 402 42 402 42 379 42 c 0,10,11
 357 43 357 43 327.5 38.5 c 128,-1,12
 298 34 298 34 261 33 c 0,13,14
 235 34 235 34 209.5 39 c 128,-1,15
 184 44 184 44 163.5 60 c 128,-1,16
 143 76 143 76 130.5 105.5 c 128,-1,17
 118 135 118 135 117 182 c 0,18,19
 118 223 118 223 128 267 c 128,-1,20
 138 311 138 311 156.5 356.5 c 128,-1,21
 175 402 175 402 201.5 447.5 c 128,-1,22
 228 493 228 493 262 536.5 c 128,-1,23
 296 580 296 580 337.5 620 c 128,-1,24
 379 660 379 660 426 693 c 1,25,-1
 426 728 l 1,26,-1
 256 728 l 2,27,28
 239 728 239 728 228 730.5 c 128,-1,29
 217 733 217 733 210.5 737 c 128,-1,30
 204 741 204 741 201 747 c 128,-1,31
 198 753 198 753 197 760 c 0,32,33
 198 766 198 766 201 776 c 128,-1,34
 204 786 204 786 209 791 c 1,35,-1
 167 809 l 1,36,37
 159 795 159 795 156 784 c 128,-1,38
 153 773 153 773 153 762 c 0,39,40
 153 728 153 728 176.5 707.5 c 128,-1,41
 200 687 200 687 254 686 c 2,42,-1
 372 686 l 1,43,-1
 364 704 l 1,44,45
 323 676 323 676 272 621.5 c 128,-1,46
 221 567 221 567 177 496.5 c 128,-1,47
 133 426 133 426 103 344.5 c 128,-1,48
 73 263 73 263 73 180 c 0,49,50
 73 116 73 116 91.5 78.5 c 128,-1,51
 110 41 110 41 138 21.5 c 128,-1,52
 166 2 166 2 198.5 -3 c 128,-1,53
 231 -8 231 -8 259 -8 c 0,54,55
 280 -8 280 -8 297 -7 c 128,-1,56
 314 -6 314 -6 328 -4.5 c 128,-1,57
 342 -3 342 -3 353.5 -2 c 128,-1,58
 365 -1 365 -1 374 -1 c 0,59,60
 407 -1 407 -1 424 -15 c 128,-1,61
 441 -29 441 -29 441 -48 c 0,62,63
 441 -62 441 -62 432.5 -74 c 128,-1,64
 424 -86 424 -86 409 -95 c 128,-1,65
 394 -104 394 -104 373.5 -109.5 c 128,-1,66
 353 -115 353 -115 329 -115 c 0,67,68
 310 -115 310 -115 286 -111 c 128,-1,69
 262 -107 262 -107 239 -100 c 1,70,-1
 239 -145 l 1,71,72
 269 -151 269 -151 294 -154 c 128,-1,73
 319 -157 319 -157 336 -156 c 0,0,1
EndSplineSet
EndChar

